<?xml version="1.0" encoding="UTF-8" standalone="no"?>
<svg width="72px" height="71px" viewBox="0 0 72 71" version="1.1" xmlns="http://www.w3.org/2000/svg" xmlns:xlink="http://www.w3.org/1999/xlink">
    <!-- Generator: sketchtool 41.2 (35397) - http://www.bohemiancoding.com/sketch -->
    <title>7C5D21FB-2769-4BBF-99A1-3A92414382A5</title>
    <desc>Created with sketchtool.</desc>
    <defs></defs>
    <g id="Page-1" stroke="none" stroke-width="1" fill="none" fill-rule="evenodd">
        <g id="5.2-Iconography" transform="translate(-801.000000, -538.000000)">
            <g id="Content" transform="translate(50.000000, 182.000000)">
                <g id="Icons" transform="translate(449.000000, 0.000000)">
                    <g id="Group-46-Copy" transform="translate(302.870521, 356.483290)">
                        <g id="Group-18">
                            <path d="M35.1791531,0 C15.7503664,0 0,15.763383 0,35.2082262 C0,54.6530694 15.7503664,70.4164524 35.1791531,70.4164524 C54.6079397,70.4164524 70.3583062,54.6530694 70.3583062,35.2082262 C70.3583062,15.763383 54.6079397,0 35.1791531,0 M35.1791531,1.10025707 C53.9714169,1.10025707 69.2589577,16.4015321 69.2589577,35.2082262 C69.2589577,54.0149203 53.9714169,69.3161954 35.1791531,69.3161954 C16.3868893,69.3161954 1.09934853,54.0149203 1.09934853,35.2082262 C1.09934853,16.4015321 16.3868893,1.10025707 35.1791531,1.10025707" id="Fill-205" fill="#23A4D2"></path>
                            <path d="M45.8193078,45.1181316 C45.8193078,39.2031496 38.2425977,37.3657203 35.1787134,40.6807949 C32.1192264,37.3657203 24.5392182,39.2031496 24.5392182,45.1181316 C24.5392182,50.7316432 17.9508225,52.4414427 14.785798,47.7807537 C19.0831515,57.4344093 31.0363681,55.9303578 35.1787134,49.5554684 C39.3232573,55.9303578 51.2764739,57.4344093 55.572728,47.7807537 C52.4000081,52.4414427 45.8193078,50.7316432 45.8193078,45.1181316 L45.8193078,45.1181316 Z" id="Stroke-206" stroke="#23A4D2" stroke-width="1.1" stroke-linecap="round" stroke-linejoin="round"></path>
                            <path d="M20.4637134,24.8658098 C20.4637134,27.0663239 22.3567915,31.0272494 25.5383062,31.0272494 L44.8197801,31.0272494 C47.9990961,31.0272494 49.894373,27.0663239 49.894373,24.8658098 L20.4637134,24.8658098 L20.4637134,24.8658098 Z" id="Stroke-207" stroke="#23A4D2" stroke-width="1.1" stroke-linecap="round" stroke-linejoin="round"></path>
                            <path d="M24.4055375,24.6457584 L24.4055375,21.0413162 C24.4055375,15.913018 29.5999593,11.8827763 35.1791531,11.8827763 C40.7583469,11.8827763 45.9527687,15.913018 45.9527687,21.0413162 L45.9527687,24.6457584" id="Stroke-208" stroke="#23A4D2" stroke-width="1.1" stroke-linecap="round" stroke-linejoin="round"></path>
                        </g>
                    </g>
                </g>
            </g>
        </g>
    </g>
</svg>