<?xml version="1.0" encoding="UTF-8" standalone="no"?>
<svg width="71px" height="72px" viewBox="0 0 71 72" version="1.1" xmlns="http://www.w3.org/2000/svg" xmlns:xlink="http://www.w3.org/1999/xlink">
    <!-- Generator: sketchtool 41.2 (35397) - http://www.bohemiancoding.com/sketch -->
    <title>64B7B2B7-BB38-4252-B9D6-F343FFD08977</title>
    <desc>Created with sketchtool.</desc>
    <defs></defs>
    <g id="Page-1" stroke="none" stroke-width="1" fill="none" fill-rule="evenodd">
        <g id="5.2-Iconography" transform="translate(-499.000000, -300.000000)">
            <g id="Content" transform="translate(50.000000, 182.000000)">
                <g id="Icons" transform="translate(449.000000, 0.000000)">
                    <g id="Group-32-Copy" transform="translate(0.000000, 118.827763)">
                        <g id="Group-6">
                            <path d="M35.1791531,0 C15.7503664,0 0,15.763383 0,35.2082262 C0,54.6530694 15.7503664,70.4164524 35.1791531,70.4164524 C54.6079397,70.4164524 70.3583062,54.6530694 70.3583062,35.2082262 C70.3583062,15.763383 54.6079397,0 35.1791531,0 M35.1791531,1.10025707 C53.9714169,1.10025707 69.2589577,16.4015321 69.2589577,35.2082262 C69.2589577,54.0149203 53.9714169,69.3161954 35.1791531,69.3161954 C16.3868893,69.3161954 1.09934853,54.0149203 1.09934853,35.2082262 C1.09934853,16.4015321 16.3868893,1.10025707 35.1791531,1.10025707" id="Fill-103" fill="#23A4D2"></path>
                            <path d="M35.1791531,12.5742879 C22.6894544,12.5742879 12.563355,22.7076555 12.563355,35.2087763 C12.563355,47.7087969 22.6894544,57.8421645 35.1791531,57.8421645 C47.6688518,57.8421645 57.7949511,47.7087969 57.7949511,35.2087763 C57.7949511,22.7076555 47.6688518,12.5742879 35.1791531,12.5742879 M35.1791531,13.674545 C47.0433225,13.674545 56.6956026,23.3348021 56.6956026,35.2087763 C56.6956026,47.0816504 47.0433225,56.7419075 35.1791531,56.7419075 C23.3149837,56.7419075 13.6627036,47.0816504 13.6627036,35.2087763 C13.6627036,23.3348021 23.3149837,13.674545 35.1791531,13.674545" id="Fill-105" fill="#23A4D2"></path>
                            <polygon id="Stroke-107" stroke="#23A4D2" stroke-width="1.1" stroke-linecap="round" stroke-linejoin="round" points="35.1791531 21.686947 39.0114821 31.3571064 49.3849349 32.0161604 41.3805782 38.6518108 43.9585505 48.7290653 35.1791531 43.1606643 26.3997557 48.7290653 28.977728 38.6518108 20.9733713 32.0161604 31.3468241 31.3571064"></polygon>
                        </g>
                    </g>
                </g>
            </g>
        </g>
    </g>
</svg>