<?xml version="1.0" encoding="UTF-8" standalone="no"?>
<svg width="72px" height="72px" viewBox="0 0 72 72" version="1.1" xmlns="http://www.w3.org/2000/svg" xmlns:xlink="http://www.w3.org/1999/xlink">
    <!-- Generator: sketchtool 41.2 (35397) - http://www.bohemiancoding.com/sketch -->
    <title>2E938281-04A1-46AD-BA8B-94FC7EF5F414</title>
    <desc>Created with sketchtool.</desc>
    <defs></defs>
    <g id="Page-1" stroke="none" stroke-width="1" fill="none" fill-rule="evenodd">
        <g id="5.2-Iconography" transform="translate(-650.000000, -300.000000)">
            <g id="Content" transform="translate(50.000000, 182.000000)">
                <g id="Icons" transform="translate(449.000000, 0.000000)">
                    <g id="Group-33-Copy" transform="translate(151.885586, 118.827763)">
                        <g id="Group-7">
                            <path d="M35.1805497,0 C15.751763,0 0.0013965798,15.763383 0.0013965798,35.2082262 C0.0013965798,54.6530694 15.751763,70.4164524 35.1805497,70.4164524 C54.6093363,70.4164524 70.3597028,54.6530694 70.3597028,35.2082262 C70.3597028,15.763383 54.6093363,0 35.1805497,0 M35.1805497,1.10025707 C53.9728135,1.10025707 69.2603542,16.4015321 69.2603542,35.2082262 C69.2603542,54.0149203 53.9728135,69.3161954 35.1805497,69.3161954 C16.3882858,69.3161954 1.10074511,54.0149203 1.10074511,35.2082262 C1.10074511,16.4015321 16.3882858,1.10025707 35.1805497,1.10025707" id="Fill-73" fill="#23A4D2"></path>
                            <path d="M35.1360261,18.0152792 C24.9395684,18.0152792 16.6746661,26.2881121 16.6746661,36.4918961 C16.6746661,46.6967805 24.9395684,54.9696134 35.1360261,54.9696134 C45.3324837,54.9696134 53.597386,46.6967805 53.597386,36.4918961 C53.597386,26.2881121 45.3324837,18.0152792 35.1360261,18.0152792 M35.1360261,19.1155362 C44.7091531,19.1155362 52.4980375,26.9108576 52.4980375,36.4918961 C52.4980375,46.074035 44.7091531,53.8693563 35.1360261,53.8693563 C25.562899,53.8693563 17.7740147,46.074035 17.7740147,36.4918961 C17.7740147,26.9108576 25.562899,19.1155362 35.1360261,19.1155362" id="Fill-75" fill="#23A4D2"></path>
                            <path d="M30.3055985,49.0216237 C27.5429357,45.5965234 25.8884161,41.2373049 25.8884161,36.4918961 C25.8884161,31.7475877 27.5429357,27.3883692 30.3055985,23.9632689" id="Stroke-77" stroke="#23A4D2" stroke-width="1.1" stroke-linecap="round" stroke-linejoin="round"></path>
                            <path d="M39.9663436,49.0216237 C42.7290065,45.5965234 44.3835261,41.2373049 44.3835261,36.4918961 C44.3835261,31.7475877 42.7290065,27.3883692 39.9663436,23.9632689" id="Stroke-79" stroke="#23A4D2" stroke-width="1.1" stroke-linecap="round" stroke-linejoin="round"></path>
                            <path d="M22.6170847,31.6580267 C26.0393567,28.8930807 30.3949756,27.2371938 35.1364658,27.2371938 C39.8768567,27.2371938 44.2324756,28.8930807 47.6547476,31.6580267" id="Stroke-81" stroke="#23A4D2" stroke-width="1.1" stroke-linecap="round" stroke-linejoin="round"></path>
                            <path d="M22.6170847,41.3268658 C26.0393567,44.0918118 30.3949756,45.7476987 35.1364658,45.7476987 C39.8768567,45.7476987 44.2324756,44.0918118 47.6547476,41.3268658" id="Stroke-83" stroke="#23A4D2" stroke-width="1.1" stroke-linecap="round" stroke-linejoin="round"></path>
                            <path d="M35.0586319,13.6431877 L35.0586319,6.60154242" id="Stroke-85" stroke="#23A4D2" stroke-width="1.1" stroke-linecap="round" stroke-linejoin="round"></path>
                            <path d="M18.9443811,20.2875301 L15.2439739,16.5840648" id="Stroke-87" stroke="#23A4D2" stroke-width="1.1" stroke-linecap="round" stroke-linejoin="round"></path>
                            <path d="M26.3554194,15.3270211 L25.1670236,12.4630519" id="Stroke-89" stroke="#23A4D2" stroke-width="1.1" stroke-linecap="round" stroke-linejoin="round"></path>
                            <path d="M13.9880782,27.7046931 L11.1264739,26.5153152" id="Stroke-91" stroke="#23A4D2" stroke-width="1.1" stroke-linecap="round" stroke-linejoin="round"></path>
                            <path d="M51.3274511,52.6973625 L55.0278583,56.4008278" id="Stroke-93" stroke="#23A4D2" stroke-width="1.1" stroke-linecap="round" stroke-linejoin="round"></path>
                            <path d="M56.283864,45.2801995 L59.1454682,46.4695774" id="Stroke-95" stroke="#23A4D2" stroke-width="1.1" stroke-linecap="round" stroke-linejoin="round"></path>
                            <path d="M43.9164129,57.6578715 L45.1048086,60.5218406" id="Stroke-97" stroke="#23A4D2" stroke-width="1.1" stroke-linecap="round" stroke-linejoin="round"></path>
                            <path d="M35.0586319,23.7655527 L35.0586319,50.1717224" id="Stroke-99" stroke="#23A4D2" stroke-width="1.1" stroke-linecap="round" stroke-linejoin="round"></path>
                            <path d="M48.0309446,37.1886889 L21.6465798,37.1886889" id="Stroke-101" stroke="#23A4D2" stroke-width="1.1" stroke-linecap="round" stroke-linejoin="round"></path>
                        </g>
                    </g>
                </g>
            </g>
        </g>
    </g>
</svg>