<?xml version="1.0" encoding="UTF-8" standalone="no"?>
<svg width="71px" height="72px" viewBox="0 0 71 72" version="1.1" xmlns="http://www.w3.org/2000/svg" xmlns:xlink="http://www.w3.org/1999/xlink">
    <!-- Generator: sketchtool 41.2 (35397) - http://www.bohemiancoding.com/sketch -->
    <title>D0170344-EF31-4F56-A2E8-849C56E854B4</title>
    <desc>Created with sketchtool.</desc>
    <defs></defs>
    <g id="Page-1" stroke="none" stroke-width="1" fill="none" fill-rule="evenodd">
        <g id="5.2-Iconography" transform="translate(-1103.000000, -300.000000)">
            <g id="Content" transform="translate(50.000000, 182.000000)">
                <g id="Icons" transform="translate(449.000000, 0.000000)">
                    <g id="Group-37-Copy" transform="translate(604.641694, 118.827763)">
                        <g id="Group-10">
                            <path d="M35.1791531,0 C15.7503664,0 0,15.763383 0,35.2082262 C0,54.6530694 15.7503664,70.4164524 35.1791531,70.4164524 C54.6079397,70.4164524 70.3583062,54.6530694 70.3583062,35.2082262 C70.3583062,15.763383 54.6079397,0 35.1791531,0 M35.1791531,1.10025707 C53.9714169,1.10025707 69.2589577,16.4015321 69.2589577,35.2082262 C69.2589577,54.0149203 53.9714169,69.3161954 35.1791531,69.3161954 C16.3868893,69.3161954 1.09934853,54.0149203 1.09934853,35.2082262 C1.09934853,16.4015321 16.3868893,1.10025707 35.1791531,1.10025707" id="Fill-120" fill="#23A4D2"></path>
                            <path d="M23.965798,32.1275064 L23.965798,23.7721542 C23.965798,21.8313008 25.9677117,20.0543856 27.9080619,20.0543856 C29.8484121,20.0543856 31.412785,21.275671 31.412785,22.9711671" id="Stroke-121" stroke="#23A4D2" stroke-width="1.1" stroke-linecap="round" stroke-linejoin="round"></path>
                            <path d="M53.8680782,26.4061697 L53.8680782,38.644329 C53.8680782,45.1171414 48.1470684,51.7120823 41.679601,51.7120823 L33.3212541,51.7120823 C20.0532166,51.7120823 16.490228,39.6136555 16.490228,34.9265604 L16.490228,32.1374087 C16.490228,29.8598766 18.4624593,27.5064267 21.2482085,27.5064267 L24.1856678,27.5064267" id="Stroke-122" stroke="#23A4D2" stroke-width="1.1" stroke-linecap="round" stroke-linejoin="round"></path>
                            <path d="M38.9283713,22.8155907 C38.9283713,21.4710766 40.7192101,19.8239918 42.6606596,19.8239918 C44.5999104,19.8239918 46.3929479,21.3808555 46.3929479,23.321709 L46.3929479,24.2052154" id="Stroke-123" stroke="#23A4D2" stroke-width="1.1" stroke-linecap="round" stroke-linejoin="round"></path>
                            <path d="M38.9169381,23.3254499 L38.9169381,22.4364422 C38.9169381,20.4955887 37.1195033,18.759383 35.1791531,18.759383 C33.2388029,18.759383 31.4413681,20.4955887 31.4413681,22.4364422 L31.4413681,22.885347" id="Stroke-124" stroke="#23A4D2" stroke-width="1.1" stroke-linecap="round" stroke-linejoin="round"></path>
                            <path d="M46.3810749,24.2407537 C46.3810749,22.6805892 48.1840065,21.2271496 50.1243567,21.2271496 C52.0647068,21.2271496 53.8676384,22.9490519 53.8676384,24.8910057 L53.8676384,29.4867794" id="Stroke-125" stroke="#23A4D2" stroke-width="1.1" stroke-linecap="round" stroke-linejoin="round"></path>
                        </g>
                    </g>
                </g>
            </g>
        </g>
    </g>
</svg>