<?xml version="1.0" encoding="UTF-8" standalone="no"?>
<svg width="72px" height="72px" viewBox="0 0 72 72" version="1.1" xmlns="http://www.w3.org/2000/svg" xmlns:xlink="http://www.w3.org/1999/xlink">
    <!-- Generator: sketchtool 41.2 (35397) - http://www.bohemiancoding.com/sketch -->
    <title>F64679FA-1A9E-4AAA-8524-9A605020C313</title>
    <desc>Created with sketchtool.</desc>
    <defs></defs>
    <g id="Page-1" stroke="none" stroke-width="1" fill="none" fill-rule="evenodd">
        <g id="5.2-Iconography" transform="translate(-801.000000, -419.000000)">
            <g id="Content" transform="translate(50.000000, 182.000000)">
                <g id="Icons" transform="translate(449.000000, 0.000000)">
                    <g id="Group-41-Copy" transform="translate(302.870521, 237.655527)">
                        <g id="Group-13">
                            <path d="M35.1791531,0 C15.7503664,0 0,15.763383 0,35.2082262 C0,54.6530694 15.7503664,70.4164524 35.1791531,70.4164524 C54.6079397,70.4164524 70.3583062,54.6530694 70.3583062,35.2082262 C70.3583062,15.763383 54.6079397,0 35.1791531,0 M35.1791531,1.10025707 C53.9714169,1.10025707 69.2589577,16.4015321 69.2589577,35.2082262 C69.2589577,54.0149203 53.9714169,69.3161954 35.1791531,69.3161954 C16.3868893,69.3161954 1.09934853,54.0149203 1.09934853,35.2082262 C1.09934853,16.4015321 16.3868893,1.10025707 35.1791531,1.10025707" id="Fill-194" fill="#23A4D2"></path>
                            <polyline id="Stroke-195" stroke="#23A4D2" stroke-width="1.1" stroke-linecap="round" stroke-linejoin="round" points="15.3908795 39.8293059 25.4697068 39.8293059 28.3060261 36.2512699 31.8525244 41.9153933 36.1070033 31.9712699 39.6535016 45.4824267 42.4909202 39.8293059 55.8469055 39.8293059"></polyline>
                            <path d="M51.9486156,35.8889553 C53.3085098,33.0150838 54.5474756,31.3690992 54.5474756,28.414909 C54.5474756,11.3796288 37.5262622,12.0892946 35.3979235,26.2859116 C33.270684,12.0892946 16.2494707,11.3796288 16.2494707,28.414909 C16.2494707,31.0995362 17.2410831,33.4199784 18.2491857,35.8889553" id="Stroke-196" stroke="#23A4D2" stroke-width="1.1" stroke-linecap="round" stroke-linejoin="round"></path>
                            <path d="M22.3969178,43.0494283 C27.9156474,50.4321532 35.3978135,55.3877111 35.3978135,55.3877111 C35.3978135,55.3877111 42.1159324,50.1779938 47.5192305,43.0494283" id="Stroke-197" stroke="#23A4D2" stroke-width="1.1" stroke-linecap="round" stroke-linejoin="round"></path>
                        </g>
                    </g>
                </g>
            </g>
        </g>
    </g>
</svg>