<?xml version="1.0" encoding="UTF-8" standalone="no"?>
<svg width="71px" height="71px" viewBox="0 0 71 71" version="1.1" xmlns="http://www.w3.org/2000/svg" xmlns:xlink="http://www.w3.org/1999/xlink">
    <!-- Generator: sketchtool 41.2 (35397) - http://www.bohemiancoding.com/sketch -->
    <title>232CD5FB-5993-4314-8E52-9B8AC76DB69E</title>
    <desc>Created with sketchtool.</desc>
    <defs></defs>
    <g id="Page-1" stroke="none" stroke-width="1" fill="none" fill-rule="evenodd" stroke-linecap="round" stroke-linejoin="round">
        <g id="5.2-Iconography" transform="translate(-499.000000, -182.000000)" stroke-width="1.1" stroke="#23A4D2">
            <g id="Content" transform="translate(50.000000, 182.000000)">
                <g id="Icons" transform="translate(449.000000, 0.000000)">
                    <g id="Group-27-Copy">
                        <g id="Group">
                            <path d="M69.6986971,35.2082262 C69.6986971,54.2888843 54.2440554,69.7562982 35.1791531,69.7562982 C16.1142508,69.7562982 0.659609121,54.2888843 0.659609121,35.2082262 C0.659609121,16.1275681 16.1142508,0.660154242 35.1791531,0.660154242 C54.2440554,0.660154242 69.6986971,16.1275681 69.6986971,35.2082262 L69.6986971,35.2082262 Z" id="Stroke-1"></path>
                            <path d="M32.5407166,53.9125964 L37.8175896,53.9125964" id="Stroke-3"></path>
                            <path d="M33.4201954,57.433419 L36.9381107,57.433419" id="Stroke-5"></path>
                            <path d="M34.9592834,13.6431877 L34.9592834,17.1640103" id="Stroke-7"></path>
                            <path d="M52.5063151,18.7867794 L48.4046458,22.8918386" id="Stroke-9"></path>
                            <path d="M57.1661238,33.6678663 L54.0879479,33.6678663" id="Stroke-11"></path>
                            <path d="M17.851991,18.7867794 L21.9536604,22.8918386" id="Stroke-13"></path>
                            <path d="M13.1921824,33.6678663 L16.2703583,33.6678663" id="Stroke-15"></path>
                            <path d="M48.5635016,34.4209923 C48.5635016,26.9205398 42.5808469,20.839419 35.0865879,20.839419 C27.5912296,20.839419 21.5283225,26.9205398 21.5283225,34.4209923 C21.5283225,40.6484473 25.7245358,45.8933728 31.4411482,47.495347 L31.4411482,50.8324267 L38.4769788,50.8324267 L38.4769788,47.495347 C44.1935912,45.8933728 48.5635016,40.6484473 48.5635016,34.4209923 L48.5635016,34.4209923 Z" id="Stroke-17"></path>
                        </g>
                    </g>
                </g>
            </g>
        </g>
    </g>
</svg>