<?xml version="1.0" encoding="UTF-8" standalone="no"?>
<svg width="72px" height="71px" viewBox="0 0 72 71" version="1.1" xmlns="http://www.w3.org/2000/svg" xmlns:xlink="http://www.w3.org/1999/xlink">
    <!-- Generator: sketchtool 41.2 (35397) - http://www.bohemiancoding.com/sketch -->
    <title>820B3863-9DF4-4C57-B07A-BF396247FF6D</title>
    <desc>Created with sketchtool.</desc>
    <defs></defs>
    <g id="Page-1" stroke="none" stroke-width="1" fill="none" fill-rule="evenodd">
        <g id="5.2-Iconography" transform="translate(-800.000000, -182.000000)">
            <g id="Content" transform="translate(50.000000, 182.000000)">
                <g id="Icons" transform="translate(449.000000, 0.000000)">
                    <g id="Group-29-Copy" transform="translate(301.771173, 0.000000)">
                        <g id="Group-3">
                            <path d="M35.1791531,0 C15.7503664,0 0,15.763383 0,35.2082262 C0,54.6530694 15.7503664,70.4164524 35.1791531,70.4164524 C54.6079397,70.4164524 70.3583062,54.6530694 70.3583062,35.2082262 C70.3583062,15.763383 54.6079397,0 35.1791531,0 M35.1791531,1.10025707 C53.9714169,1.10025707 69.2589577,16.4015321 69.2589577,35.2082262 C69.2589577,54.0149203 53.9714169,69.3161954 35.1791531,69.3161954 C16.3868893,69.3161954 1.09934853,54.0149203 1.09934853,35.2082262 C1.09934853,16.4015321 16.3868893,1.10025707 35.1791531,1.10025707" id="Fill-39" fill="#23A4D2"></path>
                            <polyline id="Stroke-41" stroke="#23A4D2" stroke-width="1.1" stroke-linecap="round" stroke-linejoin="round" points="24.9156352 23.3143373 13.0316775 35.2081162 24.9156352 47.1018951"></polyline>
                            <polyline id="Stroke-43" stroke="#23A4D2" stroke-width="1.1" stroke-linecap="round" stroke-linejoin="round" points="45.442671 23.3143373 57.3266287 35.2081162 45.442671 47.1018951"></polyline>
                            <path d="M38.7396132,21.9096391 L31.6191327,48.5072535" id="Stroke-45" stroke="#23A4D2" stroke-width="1.1" stroke-linecap="round" stroke-linejoin="round"></path>
                        </g>
                    </g>
                </g>
            </g>
        </g>
    </g>
</svg>