<?xml version="1.0" encoding="UTF-8" standalone="no"?>
<svg width="72px" height="71px" viewBox="0 0 72 71" version="1.1" xmlns="http://www.w3.org/2000/svg" xmlns:xlink="http://www.w3.org/1999/xlink">
    <!-- Generator: sketchtool 41.2 (35397) - http://www.bohemiancoding.com/sketch -->
    <title>762CD0E1-77FF-4915-B6C9-31303607EF32</title>
    <desc>Created with sketchtool.</desc>
    <defs></defs>
    <g id="Page-1" stroke="none" stroke-width="1" fill="none" fill-rule="evenodd">
        <g id="5.2-Iconography" transform="translate(-649.000000, -182.000000)">
            <g id="Content" transform="translate(50.000000, 182.000000)">
                <g id="Icons" transform="translate(449.000000, 0.000000)">
                    <g id="Group-28-Copy" transform="translate(150.885586, 0.000000)">
                        <g id="Group-2">
                            <path d="M35.1791531,0 C15.7503664,0 0,15.763383 0,35.2082262 C0,54.6530694 15.7503664,70.4164524 35.1791531,70.4164524 C54.6079397,70.4164524 70.3583062,54.6530694 70.3583062,35.2082262 C70.3583062,15.763383 54.6079397,0 35.1791531,0 M35.1791531,1.10025707 C53.9714169,1.10025707 69.2589577,16.4015321 69.2589577,35.2082262 C69.2589577,54.0149203 53.9714169,69.3161954 35.1791531,69.3161954 C16.3868893,69.3161954 1.09934853,54.0149203 1.09934853,35.2082262 C1.09934853,16.4015321 16.3868893,1.10025707 35.1791531,1.10025707" id="Fill-19" fill="#23A4D2"></path>
                            <path d="M25.0651466,50.3917738 L26.5987378,50.3917738 C27.9520358,50.3917738 28.8029316,49.0263548 28.8029316,47.6719383 L28.8029316,47.6477326 C28.8029316,46.2933162 27.8157166,45.3426941 26.4635179,45.3426941" id="Stroke-21" stroke="#23A4D2" stroke-width="1.1" stroke-linecap="round" stroke-linejoin="round"></path>
                            <path d="M24.983465,50.264364 C18.9733265,50.264364 19.1338314,46.4717779 14.7001588,44.7520761 C11.0470236,43.334945 8.13484935,42.0003332 8.13484935,38.0889193 L8.13484935,37.7929501 C8.13484935,34.1169913 11.0283347,31.0516751 14.688066,30.7359013 L28.0077728,29.5861326 C30.5846458,29.364981 32.7602565,31.398256 32.7602565,33.9871609 L32.7602565,41.4744103 C32.7602565,43.5164874 31.2651425,45.5508627 29.225851,45.5508627 L26.384035,45.5508627" id="Stroke-23" stroke="#23A4D2" stroke-width="1.1" stroke-linecap="round" stroke-linejoin="round"></path>
                            <path d="M27.2638436,39.3892031 L26.5987378,39.3892031 C24.9332248,39.3892031 23.5260586,40.5037635 23.5260586,42.170653 L23.5260586,42.1618509 C23.5260586,43.8287404 24.8815554,45.3041851 26.5470684,45.3041851" id="Stroke-25" stroke="#23A4D2" stroke-width="1.1" stroke-linecap="round" stroke-linejoin="round"></path>
                            <path d="M45.2931596,50.3917738 L43.9607492,50.3917738 C42.6085505,50.3917738 41.1156352,49.0263548 41.1156352,47.6719383 L41.1156352,47.6477326 C41.1156352,46.2933162 42.3227199,45.3426941 43.6749186,45.3426941" id="Stroke-27" stroke="#23A4D2" stroke-width="1.1" stroke-linecap="round" stroke-linejoin="round"></path>
                            <path d="M45.4757614,50.264364 C51.4858998,50.264364 51.2748249,46.4717779 55.7084976,44.7520761 C59.3616327,43.334945 62.223237,42.0003332 62.223237,38.0889193 L62.223237,37.7929501 C62.223237,34.1169913 59.4308917,31.0516751 55.7711604,30.7359013 L42.4008836,29.5861326 C39.8240106,29.364981 37.5978298,31.398256 37.5978298,33.9871609 L37.5978298,41.4744103 C37.5978298,43.5164874 39.2952239,45.5508627 41.3345155,45.5508627 L43.9740513,45.5508627" id="Stroke-29" stroke="#23A4D2" stroke-width="1.1" stroke-linecap="round" stroke-linejoin="round"></path>
                            <path d="M43.0944625,39.3892031 L43.9607492,39.3892031 C45.6273616,39.3892031 46.8322476,40.5037635 46.8322476,42.170653 L46.8322476,42.1618509 C46.8322476,43.8287404 45.4767508,45.3041851 43.8112378,45.3041851" id="Stroke-31" stroke="#23A4D2" stroke-width="1.1" stroke-linecap="round" stroke-linejoin="round"></path>
                            <path d="M34.9592834,25.0858612 L34.9592834,11.8827763" id="Stroke-33" stroke="#23A4D2" stroke-width="1.1" stroke-linecap="round" stroke-linejoin="round"></path>
                            <path d="M39.4455049,24.0056288 L43.2492508,18.5318499" id="Stroke-35" stroke="#23A4D2" stroke-width="1.1" stroke-linecap="round" stroke-linejoin="round"></path>
                            <path d="M31.1147516,24.0056288 L27.3110057,18.5318499" id="Stroke-37" stroke="#23A4D2" stroke-width="1.1" stroke-linecap="round" stroke-linejoin="round"></path>
                        </g>
                    </g>
                </g>
            </g>
        </g>
    </g>
</svg>