<?xml version="1.0" encoding="UTF-8" standalone="no"?>
<svg width="71px" height="72px" viewBox="0 0 71 72" version="1.1" xmlns="http://www.w3.org/2000/svg" xmlns:xlink="http://www.w3.org/1999/xlink">
    <!-- Generator: sketchtool 41.2 (35397) - http://www.bohemiancoding.com/sketch -->
    <title>CAB998DE-FAA9-4C90-8196-726D87F00378</title>
    <desc>Created with sketchtool.</desc>
    <defs></defs>
    <g id="Page-1" stroke="none" stroke-width="1" fill="none" fill-rule="evenodd">
        <g id="5.2-Iconography" transform="translate(-650.000000, -419.000000)">
            <g id="Content" transform="translate(50.000000, 182.000000)">
                <g id="Icons" transform="translate(449.000000, 0.000000)">
                    <g id="Group-40-Copy" transform="translate(151.160423, 237.655527)">
                        <g id="Group-12">
                            <path d="M35.1301221,0.0980329049 C15.7277199,0.0980329049 0.000439739414,15.8394108 0.000439739414,35.2567476 C0.000439739414,54.6751846 15.7277199,70.4165625 35.1301221,70.4165625 C54.5325244,70.4165625 70.2598046,54.6751846 70.2598046,35.2567476 C70.2598046,15.8394108 54.5325244,0.0980329049 35.1301221,0.0980329049 M35.1301221,1.19828997 C53.8949023,1.19828997 69.160456,16.4775599 69.160456,35.2567476 C69.160456,54.0370355 53.8949023,69.3163054 35.1301221,69.3163054 C16.365342,69.3163054 1.09978827,54.0370355 1.09978827,35.2567476 C1.09978827,16.4775599 16.365342,1.19828997 35.1301221,1.19828997" id="Fill-164" fill="#23A4D2"></path>
                            <path d="M27.6004642,48.10731 L18.6341775,39.1336134 C14.8249349,35.3212226 14.7930537,27.6491301 18.6033958,23.8367393 L23.2019707,19.2332638 C25.5633713,16.8699116 29.517728,16.4287085 32.7772964,17.1570787 C38.8896743,18.5202972 48.7189495,22.1632483 48.7189495,22.1632483 C50.729658,22.8333049 51.4541287,23.8048319 51.4541287,24.9006879 C51.4541287,25.9954437 50.9066531,27.6370272 48.1725733,27.0901995 L40.0626792,25.543238 L53.6418322,39.1336134 C54.7840554,40.2767805 54.7840554,42.3694694 53.6418322,43.5137368 C52.4996091,44.6569039 50.4086482,44.6569039 49.2664251,43.5137368 L41.0608876,35.301418" id="Stroke-165" stroke="#23A4D2" stroke-width="1.1" stroke-linecap="round" stroke-linejoin="round"></path>
                            <path d="M43.7960668,38.0389676 L52.0005049,46.2501861 C53.1438274,47.3944535 53.1438274,49.4871424 52.0005049,50.6303095 C50.8582818,51.7734766 48.7684202,51.7745769 47.6250977,50.6303095 L39.4206596,42.419091" id="Stroke-166" stroke="#23A4D2" stroke-width="1.1" stroke-linecap="round" stroke-linejoin="round"></path>
                            <path d="M36.6851507,39.6812113 L44.8895888,47.8924298 C46.0329112,49.0366972 46.0329112,51.1293861 44.8895888,52.2725532 C43.7473656,53.4157203 41.6564047,53.4157203 40.5141816,52.2725532 L32.5472028,44.2989902" id="Stroke-167" stroke="#23A4D2" stroke-width="1.1" stroke-linecap="round" stroke-linejoin="round"></path>
                            <path d="M30.4781189,42.2281964 L36.6850407,48.4402478 C37.8272638,49.5834149 37.8272638,51.6761039 36.6850407,52.8203712 C35.5428176,53.9635383 33.4518567,53.9635383 32.3096336,52.8203712 L24.1513681,44.6553635" id="Stroke-168" stroke="#23A4D2" stroke-width="1.1" stroke-linecap="round" stroke-linejoin="round"></path>
                        </g>
                    </g>
                </g>
            </g>
        </g>
    </g>
</svg>