<?xml version="1.0" encoding="UTF-8" standalone="no"?>
<svg width="72px" height="72px" viewBox="0 0 72 72" version="1.1" xmlns="http://www.w3.org/2000/svg" xmlns:xlink="http://www.w3.org/1999/xlink">
    <!-- Generator: sketchtool 41.2 (35397) - http://www.bohemiancoding.com/sketch -->
    <title>AEF1DD6D-0227-407A-8F23-243998F37F4F</title>
    <desc>Created with sketchtool.</desc>
    <defs></defs>
    <g id="Page-1" stroke="none" stroke-width="1" fill="none" fill-rule="evenodd">
        <g id="5.2-Iconography" transform="translate(-801.000000, -300.000000)">
            <g id="Content" transform="translate(50.000000, 182.000000)">
                <g id="Icons" transform="translate(449.000000, 0.000000)">
                    <g id="Group-34-Copy" transform="translate(302.870521, 118.827763)">
                        <g id="Group-8">
                            <path d="M35.1791531,0 C15.7503664,0 0,15.763383 0,35.2082262 C0,54.6530694 15.7503664,70.4164524 35.1791531,70.4164524 C54.6079397,70.4164524 70.3583062,54.6530694 70.3583062,35.2082262 C70.3583062,15.763383 54.6079397,0 35.1791531,0 M35.1791531,1.10025707 C53.9714169,1.10025707 69.2589577,16.4015321 69.2589577,35.2082262 C69.2589577,54.0149203 53.9714169,69.3161954 35.1791531,69.3161954 C16.3868893,69.3161954 1.09934853,54.0149203 1.09934853,35.2082262 C1.09934853,16.4015321 16.3868893,1.10025707 35.1791531,1.10025707" id="Fill-153" fill="#23A4D2"></path>
                            <path d="M37.8175896,23.9856041 L42.2149837,23.9856041" id="Stroke-154" stroke="#23A4D2" stroke-width="1.1" stroke-linecap="round" stroke-linejoin="round"></path>
                            <path d="M31.0016287,16.7239075 L31.0016287,12.762982" id="Stroke-155" stroke="#23A4D2" stroke-width="1.1" stroke-linecap="round" stroke-linejoin="round"></path>
                            <path d="M23.7459283,23.9856041 L19.7882736,23.9856041" id="Stroke-156" stroke="#23A4D2" stroke-width="1.1" stroke-linecap="round" stroke-linejoin="round"></path>
                            <path d="M35.8996661,18.9672216 L38.9393648,15.9250108" id="Stroke-157" stroke="#23A4D2" stroke-width="1.1" stroke-linecap="round" stroke-linejoin="round"></path>
                            <path d="M25.9678217,18.9671116 L22.928123,15.9249008" id="Stroke-158" stroke="#23A4D2" stroke-width="1.1" stroke-linecap="round" stroke-linejoin="round"></path>
                            <path d="M27.9234528,42.6899743 L27.9234528,23.8007609 C27.9234528,22.3209152 29.3031352,20.967599 30.781759,20.967599 C32.2592834,20.967599 33.6400651,22.6597943 33.6400651,24.1396401 L33.6400651,38.7290488" id="Stroke-159" stroke="#23A4D2" stroke-width="1.1" stroke-linecap="round" stroke-linejoin="round"></path>
                            <path d="M50.7899023,40.929563 L50.7899023,47.8776864 C50.7899023,52.8090386 46.4749593,57.8735219 41.5476792,57.8735219 L35.1791531,57.8735219 C25.069544,57.8735219 22.6465798,48.6159589 22.6465798,45.0445244 L22.6465798,42.9210283 C22.6465798,41.1859229 23.8580619,39.3892031 25.9809039,39.3892031 L27.7035831,39.3892031" id="Stroke-160" stroke="#23A4D2" stroke-width="1.1" stroke-linecap="round" stroke-linejoin="round"></path>
                            <path d="M39.3566775,38.7290488 L39.3566775,36.8861183 C39.3566775,35.4062725 41.0441775,33.8681131 42.5228013,33.8681131 C44.0003257,33.8681131 45.0732899,35.0673933 45.0732899,36.5472391 L45.0732899,39.6092545" id="Stroke-161" stroke="#23A4D2" stroke-width="1.1" stroke-linecap="round" stroke-linejoin="round"></path>
                            <path d="M39.3566775,36.9686375 L39.3566775,35.1312082 L39.3566775,35.0993008 C39.3566775,33.6205553 37.9758958,32.2980463 36.4983713,32.2980463 C35.0197476,32.2980463 33.6400651,33.6205553 33.6400651,35.0993008 L33.6400651,36.9686375" id="Stroke-162" stroke="#23A4D2" stroke-width="1.1" stroke-linecap="round" stroke-linejoin="round"></path>
                            <path d="M45.0732899,40.4894602 L45.0732899,39.7181799 C45.0732899,38.2394344 46.4529723,36.8861183 47.9315961,36.8861183 C49.4091205,36.8861183 50.7899023,38.2394344 50.7899023,39.7181799 L50.7899023,40.929563" id="Stroke-163" stroke="#23A4D2" stroke-width="1.1" stroke-linecap="round" stroke-linejoin="round"></path>
                        </g>
                    </g>
                </g>
            </g>
        </g>
    </g>
</svg>