<?xml version="1.0" encoding="UTF-8" standalone="no"?>
<svg width="71px" height="71px" viewBox="0 0 71 71" version="1.1" xmlns="http://www.w3.org/2000/svg" xmlns:xlink="http://www.w3.org/1999/xlink">
    <!-- Generator: sketchtool 41.2 (35397) - http://www.bohemiancoding.com/sketch -->
    <title>273C614C-BC8E-4B3B-8746-7BFDC8DD0093</title>
    <desc>Created with sketchtool.</desc>
    <defs></defs>
    <g id="Page-1" stroke="none" stroke-width="1" fill="none" fill-rule="evenodd">
        <g id="5.2-Iconography" transform="translate(-1103.000000, -182.000000)">
            <g id="Content" transform="translate(50.000000, 182.000000)">
                <g id="Icons" transform="translate(449.000000, 0.000000)">
                    <g id="Group-31-Copy" transform="translate(604.542345, 0.000000)">
                        <g id="Group-5">
                            <path d="M35.1949511,0 C15.7661645,0 0.0157980456,15.763383 0.0157980456,35.2082262 C0.0157980456,54.6530694 15.7661645,70.4164524 35.1949511,70.4164524 C54.6237378,70.4164524 70.3741042,54.6530694 70.3741042,35.2082262 C70.3741042,15.763383 54.6237378,0 35.1949511,0 M35.1949511,1.10025707 C53.987215,1.10025707 69.2747557,16.4015321 69.2747557,35.2082262 C69.2747557,54.0149203 53.987215,69.3161954 35.1949511,69.3161954 C16.4026873,69.3161954 1.11514658,54.0149203 1.11514658,35.2082262 C1.11514658,16.4015321 16.4026873,1.10025707 35.1949511,1.10025707" id="Fill-71" fill="#23A4D2"></path>
                            <polyline id="Stroke-109" stroke="#23A4D2" stroke-width="1.1" stroke-linecap="round" stroke-linejoin="round" points="22.3061889 50.1717224 22.3061889 33.6678663 35.4983713 33.6678663 35.4983713 48.8514139"></polyline>
                            <polygon id="Stroke-111" stroke="#23A4D2" stroke-width="1.1" stroke-linecap="round" stroke-linejoin="round" points="26.7035831 33.6678663 31.1009772 33.6678663 31.1009772 30.1470437 26.7035831 30.1470437"></polygon>
                            <polygon id="Stroke-113" stroke="#23A4D2" stroke-width="1.1" stroke-linecap="round" stroke-linejoin="round" points="24.504886 30.1470437 33.2996743 30.1470437 33.2996743 27.0663239 24.504886 27.0663239"></polygon>
                            <polygon id="Stroke-114" stroke="#23A4D2" stroke-width="1.1" stroke-linecap="round" stroke-linejoin="round" points="20.1074919 27.0663239 38.1368078 27.0663239 38.1368078 23.5455013 20.1074919 23.5455013"></polygon>
                            <polygon id="Stroke-115" stroke="#23A4D2" stroke-width="1.1" stroke-linecap="round" stroke-linejoin="round" points="26.7035831 23.5455013 31.1009772 23.5455013 31.1009772 19.144473 26.7035831 19.144473"></polygon>
                            <path d="M28.9022801,18.0442159 L28.9022801,10.122365" id="Stroke-116" stroke="#23A4D2" stroke-width="1.1" stroke-linecap="round" stroke-linejoin="round"></path>
                            <path d="M13.5892345,50.8062406 C14.8622801,51.0758036 15.9462378,51.3035568 17.3270195,51.3035568 C25.8040961,51.3035568 32.4199756,45.7901686 32.4199756,40.912729 L32.4199756,61.173963" id="Stroke-117" stroke="#23A4D2" stroke-width="1.1" stroke-linecap="round" stroke-linejoin="round"></path>
                            <path d="M41.6547231,59.8539846 L41.6547231,40.9130591 C41.6547231,44.3766684 38.1884772,47.9426015 33.1424674,49.8581491" id="Stroke-118" stroke="#23A4D2" stroke-width="1.1" stroke-linecap="round" stroke-linejoin="round"></path>
                            <path d="M50.4495114,55.4529563 L50.4495114,40.9130591 C50.4495114,44.4107763 46.9151059,48.0922365 41.7888436,49.998982" id="Stroke-119" stroke="#23A4D2" stroke-width="1.1" stroke-linecap="round" stroke-linejoin="round"></path>
                        </g>
                    </g>
                </g>
            </g>
        </g>
    </g>
</svg>