<?xml version="1.0" encoding="UTF-8" standalone="no"?>
<svg width="72px" height="71px" viewBox="0 0 72 71" version="1.1" xmlns="http://www.w3.org/2000/svg" xmlns:xlink="http://www.w3.org/1999/xlink">
    <!-- Generator: sketchtool 41.2 (35397) - http://www.bohemiancoding.com/sketch -->
    <title>8B807AF9-C6F2-4A09-BCAE-0E411FC57642</title>
    <desc>Created with sketchtool.</desc>
    <defs></defs>
    <g id="Page-1" stroke="none" stroke-width="1" fill="none" fill-rule="evenodd">
        <g id="5.2-Iconography" transform="translate(-951.000000, -182.000000)">
            <g id="Content" transform="translate(50.000000, 182.000000)">
                <g id="Icons" transform="translate(449.000000, 0.000000)">
                    <g id="Group-30-Copy" transform="translate(452.656759, 0.000000)">
                        <g id="Group-4">
                            <path d="M35.1791531,0 C15.7503664,0 0,15.763383 0,35.2082262 C0,54.6530694 15.7503664,70.4164524 35.1791531,70.4164524 C54.6079397,70.4164524 70.3583062,54.6530694 70.3583062,35.2082262 C70.3583062,15.763383 54.6079397,0 35.1791531,0 M35.1791531,1.10025707 C53.9714169,1.10025707 69.2589577,16.4015321 69.2589577,35.2082262 C69.2589577,54.0149203 53.9714169,69.3161954 35.1791531,69.3161954 C16.3868893,69.3161954 1.09934853,54.0149203 1.09934853,35.2082262 C1.09934853,16.4015321 16.3868893,1.10025707 35.1791531,1.10025707" id="Fill-47" fill="#23A4D2"></path>
                            <path d="M20.8919096,52.7986961 C20.8919096,54.3027476 19.6738314,55.5218324 18.171022,55.5218324 C16.6682125,55.5218324 15.449035,54.3027476 15.449035,52.7986961 C15.449035,51.2946447 16.6682125,50.0755599 18.171022,50.0755599 C19.6738314,50.0755599 20.8919096,51.2946447 20.8919096,52.7986961 L20.8919096,52.7986961 Z" id="Stroke-49" stroke="#23A4D2" stroke-width="1.1" stroke-linecap="round" stroke-linejoin="round"></path>
                            <path d="M41.3021946,52.7986961 C41.3021946,54.3027476 40.0841164,55.5218324 38.581307,55.5218324 C37.0773982,55.5218324 35.85932,54.3027476 35.85932,52.7986961 C35.85932,51.2946447 37.0773982,50.0755599 38.581307,50.0755599 C40.0841164,50.0755599 41.3021946,51.2946447 41.3021946,52.7986961 L41.3021946,52.7986961 Z" id="Stroke-51" stroke="#23A4D2" stroke-width="1.1" stroke-linecap="round" stroke-linejoin="round"></path>
                            <path d="M54.9091612,39.8615434 C54.9091612,41.3655949 53.6910831,42.5846797 52.1882736,42.5846797 C50.6854642,42.5846797 49.4662866,41.3655949 49.4662866,39.8615434 C49.4662866,38.357492 50.6854642,37.1384072 52.1882736,37.1384072 C53.6910831,37.1384072 54.9091612,38.357492 54.9091612,39.8615434 L54.9091612,39.8615434 Z" id="Stroke-53" stroke="#23A4D2" stroke-width="1.1" stroke-linecap="round" stroke-linejoin="round"></path>
                            <path d="M54.9091612,18.7534416 C54.9091612,20.2574931 53.6910831,21.4765779 52.1882736,21.4765779 C50.6854642,21.4765779 49.4662866,20.2574931 49.4662866,18.7534416 C49.4662866,17.2493902 50.6854642,16.0303054 52.1882736,16.0303054 C53.6910831,16.0303054 54.9091612,17.2493902 54.9091612,18.7534416 L54.9091612,18.7534416 Z" id="Stroke-55" stroke="#23A4D2" stroke-width="1.1" stroke-linecap="round" stroke-linejoin="round"></path>
                            <path d="M20.8919096,24.8816535 C20.8919096,26.3857049 19.6738314,27.6047897 18.171022,27.6047897 C16.6682125,27.6047897 15.449035,26.3857049 15.449035,24.8816535 C15.449035,23.3776021 16.6682125,22.1585172 18.171022,22.1585172 C19.6738314,22.1585172 20.8919096,23.3776021 20.8919096,24.8816535 L20.8919096,24.8816535 Z" id="Stroke-57" stroke="#23A4D2" stroke-width="1.1" stroke-linecap="round" stroke-linejoin="round"></path>
                            <path d="M44.7039088,33.0524925 C44.7039088,36.8131712 41.6587134,39.8619835 37.9000407,39.8619835 C34.1424674,39.8619835 31.097272,36.8131712 31.097272,33.0524925 C31.097272,29.2918139 34.1424674,26.2430015 37.9000407,26.2430015 C41.6587134,26.2430015 44.7039088,29.2918139 44.7039088,33.0524925 L44.7039088,33.0524925 Z" id="Stroke-59" stroke="#23A4D2" stroke-width="1.1" stroke-linecap="round" stroke-linejoin="round"></path>
                            <path d="M38.4771987,39.6092545 L38.4771987,50.1717224" id="Stroke-61" stroke="#23A4D2" stroke-width="1.1" stroke-linecap="round" stroke-linejoin="round"></path>
                            <path d="M20.0946621,50.8730262 L33.1032533,37.8536843" id="Stroke-63" stroke="#23A4D2" stroke-width="1.1" stroke-linecap="round" stroke-linejoin="round"></path>
                            <path d="M44.0408917,35.9781861 L49.7333184,38.6914201" id="Stroke-65" stroke="#23A4D2" stroke-width="1.1" stroke-linecap="round" stroke-linejoin="round"></path>
                            <path d="M50.2702402,20.67251 L42.7067223,28.2422787" id="Stroke-67" stroke="#23A4D2" stroke-width="1.1" stroke-linecap="round" stroke-linejoin="round"></path>
                            <path d="M20.6846824,25.9228267 L31.6122068,30.4481841" id="Stroke-69" stroke="#23A4D2" stroke-width="1.1" stroke-linecap="round" stroke-linejoin="round"></path>
                        </g>
                    </g>
                </g>
            </g>
        </g>
    </g>
</svg>