<?xml version="1.0" encoding="UTF-8" standalone="no"?>
<svg width="71px" height="72px" viewBox="0 0 71 72" version="1.1" xmlns="http://www.w3.org/2000/svg" xmlns:xlink="http://www.w3.org/1999/xlink">
    <!-- Generator: sketchtool 41.2 (35397) - http://www.bohemiancoding.com/sketch -->
    <title>96606A40-3550-4D0D-9CA0-37CF0C93D28A</title>
    <desc>Created with sketchtool.</desc>
    <defs></defs>
    <g id="Page-1" stroke="none" stroke-width="1" fill="none" fill-rule="evenodd">
        <g id="5.2-Iconography" transform="translate(-952.000000, -419.000000)">
            <g id="Content" transform="translate(50.000000, 182.000000)">
                <g id="Icons" transform="translate(449.000000, 0.000000)">
                    <g id="Group-42-Copy" transform="translate(453.481270, 237.655527)">
                        <g id="Group-14">
                            <path d="M35.1791531,0 C15.7503664,0 0,15.763383 0,35.2082262 C0,54.6530694 15.7503664,70.4164524 35.1791531,70.4164524 C54.6079397,70.4164524 70.3583062,54.6530694 70.3583062,35.2082262 C70.3583062,15.763383 54.6079397,0 35.1791531,0 M35.1791531,1.10025707 C53.9714169,1.10025707 69.2589577,16.4015321 69.2589577,35.2082262 C69.2589577,54.0149203 53.9714169,69.3161954 35.1791531,69.3161954 C16.3868893,69.3161954 1.09934853,54.0149203 1.09934853,35.2082262 C1.09934853,16.4015321 16.3868893,1.10025707 35.1791531,1.10025707" id="Fill-169" fill="#23A4D2"></path>
                            <path d="M55.1042956,28.1101378 C55.1042956,35.5577779 49.0732695,41.5959887 41.6295806,41.5959887 C34.1880904,41.5959887 28.1537663,35.5577779 28.1537663,28.1101378 C28.1537663,20.6624977 34.1880904,14.6242869 41.6295806,14.6242869 C49.0732695,14.6242869 55.1042956,20.6624977 55.1042956,28.1101378 L55.1042956,28.1101378 Z" id="Stroke-170" stroke="#23A4D2" stroke-width="1.1" stroke-linecap="round" stroke-linejoin="round"></path>
                            <path d="M41.5553746,33.8879177 L41.5553746,35.2082262" id="Stroke-171" stroke="#23A4D2" stroke-width="1.1" stroke-linecap="round" stroke-linejoin="round"></path>
                            <path d="M41.5553746,21.1249357 L41.5553746,22.4452442" id="Stroke-172" stroke="#23A4D2" stroke-width="1.1" stroke-linecap="round" stroke-linejoin="round"></path>
                            <path d="M38.792272,30.9493512 C38.792272,32.5172175 40.0620195,33.7891147 41.6296906,33.7891147 C43.1962622,33.7891147 44.4660098,32.5172175 44.4660098,30.9493512 C44.4660098,29.3814848 43.1962622,28.1095877 41.6296906,28.1095877 C40.0620195,28.1095877 38.792272,26.8387907 38.792272,25.2709244 C38.792272,23.7030581 40.0620195,22.4311609 41.6296906,22.4311609 C43.1962622,22.4311609 44.4660098,23.7030581 44.4660098,25.2709244" id="Stroke-173" stroke="#23A4D2" stroke-width="1.1" stroke-linecap="round" stroke-linejoin="round"></path>
                            <path d="M27.4837134,47.9712082 L27.4837134,49.2915167" id="Stroke-174" stroke="#23A4D2" stroke-width="1.1" stroke-linecap="round" stroke-linejoin="round"></path>
                            <path d="M27.4837134,35.2082262 L27.4837134,36.5285347" id="Stroke-175" stroke="#23A4D2" stroke-width="1.1" stroke-linecap="round" stroke-linejoin="round"></path>
                            <path d="M24.6078176,45.145528 C24.6078176,46.7133943 25.8775651,47.9852915 27.4452362,47.9852915 C29.0118078,47.9852915 30.2815554,46.7133943 30.2815554,45.145528 C30.2815554,43.5776617 29.0118078,42.3057645 27.4452362,42.3057645 C25.8775651,42.3057645 24.6078176,41.0349676 24.6078176,39.4671013 C24.6078176,37.899235 25.8775651,36.6273378 27.4452362,36.6273378 C29.0118078,36.6273378 30.2815554,37.899235 30.2815554,39.4671013" id="Stroke-176" stroke="#23A4D2" stroke-width="1.1" stroke-linecap="round" stroke-linejoin="round"></path>
                            <path d="M28.191364,28.8574324 C27.9429112,28.8453296 27.6966572,28.8200237 27.4449064,28.8200237 C20.0034161,28.8200237 13.969092,34.8593347 13.969092,42.3058746 C13.969092,49.7546149 20.0034161,55.7928257 27.4449064,55.7928257 C34.8885953,55.7928257 40.9196213,49.7546149 40.9196213,42.3058746 C40.9196213,42.0539157 40.896535,41.8074581 40.8822435,41.5588" id="Stroke-177" stroke="#23A4D2" stroke-width="1.1" stroke-linecap="round" stroke-linejoin="round"></path>
                        </g>
                    </g>
                </g>
            </g>
        </g>
    </g>
</svg>