<?xml version="1.0" encoding="UTF-8" standalone="no"?>
<svg width="71px" height="72px" viewBox="0 0 71 72" version="1.1" xmlns="http://www.w3.org/2000/svg" xmlns:xlink="http://www.w3.org/1999/xlink">
    <!-- Generator: sketchtool 41.2 (35397) - http://www.bohemiancoding.com/sketch -->
    <title>4628BF7D-E844-4056-90B6-A710A4E780B8</title>
    <desc>Created with sketchtool.</desc>
    <defs></defs>
    <g id="Page-1" stroke="none" stroke-width="1" fill="none" fill-rule="evenodd">
        <g id="5.2-Iconography" transform="translate(-499.000000, -419.000000)">
            <g id="Content" transform="translate(50.000000, 182.000000)">
                <g id="Icons" transform="translate(449.000000, 0.000000)">
                    <g id="Group-39-Copy" transform="translate(0.000000, 237.655527)">
                        <g id="Group-11">
                            <path d="M35.1791531,0 C15.7503664,0 0,15.763383 0,35.2082262 C0,54.6530694 15.7503664,70.4164524 35.1791531,70.4164524 C54.6079397,70.4164524 70.3583062,54.6530694 70.3583062,35.2082262 C70.3583062,15.763383 54.6079397,0 35.1791531,0 M35.1791531,1.10025707 C53.9714169,1.10025707 69.2589577,16.4015321 69.2589577,35.2082262 C69.2589577,54.0149203 53.9714169,69.3161954 35.1791531,69.3161954 C16.3868893,69.3161954 1.09934853,54.0149203 1.09934853,35.2082262 C1.09934853,16.4015321 16.3868893,1.10025707 35.1791531,1.10025707" id="Fill-140" fill="#23A4D2"></path>
                            <polygon id="Stroke-141" stroke="#23A4D2" stroke-width="1.1" stroke-linecap="round" stroke-linejoin="round" points="16.1873575 41.5897172 9.08226792 37.6287918 16.1873575 33.6678663 23.0857695 33.6678663 23.0857695 41.5897172"></polygon>
                            <path d="M22.8664495,37.6287918 L18.029316,37.6287918" id="Stroke-142" stroke="#23A4D2" stroke-width="1.1" stroke-linecap="round" stroke-linejoin="round"></path>
                            <polyline id="Stroke-143" stroke="#23A4D2" stroke-width="1.1" stroke-linecap="round" stroke-linejoin="round" points="16.1873575 33.6443208 15.864149 35.2605985 18.125509 37.522727 15.864149 39.7848555 16.1873575 41.4011332"></polyline>
                            <path d="M12.5325733,35.648329 L12.5325733,39.6092545" id="Stroke-144" stroke="#23A4D2" stroke-width="1.1" stroke-linecap="round" stroke-linejoin="round"></path>
                            <path d="M49.2508143,40.7095116 L47.0521173,40.7095116" id="Stroke-145" stroke="#23A4D2" stroke-width="1.1" stroke-linecap="round" stroke-linejoin="round"></path>
                            <path d="M23.0863192,41.3696658 L23.0863192,31.6753008 C23.0863192,26.4655835 27.3979642,21.3449871 32.6033795,21.3449871 L39.3313925,21.3449871 C50.0115635,21.3449871 52.9885993,30.8952185 52.9885993,34.668 L52.9885993,35.648329" id="Stroke-146" stroke="#23A4D2" stroke-width="1.1" stroke-linecap="round" stroke-linejoin="round"></path>
                            <path d="M61.3436482,33.0883609 C59.1449511,33.0861604 57.3991857,31.4676823 57.400285,29.2671681 L55.6270358,29.2671681 L55.6270358,44.6707671 L61.3436482,44.6707671 L61.3436482,33.0883609 L61.3436482,33.0883609 Z" id="Stroke-147" stroke="#23A4D2" stroke-width="1.1" stroke-linecap="round" stroke-linejoin="round"></path>
                            <polygon id="Stroke-148" stroke="#23A4D2" stroke-width="1.1" stroke-linecap="round" stroke-linejoin="round" points="46.8322476 40.3255219 46.8322476 36.2501697 55.6270358 36.3205861 55.6270358 40.1989923"></polygon>
                            <path d="M46.8322476,34.3280206 L46.8322476,43.6460977 C46.8322476,45.2084627 45.2359935,46.6387969 43.6738192,46.6387969 C42.1127443,46.6387969 40.8451954,45.7002776 40.8451954,44.3359589" id="Stroke-149" stroke="#23A4D2" stroke-width="1.1" stroke-linecap="round" stroke-linejoin="round"></path>
                            <path d="M34.8146091,44.5524895 C34.8146091,45.6351424 33.3711645,46.891636 31.8089902,46.891636 C30.246816,46.891636 28.8033713,45.5713275 28.8033713,44.0078622 L28.8033713,43.5699599" id="Stroke-150" stroke="#23A4D2" stroke-width="1.1" stroke-linecap="round" stroke-linejoin="round"></path>
                            <path d="M34.9592834,44.0102828 L34.9592834,44.7210488 C34.9592834,46.2834139 36.2565147,47.6807404 37.8175896,47.6807404 C39.3797638,47.6807404 40.6758958,46.2834139 40.6758958,44.7210488 L40.6758958,44.4503856" id="Stroke-151" stroke="#23A4D2" stroke-width="1.1" stroke-linecap="round" stroke-linejoin="round"></path>
                            <path d="M28.9661849,43.3303239 C28.9661849,44.5868175 27.5887011,45.7244833 26.0265269,45.7244833 C24.4643526,45.7244833 23.0868689,44.3084524 23.0868689,42.7460874 L23.0868689,39.1691517" id="Stroke-152" stroke="#23A4D2" stroke-width="1.1" stroke-linecap="round" stroke-linejoin="round"></path>
                        </g>
                    </g>
                </g>
            </g>
        </g>
    </g>
</svg>