<?xml version="1.0" encoding="UTF-8" standalone="no"?>
<svg width="72px" height="72px" viewBox="0 0 72 72" version="1.1" xmlns="http://www.w3.org/2000/svg" xmlns:xlink="http://www.w3.org/1999/xlink">
    <!-- Generator: sketchtool 41.2 (35397) - http://www.bohemiancoding.com/sketch -->
    <title>9AF859FF-B86E-4804-81FE-413398178C9C</title>
    <desc>Created with sketchtool.</desc>
    <defs></defs>
    <g id="Page-1" stroke="none" stroke-width="1" fill="none" fill-rule="evenodd">
        <g id="5.2-Iconography" transform="translate(-952.000000, -300.000000)">
            <g id="Content" transform="translate(50.000000, 182.000000)">
                <g id="Icons" transform="translate(449.000000, 0.000000)">
                    <g id="Group-36-Copy" transform="translate(453.756107, 118.827763)">
                        <g id="Group-9">
                            <path d="M35.1791531,0 C15.7503664,0 0,15.763383 0,35.2082262 C0,54.6530694 15.7503664,70.4164524 35.1791531,70.4164524 C54.6079397,70.4164524 70.3583062,54.6530694 70.3583062,35.2082262 C70.3583062,15.763383 54.6079397,0 35.1791531,0 M35.1791531,1.10025707 C53.9714169,1.10025707 69.2589577,16.4015321 69.2589577,35.2082262 C69.2589577,54.0149203 53.9714169,69.3161954 35.1791531,69.3161954 C16.3868893,69.3161954 1.09934853,54.0149203 1.09934853,35.2082262 C1.09934853,16.4015321 16.3868893,1.10025707 35.1791531,1.10025707" id="Fill-126" fill="#23A4D2"></path>
                            <path d="M56.8288436,47.8567815 L52.9382492,54.6013573 C51.2859283,57.4664267 46.7467182,58.7031157 43.8840147,57.0494293 L40.4276629,55.0513625 C38.652215,54.0259229 37.762842,51.7505913 37.6759935,49.7019126 C37.5132899,45.8587147 38.1091368,39.4497172 38.1091368,39.4497172 C38.1871906,38.1503136 38.6478176,37.5660771 39.2964332,37.3922365 C39.9439495,37.2183959 41.0037215,37.2822108 41.1136564,38.99091 L41.4863355,44.0476915 L47.3788436,33.8340051 C47.8735505,32.9736041 49.1136156,32.6413265 49.9722068,33.1375424 C50.830798,33.6337584 51.1628013,34.8748483 50.6669951,35.7341491 L47.1073046,41.905491" id="Stroke-127" stroke="#23A4D2" stroke-width="1.1" stroke-linecap="round" stroke-linejoin="round"></path>
                            <path d="M48.2937215,39.8482303 L51.8534121,33.6768884 C52.3503176,32.8164874 53.5892834,32.48531 54.4478746,32.981526 C55.3064658,33.4777419 55.6384691,34.7177316 55.1426629,35.5770324 L51.5829723,41.7483743" id="Stroke-128" stroke="#23A4D2" stroke-width="1.1" stroke-linecap="round" stroke-linejoin="round"></path>
                            <path d="M50.3957858,43.805855 L53.9554764,37.6345131 C54.4512826,36.7752123 55.6913477,36.4429347 56.5499389,36.9391506 C57.4085301,37.4353666 57.7405334,38.6753563 57.2447272,39.5346571 L53.7872761,45.5277573" id="Stroke-129" stroke="#23A4D2" stroke-width="1.1" stroke-linecap="round" stroke-linejoin="round"></path>
                            <path d="M52.8899878,47.0835208 L55.5833917,42.4151301 C56.0791979,41.554729 57.3181637,41.2224514 58.1767549,41.7186674 C59.0353461,42.2148833 59.3673493,43.4559733 58.8715432,44.315274 L55.3327402,50.4514077" id="Stroke-130" stroke="#23A4D2" stroke-width="1.1" stroke-linecap="round" stroke-linejoin="round"></path>
                            <path d="M12.5243282,47.8567815 L16.4149226,54.6013573 C18.0672435,57.4664267 22.6064536,58.7031157 25.4691572,57.0494293 L28.925509,55.0513625 C30.7009568,54.0259229 31.5903298,51.7505913 31.6771783,49.7019126 C31.8398819,45.8587147 31.244035,39.4497172 31.244035,39.4497172 C31.1659813,38.1503136 30.7053542,37.5660771 30.0567386,37.3922365 C29.4092223,37.2183959 28.3494503,37.2822108 28.2395155,38.99091 L27.8668363,44.0476915 L21.9743282,33.8340051 C21.4796213,32.9736041 20.2395562,32.6413265 19.380965,33.1375424 C18.5223738,33.6337584 18.1903705,34.8748483 18.6861767,35.7341491 L22.2458673,41.905491" id="Stroke-131" stroke="#23A4D2" stroke-width="1.1" stroke-linecap="round" stroke-linejoin="round"></path>
                            <path d="M21.0595603,39.8482303 L17.4998697,33.6768884 C17.0029642,32.8164874 15.7639984,32.48531 14.9054072,32.981526 C14.046816,33.4777419 13.7148127,34.7177316 14.2106189,35.5770324 L17.7703094,41.7483743" id="Stroke-132" stroke="#23A4D2" stroke-width="1.1" stroke-linecap="round" stroke-linejoin="round"></path>
                            <path d="M18.9574959,43.805855 L15.3978054,37.6345131 C14.9019992,36.7752123 13.661934,36.4429347 12.8033428,36.9391506 C11.9447516,37.4353666 11.6127484,38.6753563 12.1085546,39.5346571 L15.5660057,45.5277573" id="Stroke-133" stroke="#23A4D2" stroke-width="1.1" stroke-linecap="round" stroke-linejoin="round"></path>
                            <path d="M16.463184,47.0835208 L13.7697801,42.4151301 C13.2739739,41.554729 12.0350081,41.2224514 11.1764169,41.7186674 C10.3178257,42.2148833 9.98582248,43.4559733 10.4816287,44.315274 L14.0204316,50.4514077" id="Stroke-134" stroke="#23A4D2" stroke-width="1.1" stroke-linecap="round" stroke-linejoin="round"></path>
                            <path d="M34.519544,14.0832905 L34.519544,6.16143959" id="Stroke-135" stroke="#23A4D2" stroke-width="1.1" stroke-linecap="round" stroke-linejoin="round"></path>
                            <path d="M16.5401384,25.1410941 L11.0060179,19.6024" id="Stroke-136" stroke="#23A4D2" stroke-width="1.1" stroke-linecap="round" stroke-linejoin="round"></path>
                            <path d="M24.8069096,17.0767599 L22.9204275,12.3599578" id="Stroke-137" stroke="#23A4D2" stroke-width="1.1" stroke-linecap="round" stroke-linejoin="round"></path>
                            <path d="M44.4030171,16.4919733 L46.3510627,11.6233357" id="Stroke-138" stroke="#23A4D2" stroke-width="1.1" stroke-linecap="round" stroke-linejoin="round"></path>
                            <path d="M52.9364902,24.8162982 L58.6498046,19.0982622" id="Stroke-139" stroke="#23A4D2" stroke-width="1.1" stroke-linecap="round" stroke-linejoin="round"></path>
                        </g>
                    </g>
                </g>
            </g>
        </g>
    </g>
</svg>