<?xml version="1.0" encoding="UTF-8" standalone="no"?>
<svg width="71px" height="71px" viewBox="0 0 71 71" version="1.1" xmlns="http://www.w3.org/2000/svg" xmlns:xlink="http://www.w3.org/1999/xlink">
    <!-- Generator: sketchtool 41.2 (35397) - http://www.bohemiancoding.com/sketch -->
    <title>04ABAD99-A06E-40DC-A0A0-55F2F90DCA4C</title>
    <desc>Created with sketchtool.</desc>
    <defs></defs>
    <g id="Page-1" stroke="none" stroke-width="1" fill="none" fill-rule="evenodd">
        <g id="5.2-Iconography" transform="translate(-499.000000, -539.000000)">
            <g id="Content" transform="translate(50.000000, 182.000000)">
                <g id="Icons" transform="translate(449.000000, 0.000000)">
                    <g id="Group-44-Copy" transform="translate(0.000000, 357.583548)">
                        <g id="Group-16">
                            <path d="M35.1791531,0 C15.7503664,0 0,15.763383 0,35.2082262 C0,54.6530694 15.7503664,70.4164524 35.1791531,70.4164524 C54.6079397,70.4164524 70.3583062,54.6530694 70.3583062,35.2082262 C70.3583062,15.763383 54.6079397,0 35.1791531,0 M35.1791531,1.10025707 C53.9714169,1.10025707 69.2589577,16.4015321 69.2589577,35.2082262 C69.2589577,54.0149203 53.9714169,69.3161954 35.1791531,69.3161954 C16.3868893,69.3161954 1.09934853,54.0149203 1.09934853,35.2082262 C1.09934853,16.4015321 16.3868893,1.10025707 35.1791531,1.10025707" id="Fill-198" fill="#23A4D2"></path>
                            <path d="M49.0309446,52.2616607 C49.0309446,54.8747712 46.9146987,56.9927661 44.3037459,56.9927661 L26.4942997,56.9927661 C23.8833469,56.9927661 21.767101,54.8747712 21.767101,52.2616607 L21.767101,16.3943805 C21.767101,13.7812699 23.8833469,11.6621748 26.4942997,11.6621748 L44.3037459,11.6621748 C46.9146987,11.6621748 49.0309446,13.7812699 49.0309446,16.3943805 L49.0309446,52.2616607 L49.0309446,52.2616607 Z" id="Stroke-199" stroke="#23A4D2" stroke-width="1.1" stroke-linecap="round" stroke-linejoin="round"></path>
                            <path d="M21.9869707,20.0246787 L48.3713355,20.0246787" id="Stroke-200" stroke="#23A4D2" stroke-width="1.1" stroke-linecap="round" stroke-linejoin="round"></path>
                            <path d="M21.9869707,49.951671 L48.3713355,49.951671" id="Stroke-201" stroke="#23A4D2" stroke-width="1.1" stroke-linecap="round" stroke-linejoin="round"></path>
                            <path d="M30.3420195,16.9439589 L41.3355049,16.9439589" id="Stroke-202" stroke="#23A4D2" stroke-width="1.1" stroke-linecap="round" stroke-linejoin="round"></path>
                            <path d="M36.9381107,53.4724936 C36.9381107,54.3229923 36.2499186,55.0128535 35.3990228,55.0128535 C34.548127,55.0128535 33.8599349,54.3229923 33.8599349,53.4724936 C33.8599349,52.6219949 34.548127,51.9321337 35.3990228,51.9321337 C36.2499186,51.9321337 36.9381107,52.6219949 36.9381107,53.4724936 L36.9381107,53.4724936 Z" id="Stroke-203" stroke="#23A4D2" stroke-width="1.1" stroke-linecap="round" stroke-linejoin="round"></path>
                            <polyline id="Stroke-204" stroke="#23A4D2" stroke-width="1.1" stroke-linecap="round" stroke-linejoin="round" points="28.1597028 34.2939126 32.8143445 38.952401 41.5805497 30.1789512"></polyline>
                        </g>
                    </g>
                </g>
            </g>
        </g>
    </g>
</svg>