<?xml version="1.0" encoding="UTF-8" standalone="no"?>
<svg width="71px" height="71px" viewBox="0 0 71 71" version="1.1" xmlns="http://www.w3.org/2000/svg" xmlns:xlink="http://www.w3.org/1999/xlink">
    <!-- Generator: sketchtool 41.2 (35397) - http://www.bohemiancoding.com/sketch -->
    <title>011DC97F-32F2-4F0A-88E5-208C582E83C1</title>
    <desc>Created with sketchtool.</desc>
    <defs></defs>
    <g id="Page-1" stroke="none" stroke-width="1" fill="none" fill-rule="evenodd">
        <g id="5.2-Iconography" transform="translate(-650.000000, -539.000000)">
            <g id="Content" transform="translate(50.000000, 182.000000)">
                <g id="Icons" transform="translate(449.000000, 0.000000)">
                    <g id="Group-45-Copy" transform="translate(151.435261, 357.483290)">
                        <g id="Group-17">
                            <path d="M35.9384731,0.0913449871 C16.95932,0.0913449871 -0.00032980456,16.325638 -0.00032980456,35.6065429 C-0.00032980456,54.8863476 16.95932,70.5165995 35.9384731,70.5165995 C54.9176262,70.5165995 70.303009,54.8863476 70.303009,35.6065429 C70.303009,16.325638 54.9176262,0.0913449871 35.9384731,0.0913449871 M35.9384731,1.19160206 C44.7805334,1.19160206 53.1278868,4.81034756 59.4458428,11.3810828 C65.7385138,17.9265121 69.2036604,26.5294221 69.2036604,35.6065429 C69.2036604,54.2492987 54.2811034,69.4163424 35.9384731,69.4163424 C17.053864,69.4163424 1.09901873,53.9335249 1.09901873,35.6065429 C1.09901873,17.2729594 17.3792712,1.19160206 35.9384731,1.19160206" id="Fill-209" fill="#23A4D2"></path>
                            <polyline id="Stroke-210" stroke="#23A4D2" stroke-width="1.1" stroke-linecap="round" stroke-linejoin="round" points="51.2296417 28.7069409 51.2296417 48.7316195 47.9315961 48.7316195"></polyline>
                            <polyline id="Stroke-211" stroke="#23A4D2" stroke-width="1.1" stroke-linecap="round" stroke-linejoin="round" points="18.6889251 28.7069409 18.6889251 48.7316195 21.9869707 48.7316195"></polyline>
                            <polygon id="Stroke-212" stroke="#23A4D2" stroke-width="1.1" stroke-linecap="round" stroke-linejoin="round" points="22.6465798 43.0102828 47.271987 43.0102828 47.271987 33.3280206 22.6465798 33.3280206"></polygon>
                            <polygon id="Stroke-213" stroke="#23A4D2" stroke-width="1.1" stroke-linecap="round" stroke-linejoin="round" points="45.0732899 53.2996668 39.8140065 58.8537645 24.8452769 58.8537645 24.8452769 43.0100627 45.0732899 43.0100627"></polygon>
                            <polyline id="Stroke-214" stroke="#23A4D2" stroke-width="1.1" stroke-linecap="round" stroke-linejoin="round" points="15.8953705 21.5250129 19.7255008 13.5228432 50.2137337 13.5228432 54.043864 21.5536195"></polyline>
                            <polygon id="Stroke-215" stroke="#23A4D2" stroke-width="1.1" stroke-linecap="round" stroke-linejoin="round" points="39.7964169 58.6714519 44.9413681 53.1327578 39.7964169 53.1327578"></polygon>
                            <path d="M16.2703583,21.4452442 L54.0879479,21.4452442" id="Stroke-216" stroke="#23A4D2" stroke-width="1.1" stroke-linecap="round" stroke-linejoin="round"></path>
                            <path d="M53.8680782,21.6652956 L53.8680782,24.1199692 C53.8680782,26.7561851 51.8848534,28.8928843 49.2508143,28.8928843 C46.6167752,28.8928843 44.6335505,26.7561851 44.6335505,24.1199692 L44.6335505,21.4683496 L44.6335505,24.1199692 C44.6335505,26.7561851 42.430456,28.8928843 39.7964169,28.8928843 C37.1623779,28.8928843 34.9592834,26.7561851 34.9592834,24.1199692 L34.9592834,21.4683496 L34.9592834,24.1199692 C34.9592834,26.7561851 32.7561889,28.8928843 30.1221498,28.8928843 C27.4881107,28.8928843 25.2850163,26.7561851 25.2850163,24.1199692 L25.2850163,21.4683496 L25.2850163,24.1199692 C25.2850163,26.7561851 23.3017915,28.8928843 20.6677524,28.8928843 C18.0337134,28.8928843 16.0504886,26.7561851 16.0504886,24.1199692 L16.0504886,21.6652956" id="Stroke-217" stroke="#23A4D2" stroke-width="1.1" stroke-linecap="round" stroke-linejoin="round"></path>
                        </g>
                    </g>
                </g>
            </g>
        </g>
    </g>
</svg>