<?xml version="1.0" encoding="UTF-8" standalone="no"?>
<svg width="71px" height="72px" viewBox="0 0 71 72" version="1.1" xmlns="http://www.w3.org/2000/svg" xmlns:xlink="http://www.w3.org/1999/xlink">
    <!-- Generator: sketchtool 41.2 (35397) - http://www.bohemiancoding.com/sketch -->
    <title>2DB1753F-D60D-44B7-981B-70169806D6D0</title>
    <desc>Created with sketchtool.</desc>
    <defs></defs>
    <g id="Page-1" stroke="none" stroke-width="1" fill="none" fill-rule="evenodd">
        <g id="5.2-Iconography" transform="translate(-1103.000000, -419.000000)">
            <g id="Content" transform="translate(50.000000, 182.000000)">
                <g id="Icons" transform="translate(449.000000, 0.000000)">
                    <g id="Group-43-Copy" transform="translate(604.641694, 237.655527)">
                        <g id="Group-15">
                            <path d="M35.1791531,0 C15.7503664,0 0,15.763383 0,35.2082262 C0,54.6530694 15.7503664,70.4164524 35.1791531,70.4164524 C54.6079397,70.4164524 70.3583062,54.6530694 70.3583062,35.2082262 C70.3583062,15.763383 54.6079397,0 35.1791531,0 M35.1791531,1.10025707 C53.9714169,1.10025707 69.2589577,16.4015321 69.2589577,35.2082262 C69.2589577,54.0149203 53.9714169,69.3161954 35.1791531,69.3161954 C16.3868893,69.3161954 1.09934853,54.0149203 1.09934853,35.2082262 C1.09934853,16.4015321 16.3868893,1.10025707 35.1791531,1.10025707" id="Fill-178" fill="#23A4D2"></path>
                            <polygon id="Stroke-179" stroke="#23A4D2" stroke-width="1.1" stroke-linecap="round" stroke-linejoin="round" points="36.514092 46.4308483 17.008351 46.4308483 15.4681637 25.7944267 38.0542793 25.8395373"></polygon>
                            <path d="M15.8306189,31.907455 L37.3778502,31.907455" id="Stroke-180" stroke="#23A4D2" stroke-width="1.1" stroke-linecap="round" stroke-linejoin="round"></path>
                            <path d="M16.2703583,37.1886889 L37.3778502,37.1886889" id="Stroke-181" stroke="#23A4D2" stroke-width="1.1" stroke-linecap="round" stroke-linejoin="round"></path>
                            <path d="M20.4478827,25.525964 L20.4478827,31.6874036" id="Stroke-182" stroke="#23A4D2" stroke-width="1.1" stroke-linecap="round" stroke-linejoin="round"></path>
                            <path d="M24.8452769,25.525964 L24.8452769,31.6874036" id="Stroke-183" stroke="#23A4D2" stroke-width="1.1" stroke-linecap="round" stroke-linejoin="round"></path>
                            <path d="M28.8029316,25.525964 L28.8029316,31.6874036" id="Stroke-184" stroke="#23A4D2" stroke-width="1.1" stroke-linecap="round" stroke-linejoin="round"></path>
                            <path d="M32.7605863,25.525964 L32.7605863,31.6874036" id="Stroke-185" stroke="#23A4D2" stroke-width="1.1" stroke-linecap="round" stroke-linejoin="round"></path>
                            <path d="M20.4478827,36.9686375 L20.4478827,46.2107969" id="Stroke-186" stroke="#23A4D2" stroke-width="1.1" stroke-linecap="round" stroke-linejoin="round"></path>
                            <path d="M24.8452769,36.9686375 L24.8452769,46.2107969" id="Stroke-187" stroke="#23A4D2" stroke-width="1.1" stroke-linecap="round" stroke-linejoin="round"></path>
                            <path d="M28.8029316,36.9686375 L28.8029316,46.2107969" id="Stroke-188" stroke="#23A4D2" stroke-width="1.1" stroke-linecap="round" stroke-linejoin="round"></path>
                            <path d="M32.7605863,36.9686375 L32.7605863,46.2107969" id="Stroke-189" stroke="#23A4D2" stroke-width="1.1" stroke-linecap="round" stroke-linejoin="round"></path>
                            <path d="M37.5406637,22.6249162 C37.5406637,18.0995589 32.9310953,18.1842787 31.3810138,20.569636 C30.791763,17.8729059 28.6491327,16.4634766 26.5065024,16.4601758 C24.3627728,16.4568751 22.2190432,17.8597028 21.6275936,20.569636 C20.0698168,18.1754766 15.4679438,18.1105614 15.4679438,22.6249162" id="Stroke-190" stroke="#23A4D2" stroke-width="1.1" stroke-linecap="round" stroke-linejoin="round"></path>
                            <path d="M30.8016572,46.2570077 C31.9790594,50.7504576 34.9560953,55.3759383 37.973807,55.3759383 C41.856706,55.3759383 40.65182,53.8344781 42.5932695,53.8344781 C44.5358184,53.8344781 43.3287337,55.3759383 47.2127321,55.3759383 C51.0956311,55.3759383 54.9125692,47.7137481 54.9125692,42.5326375 C54.9125692,37.351527 51.6101262,33.2849769 47.7261279,33.2849769 C43.8432288,33.2849769 43.8872028,34.826437 42.5932695,34.826437 C41.2993363,34.826437 41.3444096,33.2849769 37.4604112,33.2849769" id="Stroke-191" stroke="#23A4D2" stroke-width="1.1" stroke-linecap="round" stroke-linejoin="round"></path>
                            <path d="M42.4348534,34.7681234 L42.4348534,32.2573368 C42.4348534,30.8446067 41.2794381,29.6596298 39.8678746,29.6596298" id="Stroke-192" stroke="#23A4D2" stroke-width="1.1" stroke-linecap="round" stroke-linejoin="round"></path>
                            <path d="M44.6466327,31.7440668 C47.8633265,31.7440668 50.2928868,28.7986787 50.2928868,25.5793265 C47.076193,25.5793265 44.6466327,28.5247147 44.6466327,31.7440668 L44.6466327,31.7440668 Z" id="Stroke-193" stroke="#23A4D2" stroke-width="1.1" stroke-linecap="round" stroke-linejoin="round"></path>
                        </g>
                    </g>
                </g>
            </g>
        </g>
    </g>
</svg>