<?xml version="1.0" encoding="UTF-8" standalone="no"?>
<svg width="80px" height="93px" viewBox="0 0 80 93" version="1.1" xmlns="http://www.w3.org/2000/svg" xmlns:xlink="http://www.w3.org/1999/xlink">
    <!-- Generator: sketchtool 41.2 (35397) - http://www.bohemiancoding.com/sketch -->
    <title>2280724B-AD33-4DD2-8EED-9D1FC7CA17C6</title>
    <desc>Created with sketchtool.</desc>
    <defs></defs>
    <g id="Page-1" stroke="none" stroke-width="1" fill="none" fill-rule="evenodd">
        <g id="5.1-Iconography" transform="translate(-797.000000, -412.000000)">
            <g id="Content" transform="translate(50.000000, 160.000000)">
                <g id="Group" transform="translate(449.000000, 0.000000)">
                    <g id="Group-56" transform="translate(298.473127, 253.000000)">
                        <g id="Group-17">
                            <path d="M4.39024837,19.83146 L36.5319015,0.88946 C38.3051507,-0.15444 40.4796621,-0.15444 42.2540106,0.88946 L74.560566,19.83146 C76.9813314,21.25596 78.6039699,23.90476 78.6039699,26.77356 L78.6039699,63.33756 C78.6039699,66.20636 76.9725366,68.85516 74.5506718,70.27966 L42.3034813,90.17866 C40.5302321,91.22146 38.302952,91.22146 36.5286034,90.17866 L4.40783795,70.27966 C1.98597313,68.85516 0.550223941,66.20636 0.550223941,63.33756 L0.550223941,26.77356 C0.550223941,23.90476 1.9694829,21.25596 4.39024837,19.83146 L4.39024837,19.83146 Z" id="Stroke-160" stroke="#014E7D" stroke-width="1.1" stroke-linecap="round" stroke-linejoin="round"></path>
                            <polygon id="Stroke-162" stroke="#014E7D" stroke-width="1.1" stroke-linecap="round" stroke-linejoin="round" points="63.2335383 55.65846 15.4976262 55.65846 16.1429438 51.04506 62.5882207 51.04506"></polygon>
                            <polygon id="Stroke-164" stroke="#014E7D" stroke-width="1.1" stroke-linecap="round" stroke-linejoin="round" points="59.575566 45.33914 18.9403461 45.33914 16.1436034 51.04484 62.5877809 51.04484"></polygon>
                            <path d="M22.887557,46.41582 L21.1461889,49.96882" id="Stroke-166" stroke="#014E7D" stroke-width="1.1" stroke-linecap="round" stroke-linejoin="round"></path>
                            <path d="M55.8436075,46.41582 L57.5849756,49.96882" id="Stroke-168" stroke="#014E7D" stroke-width="1.1" stroke-linecap="round" stroke-linejoin="round"></path>
                            <polygon id="Stroke-170" stroke="#014E7D" stroke-width="1.1" stroke-linecap="round" stroke-linejoin="round" points="59.575566 45.33914 18.9403461 45.33914 27.5471458 37.11444 50.9687663 37.11444"></polygon>
                            <polygon id="Stroke-172" stroke="#014E7D" stroke-width="1.1" stroke-linecap="round" stroke-linejoin="round" points="21.3514373 44.37224 27.9343363 38.08134 50.5809161 38.08134 57.1649145 44.37224"></polygon>
                            <polygon id="Stroke-174" stroke="#014E7D" stroke-width="1.1" stroke-linecap="round" stroke-linejoin="round" points="63.2335383 55.65846 15.4976262 55.65846 16.1429438 58.21596 62.5882207 58.21596"></polygon>
                            <polygon id="Stroke-176" stroke="#014E7D" stroke-width="1.1" stroke-linecap="round" stroke-linejoin="round" points="61.2969259 61.1952 17.4340187 61.1952 16.1433836 58.2164 62.5875611 58.2164"></polygon>
                            <polyline id="Stroke-178" stroke="#014E7D" stroke-width="1.1" stroke-linecap="round" stroke-linejoin="round" points="16.1430537 58.21585 16.1430537 65.41645 22.887557 65.41645 22.887557 61.19465"></polyline>
                            <polyline id="Stroke-180" stroke="#014E7D" stroke-width="1.1" stroke-linecap="round" stroke-linejoin="round" points="62.5880008 58.21585 62.5880008 65.41645 55.8434976 65.41645 55.8434976 61.19465"></polyline>
                            <polygon id="Fill-182" fill="#014E7D" points="17.2927524 54.6557 22.1738599 54.6557 22.1738599 52.0476 17.2927524 52.0476"></polygon>
                            <polygon id="Stroke-184" stroke="#014E7D" stroke-width="1.1" stroke-linecap="round" stroke-linejoin="round" points="17.2927524 54.6557 22.1738599 54.6557 22.1738599 52.0476 17.2927524 52.0476"></polygon>
                            <polygon id="Fill-185" fill="#014E7D" points="23.2490228 54.6557 28.1301303 54.6557 28.1301303 52.0476 23.2490228 52.0476"></polygon>
                            <polygon id="Stroke-186" stroke="#014E7D" stroke-width="1.1" stroke-linecap="round" stroke-linejoin="round" points="23.2490228 54.6557 28.1301303 54.6557 28.1301303 52.0476 23.2490228 52.0476"></polygon>
                            <polygon id="Fill-187" fill="#014E7D" points="56.5570847 54.6557 61.4381922 54.6557 61.4381922 52.0476 56.5570847 52.0476"></polygon>
                            <polygon id="Stroke-188" stroke="#014E7D" stroke-width="1.1" stroke-linecap="round" stroke-linejoin="round" points="56.5570847 54.6557 61.4381922 54.6557 61.4381922 52.0476 56.5570847 52.0476"></polygon>
                            <polygon id="Fill-189" fill="#014E7D" points="50.6008143 54.6557 55.4819218 54.6557 55.4819218 52.0476 50.6008143 52.0476"></polygon>
                            <polygon id="Stroke-190" stroke="#014E7D" stroke-width="1.1" stroke-linecap="round" stroke-linejoin="round" points="50.6008143 54.6557 55.4819218 54.6557 55.4819218 52.0476 50.6008143 52.0476"></polygon>
                            <path d="M29.4928827,54.65559 L49.2382818,54.65559" id="Stroke-191" stroke="#014E7D" stroke-width="1.1" stroke-linecap="round" stroke-linejoin="round"></path>
                            <path d="M29.4928827,53.78637 L37.1454479,53.78637" id="Stroke-192" stroke="#014E7D" stroke-width="1.1" stroke-linecap="round" stroke-linejoin="round"></path>
                            <path d="M41.5861564,53.78637 L49.2387215,53.78637" id="Stroke-193" stroke="#014E7D" stroke-width="1.1" stroke-linecap="round" stroke-linejoin="round"></path>
                            <path d="M29.4928827,52.91715 L37.1454479,52.91715" id="Stroke-194" stroke="#014E7D" stroke-width="1.1" stroke-linecap="round" stroke-linejoin="round"></path>
                            <path d="M41.5861564,52.91715 L49.2387215,52.91715" id="Stroke-195" stroke="#014E7D" stroke-width="1.1" stroke-linecap="round" stroke-linejoin="round"></path>
                            <path d="M29.4928827,52.04804 L49.2382818,52.04804" id="Stroke-196" stroke="#014E7D" stroke-width="1.1" stroke-linecap="round" stroke-linejoin="round"></path>
                            <path d="M27.3967549,40.24009 L30.4276588,39.06089" id="Stroke-197" stroke="#014E7D" stroke-width="1.1" stroke-linecap="round" stroke-linejoin="round"></path>
                            <path d="M26.2603583,41.89427 L32.3210668,39.53587" id="Stroke-198" stroke="#014E7D" stroke-width="1.1" stroke-linecap="round" stroke-linejoin="round"></path>
                            <path d="M28.4753257,42.27751 L31.5062296,41.09831" id="Stroke-199" stroke="#014E7D" stroke-width="1.1" stroke-linecap="round" stroke-linejoin="round"></path>
                            <polygon id="Stroke-200" stroke="#014E7D" stroke-width="1.1" stroke-linecap="round" stroke-linejoin="round" points="34.0435261 37.11422 31.7579805 31.03012 21.0360342 25.86122 10.1711726 28.68492 12.2522394 30.90252 18.9406759 28.95112 18.2986564 27.51782 20.9458876 26.80062 31.1302524 31.48772 33.3190554 37.11422"></polygon>
                            <path d="M28.9414495,37.11422 L32.6781352,35.46752" id="Stroke-201" stroke="#014E7D" stroke-width="1.1" stroke-linecap="round" stroke-linejoin="round"></path>
                            <polygon id="Stroke-202" stroke="#014E7D" stroke-width="1.1" stroke-linecap="round" stroke-linejoin="round" points="44.472386 37.11422 46.7579316 31.03012 57.4798779 25.86122 68.3447394 28.68492 66.2636726 30.90252 59.5752362 28.95112 60.2172557 27.51782 57.5700244 26.80062 47.3856596 31.48772 45.1968567 37.11422"></polygon>
                            <path d="M49.5744625,37.11422 L45.8377769,35.46752" id="Stroke-203" stroke="#014E7D" stroke-width="1.1" stroke-linecap="round" stroke-linejoin="round"></path>
                            <path d="M17.7756963,65.41601 L17.7756963,61.19531" id="Stroke-204" stroke="#014E7D" stroke-width="1.1" stroke-linecap="round" stroke-linejoin="round"></path>
                            <path d="M19.5153054,65.41601 L19.5153054,61.19531" id="Stroke-205" stroke="#014E7D" stroke-width="1.1" stroke-linecap="round" stroke-linejoin="round"></path>
                            <path d="M21.2072028,65.41601 L21.2072028,61.19531" id="Stroke-206" stroke="#014E7D" stroke-width="1.1" stroke-linecap="round" stroke-linejoin="round"></path>
                            <path d="M57.4999959,65.41601 L57.4999959,61.19531" id="Stroke-207" stroke="#014E7D" stroke-width="1.1" stroke-linecap="round" stroke-linejoin="round"></path>
                            <path d="M59.239605,65.41601 L59.239605,61.19531" id="Stroke-208" stroke="#014E7D" stroke-width="1.1" stroke-linecap="round" stroke-linejoin="round"></path>
                            <path d="M60.9315024,65.41601 L60.9315024,61.19531" id="Stroke-209" stroke="#014E7D" stroke-width="1.1" stroke-linecap="round" stroke-linejoin="round"></path>
                        </g>
                    </g>
                </g>
            </g>
        </g>
    </g>
</svg>