<?xml version="1.0" encoding="UTF-8" standalone="no"?>
<svg width="80px" height="93px" viewBox="0 0 80 93" version="1.1" xmlns="http://www.w3.org/2000/svg" xmlns:xlink="http://www.w3.org/1999/xlink">
    <!-- Generator: sketchtool 41.2 (35397) - http://www.bohemiancoding.com/sketch -->
    <title>0A1AD81C-7F49-4FCD-AA8A-969BE522BFAF</title>
    <desc>Created with sketchtool.</desc>
    <defs></defs>
    <g id="Page-1" stroke="none" stroke-width="1" fill="none" fill-rule="evenodd">
        <g id="5.1-Iconography" transform="translate(-648.000000, -412.000000)">
            <g id="Content" transform="translate(50.000000, 160.000000)">
                <g id="Group" transform="translate(449.000000, 0.000000)">
                    <g id="Group-55" transform="translate(149.236564, 253.000000)">
                        <g id="Group-16">
                            <path d="M4.39024837,19.79439 L36.5319015,0.85239 C38.3051507,-0.19151 40.4796621,-0.19151 42.2540106,0.85239 L74.560566,19.79439 C76.9813314,21.21889 78.6039699,23.86769 78.6039699,26.73539 L78.6039699,63.30049 C78.6039699,66.16929 76.9725366,68.81809 74.5506718,70.24259 L42.3034813,90.14159 C40.5302321,91.18439 38.302952,91.18439 36.5286034,90.14159 L4.40783795,70.24259 C1.98597313,68.81809 0.550223941,66.16929 0.550223941,63.30049 L0.550223941,26.73539 C0.550223941,23.86769 1.9694829,21.21889 4.39024837,19.79439 L4.39024837,19.79439 Z" id="Stroke-239" stroke="#014E7D" stroke-width="1.1" stroke-linecap="round" stroke-linejoin="round"></path>
                            <path d="M51.0760627,58.27899 C45.1527728,58.27899 40.3519178,53.47419 40.3519178,47.54849 C40.3519178,41.62169 45.1527728,36.81799 51.0760627,36.81799 C56.9993526,36.81799 61.8002077,41.62169 61.8002077,47.54849 C61.8002077,53.47419 56.9993526,58.27899 51.0760627,58.27899 L51.0760627,58.27899 Z M64.8289129,47.96319 L64.8289129,47.13379 L63.8779764,46.88189 C63.8570888,46.48369 63.8164129,46.09099 63.7603461,45.70269 L64.6453217,45.27039 L64.4837174,44.45749 L63.5030985,44.39589 C63.4063559,44.01089 63.2898249,43.63249 63.1579031,43.26179 L63.9406393,42.66559 L63.6229275,41.89889 L62.6500041,42.03089 C62.479605,41.67229 62.2916164,41.32469 62.0893363,40.98589 L62.74125,40.24779 L62.280623,39.55809 L61.3505741,39.87819 C61.1142142,39.56139 60.8624634,39.25559 60.5975204,38.96299 L61.0933265,38.11049 L60.5073738,37.52529 L59.656478,38.02029 C59.362952,37.75629 59.0584324,37.50439 58.74182,37.26789 L59.0606311,36.33619 L58.3724389,35.87639 L57.6347761,36.52869 C57.2961767,36.32629 56.9476832,36.13819 56.590395,35.96769 L56.7212174,34.99309 L55.9560708,34.67629 L55.3602239,35.45839 C54.9897435,35.32749 54.6115676,35.21089 54.2256963,35.11409 L54.1652321,34.13289 L53.3528135,33.97119 L52.9207695,34.85669 C52.5326995,34.80059 52.1402321,34.75989 51.7411686,34.73899 L51.4905171,33.78749 L50.6616083,33.78749 L50.4109568,34.73899 C50.0118933,34.75989 49.6194259,34.80059 49.2313559,34.85669 L48.7993119,33.97119 L47.9868933,34.13289 L47.9253298,35.11409 C47.5405578,35.21089 47.1623819,35.32749 46.7919015,35.45839 L46.1960546,34.67629 L45.430908,34.99309 L45.5617305,35.96769 C45.2044422,36.13819 44.8559487,36.32629 44.5173493,36.52869 L43.7796865,35.87639 L43.0914943,36.33619 L43.4103054,37.26789 C43.093693,37.50439 42.7891735,37.75629 42.4956474,38.02029 L41.6447516,37.52529 L41.0587989,38.11049 L41.554605,38.96299 C41.2896621,39.25559 41.0379112,39.56139 40.8015513,39.87819 L39.8715024,39.55809 L39.4108754,40.24779 L40.0627891,40.98589 C39.860509,41.32469 39.6725204,41.67229 39.5021213,42.03089 L38.5291979,41.89889 L38.2114862,42.66559 L38.9942223,43.26179 C38.8623005,43.63249 38.7457695,44.01089 38.6490269,44.39589 L37.668408,44.45749 L37.5068037,45.27039 L38.3917793,45.70269 C38.3357125,46.09099 38.2950366,46.48369 38.274149,46.88189 L37.3232125,47.13379 L37.3232125,47.96319 L38.274149,48.21399 C38.2950366,48.61219 38.3357125,49.00599 38.3917793,49.39319 L37.5068037,49.82659 L37.668408,50.63949 L38.6490269,50.69999 C38.7457695,51.08609 38.8623005,51.46449 38.9942223,51.83519 L38.2114862,52.43139 L38.5291979,53.19699 L39.5021213,53.06499 C39.6725204,53.42359 39.860509,53.77229 40.0627891,54.11109 L39.4108754,54.84919 L39.8715024,55.53779 L40.8015513,55.21879 C41.0379112,55.53559 41.2896621,55.84029 41.554605,56.13399 L41.0587989,56.98539 L41.6447516,57.57169 L42.4956474,57.07559 C42.7891735,57.34069 43.093693,57.59259 43.4103054,57.82909 L43.0914943,58.75969 L43.7796865,59.22059 L44.5173493,58.56829 C44.8559487,58.77069 45.2044422,58.95769 45.5617305,59.12929 L45.430908,60.10279 L46.1960546,60.42069 L46.7919015,59.63749 C47.1623819,59.76949 47.5405578,59.88499 47.9253298,59.98289 L47.9868933,60.96409 L48.7993119,61.12579 L49.2313559,60.24029 C49.6194259,60.29639 50.0118933,60.33709 50.4109568,60.35689 L50.6616083,61.30949 L51.4905171,61.30949 L51.7411686,60.35689 C52.1402321,60.33709 52.5326995,60.29639 52.9207695,60.24029 L53.3528135,61.12579 L54.1652321,60.96409 L54.2256963,59.98289 C54.6115676,59.88499 54.9897435,59.76949 55.3602239,59.63749 L55.9560708,60.42069 L56.7212174,60.10279 L56.590395,59.12929 C56.9476832,58.95769 57.2961767,58.77069 57.6347761,58.56829 L58.3724389,59.22059 L59.0606311,58.75969 L58.74182,57.82909 C59.0584324,57.59259 59.362952,57.34069 59.656478,57.07559 L60.5073738,57.57169 L61.0933265,56.98539 L60.5975204,56.13399 C60.8624634,55.84029 61.1142142,55.53559 61.3505741,55.21879 L62.280623,55.53779 L62.74125,54.84919 L62.0893363,54.11109 C62.2916164,53.77229 62.479605,53.42359 62.6500041,53.06499 L63.6229275,53.19699 L63.9406393,52.43139 L63.1579031,51.83519 C63.2898249,51.46449 63.4063559,51.08609 63.5030985,50.69999 L64.4837174,50.63949 L64.6453217,49.82659 L63.7603461,49.39319 C63.8164129,49.00599 63.8570888,48.61219 63.8779764,48.21399 L64.8289129,47.96319 Z" id="Fill-240" fill="#F2F2F2"></path>
                            <path d="M51.0760627,58.27899 C45.1527728,58.27899 40.3519178,53.47419 40.3519178,47.54849 C40.3519178,41.62169 45.1527728,36.81799 51.0760627,36.81799 C56.9993526,36.81799 61.8002077,41.62169 61.8002077,47.54849 C61.8002077,53.47419 56.9993526,58.27899 51.0760627,58.27899 L51.0760627,58.27899 Z M64.8289129,47.96319 L64.8289129,47.13379 L63.8779764,46.88189 C63.8570888,46.48369 63.8164129,46.09099 63.7603461,45.70269 L64.6453217,45.27039 L64.4837174,44.45749 L63.5030985,44.39589 C63.4063559,44.01089 63.2898249,43.63249 63.1579031,43.26179 L63.9406393,42.66559 L63.6229275,41.89889 L62.6500041,42.03089 C62.479605,41.67229 62.2916164,41.32469 62.0893363,40.98589 L62.74125,40.24779 L62.280623,39.55809 L61.3505741,39.87819 C61.1142142,39.56139 60.8624634,39.25559 60.5975204,38.96299 L61.0933265,38.11049 L60.5073738,37.52529 L59.656478,38.02029 C59.362952,37.75629 59.0584324,37.50439 58.74182,37.26789 L59.0606311,36.33619 L58.3724389,35.87639 L57.6347761,36.52869 C57.2961767,36.32629 56.9476832,36.13819 56.590395,35.96769 L56.7212174,34.99309 L55.9560708,34.67629 L55.3602239,35.45839 C54.9897435,35.32749 54.6115676,35.21089 54.2256963,35.11409 L54.1652321,34.13289 L53.3528135,33.97119 L52.9207695,34.85669 C52.5326995,34.80059 52.1402321,34.75989 51.7411686,34.73899 L51.4905171,33.78749 L50.6616083,33.78749 L50.4109568,34.73899 C50.0118933,34.75989 49.6194259,34.80059 49.2313559,34.85669 L48.7993119,33.97119 L47.9868933,34.13289 L47.9253298,35.11409 C47.5405578,35.21089 47.1623819,35.32749 46.7919015,35.45839 L46.1960546,34.67629 L45.430908,34.99309 L45.5617305,35.96769 C45.2044422,36.13819 44.8559487,36.32629 44.5173493,36.52869 L43.7796865,35.87639 L43.0914943,36.33619 L43.4103054,37.26789 C43.093693,37.50439 42.7891735,37.75629 42.4956474,38.02029 L41.6447516,37.52529 L41.0587989,38.11049 L41.554605,38.96299 C41.2896621,39.25559 41.0379112,39.56139 40.8015513,39.87819 L39.8715024,39.55809 L39.4108754,40.24779 L40.0627891,40.98589 C39.860509,41.32469 39.6725204,41.67229 39.5021213,42.03089 L38.5291979,41.89889 L38.2114862,42.66559 L38.9942223,43.26179 C38.8623005,43.63249 38.7457695,44.01089 38.6490269,44.39589 L37.668408,44.45749 L37.5068037,45.27039 L38.3917793,45.70269 C38.3357125,46.09099 38.2950366,46.48369 38.274149,46.88189 L37.3232125,47.13379 L37.3232125,47.96319 L38.274149,48.21399 C38.2950366,48.61219 38.3357125,49.00599 38.3917793,49.39319 L37.5068037,49.82659 L37.668408,50.63949 L38.6490269,50.69999 C38.7457695,51.08609 38.8623005,51.46449 38.9942223,51.83519 L38.2114862,52.43139 L38.5291979,53.19699 L39.5021213,53.06499 C39.6725204,53.42359 39.860509,53.77229 40.0627891,54.11109 L39.4108754,54.84919 L39.8715024,55.53779 L40.8015513,55.21879 C41.0379112,55.53559 41.2896621,55.84029 41.554605,56.13399 L41.0587989,56.98539 L41.6447516,57.57169 L42.4956474,57.07559 C42.7891735,57.34069 43.093693,57.59259 43.4103054,57.82909 L43.0914943,58.75969 L43.7796865,59.22059 L44.5173493,58.56829 C44.8559487,58.77069 45.2044422,58.95769 45.5617305,59.12929 L45.430908,60.10279 L46.1960546,60.42069 L46.7919015,59.63749 C47.1623819,59.76949 47.5405578,59.88499 47.9253298,59.98289 L47.9868933,60.96409 L48.7993119,61.12579 L49.2313559,60.24029 C49.6194259,60.29639 50.0118933,60.33709 50.4109568,60.35689 L50.6616083,61.30949 L51.4905171,61.30949 L51.7411686,60.35689 C52.1402321,60.33709 52.5326995,60.29639 52.9207695,60.24029 L53.3528135,61.12579 L54.1652321,60.96409 L54.2256963,59.98289 C54.6115676,59.88499 54.9897435,59.76949 55.3602239,59.63749 L55.9560708,60.42069 L56.7212174,60.10279 L56.590395,59.12929 C56.9476832,58.95769 57.2961767,58.77069 57.6347761,58.56829 L58.3724389,59.22059 L59.0606311,58.75969 L58.74182,57.82909 C59.0584324,57.59259 59.362952,57.34069 59.656478,57.07559 L60.5073738,57.57169 L61.0933265,56.98539 L60.5975204,56.13399 C60.8624634,55.84029 61.1142142,55.53559 61.3505741,55.21879 L62.280623,55.53779 L62.74125,54.84919 L62.0893363,54.11109 C62.2916164,53.77229 62.479605,53.42359 62.6500041,53.06499 L63.6229275,53.19699 L63.9406393,52.43139 L63.1579031,51.83519 C63.2898249,51.46449 63.4063559,51.08609 63.5030985,50.69999 L64.4837174,50.63949 L64.6453217,49.82659 L63.7603461,49.39319 C63.8164129,49.00599 63.8570888,48.61219 63.8779764,48.21399 L64.8289129,47.96319 L64.8289129,47.96319 Z" id="Stroke-241" stroke="#004E7D" stroke-width="1.1" stroke-linecap="round" stroke-linejoin="round"></path>
                            <path d="M50.6573208,65.51182 L50.6540228,64.90572 L49.9977117,64.73522 C49.9658306,64.41732 49.9009691,64.10932 49.8097231,63.81342 L50.3462052,63.39982 L50.112044,62.83992 L49.4414414,62.93452 C49.2908306,62.65732 49.1138355,62.39552 48.9137541,62.15462 L49.2512541,61.56722 L48.8203094,61.14042 L48.2365554,61.48362 C47.9935993,61.28672 47.730855,61.11292 47.4516205,60.96442 L47.5384691,60.29342 L46.9778013,60.06352 L46.569943,60.60472 C46.2731189,60.51672 45.964202,60.45622 45.6453909,60.42652 L45.4694951,59.77202 L44.8637541,59.77532 L44.693355,60.43092 C44.3756433,60.46392 44.0678257,60.52882 43.7710016,60.62012 L43.3576466,60.08222 L42.7991775,60.31762 L42.8937215,60.98862 C42.6166857,61.13932 42.3550407,61.31642 42.1142834,61.51662 L41.5261319,61.17782 L41.100684,61.60902 L41.4436808,62.19312 C41.2468974,62.43732 41.0732003,62.70022 40.9247883,62.97962 L40.2530863,62.89162 L40.0244218,63.45372 L40.5653013,63.86182 C40.4773534,64.15882 40.4157899,64.46792 40.3872068,64.78582 L39.7319951,64.96292 L39.7352932,65.56902 L40.3916042,65.73952 C40.4245847,66.05632 40.4894463,66.36542 40.5806922,66.66132 L40.0431107,67.07492 L40.2783713,67.63482 L40.9489739,67.54022 C41.0995847,67.81742 41.2765798,68.07922 41.4766612,68.32012 L41.1380619,68.90752 L41.5690065,69.33432 L42.1527606,68.99002 C42.396816,69.18802 42.6595603,69.36182 42.9387948,69.50922 L42.8508469,70.18242 L43.412614,70.41122 L43.8204723,69.87002 C44.1172964,69.95802 44.4262134,70.01852 44.7439251,70.04822 L44.9209202,70.70272 L45.5266612,70.69942 L45.6959609,70.04382 C46.0136726,70.01082 46.3225896,69.94592 46.6183143,69.85462 L47.0316694,70.39252 L47.5901384,70.15712 L47.4966938,69.48612 C47.7737296,69.33542 48.0353746,69.15832 48.2761319,68.95812 L48.863184,69.29582 L49.2897313,68.86462 L48.9456352,68.28052 C49.1435179,68.03742 49.317215,67.77452 49.4645277,67.49512 L50.1362296,67.58312 L50.3659935,67.02102 L49.8240147,66.61292 C49.9130619,66.31592 49.9735261,66.00682 50.0032085,65.68892 L50.6573208,65.51182 Z" id="Fill-242" fill="#F2F2F2"></path>
                            <path d="M50.6573208,65.51182 L50.6540228,64.90572 L49.9977117,64.73522 C49.9658306,64.41732 49.9009691,64.10932 49.8097231,63.81342 L50.3462052,63.39982 L50.112044,62.83992 L49.4414414,62.93452 C49.2908306,62.65732 49.1138355,62.39552 48.9137541,62.15462 L49.2512541,61.56722 L48.8203094,61.14042 L48.2365554,61.48362 C47.9935993,61.28672 47.730855,61.11292 47.4516205,60.96442 L47.5384691,60.29342 L46.9778013,60.06352 L46.569943,60.60472 C46.2731189,60.51672 45.964202,60.45622 45.6453909,60.42652 L45.4694951,59.77202 L44.8637541,59.77532 L44.693355,60.43092 C44.3756433,60.46392 44.0678257,60.52882 43.7710016,60.62012 L43.3576466,60.08222 L42.7991775,60.31762 L42.8937215,60.98862 C42.6166857,61.13932 42.3550407,61.31642 42.1142834,61.51662 L41.5261319,61.17782 L41.100684,61.60902 L41.4436808,62.19312 C41.2468974,62.43732 41.0732003,62.70022 40.9247883,62.97962 L40.2530863,62.89162 L40.0244218,63.45372 L40.5653013,63.86182 C40.4773534,64.15882 40.4157899,64.46792 40.3872068,64.78582 L39.7319951,64.96292 L39.7352932,65.56902 L40.3916042,65.73952 C40.4245847,66.05632 40.4894463,66.36542 40.5806922,66.66132 L40.0431107,67.07492 L40.2783713,67.63482 L40.9489739,67.54022 C41.0995847,67.81742 41.2765798,68.07922 41.4766612,68.32012 L41.1380619,68.90752 L41.5690065,69.33432 L42.1527606,68.99002 C42.396816,69.18802 42.6595603,69.36182 42.9387948,69.50922 L42.8508469,70.18242 L43.412614,70.41122 L43.8204723,69.87002 C44.1172964,69.95802 44.4262134,70.01852 44.7439251,70.04822 L44.9209202,70.70272 L45.5266612,70.69942 L45.6959609,70.04382 C46.0136726,70.01082 46.3225896,69.94592 46.6183143,69.85462 L47.0316694,70.39252 L47.5901384,70.15712 L47.4966938,69.48612 C47.7737296,69.33542 48.0353746,69.15832 48.2761319,68.95812 L48.863184,69.29582 L49.2897313,68.86462 L48.9456352,68.28052 C49.1435179,68.03742 49.317215,67.77452 49.4645277,67.49512 L50.1362296,67.58312 L50.3659935,67.02102 L49.8240147,66.61292 C49.9130619,66.31592 49.9735261,66.00682 50.0032085,65.68892 L50.6573208,65.51182 L50.6573208,65.51182 Z" id="Stroke-243" stroke="#004E7D" stroke-width="1.1" stroke-linecap="round" stroke-linejoin="round"></path>
                            <path d="M48.7103746,65.21889 C48.7202687,67.16149 47.1547964,68.74439 45.2133469,68.75539 C43.2718974,68.76529 41.6899349,67.19889 41.6789414,65.25629 C41.6690472,63.31259 43.2345195,61.72969 45.1759691,61.71979 C47.1185179,61.70989 48.7004805,63.27629 48.7103746,65.21889" id="Fill-244" fill="#F2F2F2"></path>
                            <path d="M48.7103746,65.21889 C48.7202687,67.16149 47.1547964,68.74439 45.2133469,68.75539 C43.2718974,68.76529 41.6899349,67.19889 41.6789414,65.25629 C41.6690472,63.31259 43.2345195,61.72969 45.1759691,61.71979 C47.1185179,61.70989 48.7004805,63.27629 48.7103746,65.21889 L48.7103746,65.21889 Z" id="Stroke-245" stroke="#004E7D" stroke-width="1.1" stroke-linecap="round" stroke-linejoin="round"></path>
                            <path d="M33.2676059,27.5638 C23.0678502,27.5638 14.7985505,35.838 14.7985505,46.0438 C14.7985505,56.2496 23.0678502,64.5238 33.2676059,64.5238 C43.4673616,64.5238 51.7366612,56.2496 51.7366612,46.0438 C51.7366612,35.838 43.4673616,27.5638 33.2676059,27.5638" id="Fill-246" fill="#F2F2F2"></path>
                            <path d="M33.2676059,63.8627 C23.4317345,63.8627 15.459259,55.8844 15.459259,46.0438 C15.459259,36.2021 23.4317345,28.2249 33.2676059,28.2249 C43.1034772,28.2249 51.0759528,36.2021 51.0759528,46.0438 C51.0759528,55.8844 43.1034772,63.8627 33.2676059,63.8627 M33.2676059,26.9214 C22.7127606,26.9214 14.1576303,35.4827 14.1576303,46.0438 C14.1576303,56.6038 22.7127606,65.1651 33.2676059,65.1651 C43.8224511,65.1651 52.3775814,56.6038 52.3775814,46.0438 C52.3775814,35.4827 43.8224511,26.9214 33.2676059,26.9214" id="Fill-247" fill="#004E7D"></path>
                            <path d="M33.2676059,29.75797 L33.2676059,32.62017" id="Stroke-248" stroke="#014E7D" stroke-width="1.1" stroke-linecap="round" stroke-linejoin="round"></path>
                            <path d="M44.2764821,35.02829 L43.2540879,36.05129" id="Stroke-249" stroke="#014E7D" stroke-width="1.1" stroke-linecap="round" stroke-linejoin="round"></path>
                            <path d="M22.2586197,57.05909 L23.2810138,56.03609" id="Stroke-250" stroke="#014E7D" stroke-width="1.1" stroke-linecap="round" stroke-linejoin="round"></path>
                            <path d="M44.2764821,57.05909 L43.2540879,56.03609" id="Stroke-251" stroke="#014E7D" stroke-width="1.1" stroke-linecap="round" stroke-linejoin="round"></path>
                            <path d="M22.2586197,35.02818 L23.2810138,36.05118" id="Stroke-252" stroke="#014E7D" stroke-width="1.1" stroke-linecap="round" stroke-linejoin="round"></path>
                            <path d="M39.2255252,31.6514 L38.6725529,32.9879" id="Stroke-253" stroke="#014E7D" stroke-width="1.1" stroke-linecap="round" stroke-linejoin="round"></path>
                            <path d="M27.3095765,60.43598 L27.8625489,59.09948" id="Stroke-254" stroke="#014E7D" stroke-width="1.1" stroke-linecap="round" stroke-linejoin="round"></path>
                            <path d="M47.6513721,52.00514 L46.3156637,51.45184" id="Stroke-255" stroke="#014E7D" stroke-width="1.1" stroke-linecap="round" stroke-linejoin="round"></path>
                            <path d="M18.8837296,40.08213 L20.2194381,40.63543" id="Stroke-256" stroke="#014E7D" stroke-width="1.1" stroke-linecap="round" stroke-linejoin="round"></path>
                            <path d="M47.6513721,40.08213 L46.3156637,40.63543" id="Stroke-257" stroke="#014E7D" stroke-width="1.1" stroke-linecap="round" stroke-linejoin="round"></path>
                            <path d="M18.8837296,52.00514 L20.2194381,51.45184" id="Stroke-258" stroke="#014E7D" stroke-width="1.1" stroke-linecap="round" stroke-linejoin="round"></path>
                            <path d="M39.2255252,60.43609 L38.6725529,59.09959" id="Stroke-259" stroke="#014E7D" stroke-width="1.1" stroke-linecap="round" stroke-linejoin="round"></path>
                            <path d="M27.3095765,31.6514 L27.8625489,32.9879" id="Stroke-260" stroke="#014E7D" stroke-width="1.1" stroke-linecap="round" stroke-linejoin="round"></path>
                            <path d="M41.9171702,33.09097 L41.1135464,34.29437" id="Stroke-261" stroke="#014E7D" stroke-width="1.1" stroke-linecap="round" stroke-linejoin="round"></path>
                            <path d="M24.6179316,58.99652 L25.4215554,57.79312" id="Stroke-262" stroke="#014E7D" stroke-width="1.1" stroke-linecap="round" stroke-linejoin="round"></path>
                            <path d="M46.2126547,54.69849 L45.0099674,53.89439" id="Stroke-263" stroke="#014E7D" stroke-width="1.1" stroke-linecap="round" stroke-linejoin="round"></path>
                            <path d="M20.3224471,37.38889 L21.5251344,38.19299" id="Stroke-264" stroke="#014E7D" stroke-width="1.1" stroke-linecap="round" stroke-linejoin="round"></path>
                            <path d="M36.304886,30.76491 L36.0223534,32.18391" id="Stroke-265" stroke="#014E7D" stroke-width="1.1" stroke-linecap="round" stroke-linejoin="round"></path>
                            <path d="M30.2302158,61.32247 L30.5127484,59.90347" id="Stroke-266" stroke="#014E7D" stroke-width="1.1" stroke-linecap="round" stroke-linejoin="round"></path>
                            <path d="M30.2302158,30.76491 L30.5127484,32.18391" id="Stroke-267" stroke="#014E7D" stroke-width="1.1" stroke-linecap="round" stroke-linejoin="round"></path>
                            <path d="M36.304886,61.32247 L36.0223534,59.90347" id="Stroke-268" stroke="#014E7D" stroke-width="1.1" stroke-linecap="round" stroke-linejoin="round"></path>
                            <path d="M48.5373371,49.08288 L47.1191775,48.80018" id="Stroke-269" stroke="#014E7D" stroke-width="1.1" stroke-linecap="round" stroke-linejoin="round"></path>
                            <path d="M17.9977647,43.0045 L19.4159243,43.2872" id="Stroke-270" stroke="#014E7D" stroke-width="1.1" stroke-linecap="round" stroke-linejoin="round"></path>
                            <path d="M17.9977647,49.08288 L19.4159243,48.80018" id="Stroke-271" stroke="#014E7D" stroke-width="1.1" stroke-linecap="round" stroke-linejoin="round"></path>
                            <path d="M48.5373371,43.0045 L47.1191775,43.2872" id="Stroke-272" stroke="#014E7D" stroke-width="1.1" stroke-linecap="round" stroke-linejoin="round"></path>
                            <path d="M46.2126547,37.389 L45.0099674,38.1931" id="Stroke-273" stroke="#014E7D" stroke-width="1.1" stroke-linecap="round" stroke-linejoin="round"></path>
                            <path d="M20.3224471,54.69849 L21.5251344,53.89439" id="Stroke-274" stroke="#014E7D" stroke-width="1.1" stroke-linecap="round" stroke-linejoin="round"></path>
                            <path d="M41.9171702,58.99652 L41.1135464,57.79312" id="Stroke-275" stroke="#014E7D" stroke-width="1.1" stroke-linecap="round" stroke-linejoin="round"></path>
                            <path d="M24.6179316,33.09086 L25.4215554,34.29426" id="Stroke-276" stroke="#014E7D" stroke-width="1.1" stroke-linecap="round" stroke-linejoin="round"></path>
                            <path d="M33.2674959,62.32941 L33.2674959,59.46721" id="Stroke-277" stroke="#014E7D" stroke-width="1.1" stroke-linecap="round" stroke-linejoin="round"></path>
                            <path d="M16.9915309,46.04369 L19.8520358,46.04369" id="Stroke-278" stroke="#014E7D" stroke-width="1.1" stroke-linecap="round" stroke-linejoin="round"></path>
                            <path d="M49.5435708,46.04369 L46.683066,46.04369" id="Stroke-279" stroke="#014E7D" stroke-width="1.1" stroke-linecap="round" stroke-linejoin="round"></path>
                            <polygon id="Fill-280" fill="#F2F2F2" points="33.2674959 35.02829 32.3583347 45.69829 33.2674959 46.60799 34.1766572 45.69829"></polygon>
                            <polygon id="Stroke-281" stroke="#004E7D" stroke-width="1.1" stroke-linecap="round" stroke-linejoin="round" points="33.2674959 35.02829 32.3583347 45.69829 33.2674959 46.60799 34.1766572 45.69829"></polygon>
                            <polygon id="Fill-282" fill="#004E7D" points="33.2674959 46.60788 34.1766572 45.69818 33.2674959 35.02818"></polygon>
                            <path d="M36.0092712,22.55847 C36.0092712,24.07977 34.7769015,25.31397 33.2554031,25.31397 C31.7350041,25.31397 30.501535,24.07977 30.501535,22.55847 C30.501535,21.03717 31.7350041,19.80297 33.2554031,19.80297 C34.7769015,19.80297 36.0092712,21.03717 36.0092712,22.55847" id="Fill-283" fill="#F2F2F2"></path>
                            <path d="M36.0092712,22.55847 C36.0092712,24.07977 34.7769015,25.31397 33.2554031,25.31397 C31.7350041,25.31397 30.501535,24.07977 30.501535,22.55847 C30.501535,21.03717 31.7350041,19.80297 33.2554031,19.80297 C34.7769015,19.80297 36.0092712,21.03717 36.0092712,22.55847 L36.0092712,22.55847 Z" id="Stroke-284" stroke="#004E7D" stroke-width="1.1" stroke-linecap="round" stroke-linejoin="round"></path>
                        </g>
                    </g>
                </g>
            </g>
        </g>
    </g>
</svg>