<?xml version="1.0" encoding="UTF-8" standalone="no"?>
<svg width="80px" height="92px" viewBox="0 0 80 92" version="1.1" xmlns="http://www.w3.org/2000/svg" xmlns:xlink="http://www.w3.org/1999/xlink">
    <!-- Generator: sketchtool 41.2 (35397) - http://www.bohemiancoding.com/sketch -->
    <title>04C8BA88-5F1E-4A63-B1EB-942EDFFE5C8D</title>
    <desc>Created with sketchtool.</desc>
    <defs></defs>
    <g id="Page-1" stroke="none" stroke-width="1" fill="none" fill-rule="evenodd">
        <g id="5.1-Iconography" transform="translate(-1094.000000, -287.000000)">
            <g id="Content" transform="translate(50.000000, 160.000000)">
                <g id="Group" transform="translate(449.000000, 0.000000)">
                    <g id="Group-53" transform="translate(595.846906, 127.500000)">
                        <g id="Group-13">
                            <path d="M4.37859528,19.76712 L36.5136523,0.82512 C38.2880008,-0.21878 40.4592142,-0.21878 42.2335627,0.82512 L74.5500122,19.76712 C76.9707777,21.19162 78.6033103,23.84042 78.6033103,26.70922 L78.6033103,63.27322 C78.6033103,66.14202 76.9608836,68.79082 74.5390187,70.21532 L42.2863314,90.11432 C40.5119829,91.15712 38.2825041,91.15712 36.5081555,90.11432 L4.3972842,70.21532 C1.97651873,68.79082 0.549564332,66.14202 0.549564332,63.27322 L0.549564332,26.70922 C0.549564332,23.84042 1.9578298,21.19162 4.37859528,19.76712 L4.37859528,19.76712 Z" id="Stroke-230" stroke="#014E7D" stroke-width="1.1" stroke-linecap="round" stroke-linejoin="round"></path>
                            <polyline id="Stroke-231" stroke="#014E7D" stroke-width="1.1" stroke-linecap="round" stroke-linejoin="round" points="7.41334691 53.71554 22.8866775 37.03514 34.9421336 50.03054"></polyline>
                            <polyline id="Fill-232" fill="#014E7D" points="22.8872272 37.03547 21.9824634 40.52247 19.0153217 43.32197 16.6484243 48.02447 12.6819748 50.99227 11.0725285 53.71587 7.41389658 53.71587"></polyline>
                            <polyline id="Stroke-233" stroke="#014E7D" stroke-width="1.1" stroke-linecap="round" stroke-linejoin="round" points="42.3000733 51.56812 55.7813844 37.03602 71.2558143 53.71532"></polyline>
                            <polyline id="Fill-234" fill="#014E7D" points="55.7818241 37.03547 53.9096336 40.52247 55.1365065 43.32197 52.3661482 49.22127 52.977386 50.99227 50.5885016 53.36717 40.3084935 53.36717"></polyline>
                            <polyline id="Fill-235" fill="#F2F2F2" points="18.2619381 53.71554 39.3342508 31.00054 60.4065635 53.71554"></polyline>
                            <polyline id="Stroke-236" stroke="#014E7D" stroke-width="1.1" stroke-linecap="round" stroke-linejoin="round" points="18.2619381 53.71554 39.3342508 31.00054 60.4065635 53.71554"></polyline>
                            <polyline id="Fill-238" fill="#014E7D" points="39.3344707 31.00043 35.6296661 38.68503 37.0225407 44.29833 32.6262459 49.38033 32.0194055 53.71543 18.262158 53.71543"></polyline>
                        </g>
                    </g>
                </g>
            </g>
        </g>
    </g>
</svg>