<?xml version="1.0" encoding="UTF-8" standalone="no"?>
<svg width="81px" height="93px" viewBox="0 0 81 93" version="1.1" xmlns="http://www.w3.org/2000/svg" xmlns:xlink="http://www.w3.org/1999/xlink">
    <!-- Generator: sketchtool 41.2 (35397) - http://www.bohemiancoding.com/sketch -->
    <title>CE02C9F9-9B43-404B-9B45-C563A7BF3281</title>
    <desc>Created with sketchtool.</desc>
    <defs></defs>
    <g id="Page-1" stroke="none" stroke-width="1" fill="none" fill-rule="evenodd">
        <g id="5.1-Iconography" transform="translate(-796.000000, -160.000000)">
            <g id="Content" transform="translate(50.000000, 160.000000)">
                <g id="Group" transform="translate(449.000000, 0.000000)">
                    <g id="Group-24" transform="translate(297.923453, 1.003288)">
                        <g id="Group-4">
                            <path d="M4.39024837,19.7867 L36.5319015,0.8447 C38.3051507,-0.1992 40.4796621,-0.1992 42.2540106,0.8447 L74.560566,19.7867 C76.9813314,21.2112 78.6039699,23.86 78.6039699,26.7288 L78.6039699,63.2928 C78.6039699,66.1616 76.9725366,68.8104 74.5506718,70.2349 L42.3034813,90.1339 C40.5302321,91.1767 38.302952,91.1767 36.5286034,90.1339 L4.40783795,70.2349 C1.98597313,68.8104 0.550223941,66.1616 0.550223941,63.2928 L0.550223941,26.7288 C0.550223941,23.86 1.9694829,21.2112 4.39024837,19.7867 L4.39024837,19.7867 Z" id="Stroke-1" stroke="#014E7D" stroke-width="1.1" stroke-linecap="round" stroke-linejoin="round"></path>
                            <path d="M42.3918689,33.94975 L36.3729357,33.94975 C35.7660953,33.94975 35.2735871,34.44255 35.2735871,35.04975 L35.2735871,66.07855 C35.2735871,66.27875 35.3285546,66.47455 35.430794,66.64505 L38.4397109,71.65885 C38.638693,71.98995 38.9970806,72.19235 39.382952,72.19235 C39.7688233,72.19235 40.1261116,71.98995 40.3250936,71.65885 L43.3340106,66.64505 C43.4373493,66.47455 43.4912174,66.27875 43.4912174,66.07855 L43.4912174,35.04975 C43.4912174,34.44255 42.9987093,33.94975 42.3918689,33.94975 M42.3918689,35.04975 L42.3918689,66.07855 L39.382952,71.09235 L36.3729357,66.07855 L36.3729357,35.04975 L42.3918689,35.04975" id="Fill-3" fill="#014E7D"></path>
                            <path d="M39.3826221,34.52274 L39.3826221,71.09224" id="Stroke-5" stroke="#014E7D" stroke-width="1.1" stroke-linecap="round" stroke-linejoin="round"></path>
                            <path d="M37.8333103,59.53839 L37.8333103,64.87999" id="Stroke-7" stroke="#014E7D" stroke-width="1.1" stroke-linecap="round" stroke-linejoin="round"></path>
                            <path d="M37.4258917,25.42057 L41.331877,23.99827" id="Stroke-9" stroke="#014E7D" stroke-width="1.1" stroke-linecap="round" stroke-linejoin="round"></path>
                            <path d="M37.4258917,27.73068 L41.331877,26.30838" id="Stroke-11" stroke="#014E7D" stroke-width="1.1" stroke-linecap="round" stroke-linejoin="round"></path>
                            <path d="M37.4258917,30.0409 L41.331877,28.6186" id="Stroke-13" stroke="#014E7D" stroke-width="1.1" stroke-linecap="round" stroke-linejoin="round"></path>
                            <path d="M37.4258917,32.35112 L41.331877,30.92882" id="Stroke-15" stroke="#014E7D" stroke-width="1.1" stroke-linecap="round" stroke-linejoin="round"></path>
                            <polygon id="Stroke-17" stroke="#014E7D" stroke-width="1.1" stroke-linecap="round" stroke-linejoin="round" points="37.3041938 34.5223 41.4608306 34.5223 41.4608306 23.1439 37.3041938 23.1439"></polygon>
                            <path d="M41.272952,19.97469 L37.4845969,19.97469 C36.6095155,19.97469 35.9004357,20.68419 35.9004357,21.55979 C35.9004357,22.43429 36.6095155,23.14489 37.4845969,23.14489 L41.272952,23.14489 C42.1480334,23.14489 42.8571132,22.43429 42.8571132,21.55979 C42.8571132,20.68419 42.1480334,19.97469 41.272952,19.97469 L41.272952,19.97469 Z" id="Stroke-19" stroke="#014E7D" stroke-width="1.1" stroke-linecap="round" stroke-linejoin="round"></path>
                            <path d="M29.7568363,35.35654 C29.5853379,35.35654 29.4501181,35.20584 29.472105,35.03644 C29.6293119,33.78354 30.6978787,32.81554 31.9918119,32.81554 L46.7736523,32.81554 C48.0675855,32.81554 49.1361523,33.78354 49.2933591,35.03644 C49.3153461,35.20584 49.1801262,35.35654 49.0086279,35.35654 L29.7568363,35.35654 Z" id="Fill-20" fill="#014E7D"></path>
                            <path d="M29.7568363,35.35654 C29.5853379,35.35654 29.4501181,35.20584 29.472105,35.03644 C29.6293119,33.78354 30.6978787,32.81554 31.9918119,32.81554 L46.7736523,32.81554 C48.0675855,32.81554 49.1361523,33.78354 49.2933591,35.03644 C49.3153461,35.20584 49.1801262,35.35654 49.0086279,35.35654 L29.7568363,35.35654 L29.7568363,35.35654 Z" id="Stroke-21" stroke="#F2F2F2" stroke-width="1.1"></path>
                        </g>
                    </g>
                </g>
            </g>
        </g>
    </g>
</svg>