<?xml version="1.0" encoding="UTF-8" standalone="no"?>
<svg width="81px" height="93px" viewBox="0 0 81 93" version="1.1" xmlns="http://www.w3.org/2000/svg" xmlns:xlink="http://www.w3.org/1999/xlink">
    <!-- Generator: sketchtool 41.2 (35397) - http://www.bohemiancoding.com/sketch -->
    <title>10E3D80B-1DBA-4E22-BDFA-B48C8FE60965</title>
    <desc>Created with sketchtool.</desc>
    <defs>
        <path d="M0.42631901,0.74173 C0.494874202,1.66571141 0.631129335,2.57082708 0.830138607,3.45213 L36.9676627,3.45213 C37.166672,2.57082708 37.3029271,1.66571141 37.3714823,0.74173 L0.42631901,0.74173 L0.42631901,0.74173 Z" id="path-1"></path>
    </defs>
    <g id="Page-1" stroke="none" stroke-width="1" fill="none" fill-rule="evenodd">
        <g id="5.1-Iconography" transform="translate(-796.000000, -286.000000)">
            <g id="Content" transform="translate(50.000000, 160.000000)">
                <g id="Group" transform="translate(449.000000, 0.000000)">
                    <g id="Group-10" transform="translate(298.000000, 127.000000)">
                        <path d="M4.31370114,20.01456 L36.4553542,1.07256 C38.2286034,0.02866 40.4031148,0.02866 42.1774634,1.07256 L74.4840187,20.01456 C76.9047842,21.43906 78.5274226,24.08786 78.5274226,26.95666 L78.5274226,63.52066 C78.5274226,66.38946 76.8959894,69.03826 74.4741246,70.46276 L42.226934,90.36176 C40.4536849,91.40456 38.2264047,91.40456 36.4520562,90.36176 L4.33129072,70.46276 C1.9094259,69.03826 0.47367671,66.38946 0.47367671,63.52066 L0.47367671,26.95666 C0.47367671,24.08786 1.89293567,21.43906 4.31370114,20.01456 L4.31370114,20.01456 Z" id="Stroke-85" stroke="#014E7D" stroke-width="1.1" stroke-linecap="round" stroke-linejoin="round"></path>
                        <g id="Group-89" transform="translate(25.208469, 39.199000)">
                            <mask id="mask-2" fill="white">
                                <use xlink:href="#path-1"></use>
                            </mask>
                            <g id="Clip-88"></g>
                            <path d="M44.6725774,0.74173 C38.9141897,2.38293 29.5158591,3.45213 18.8994503,3.45213 C8.28194218,3.45213 -1.11638844,2.38293 -6.87477606,0.74173" id="Stroke-87" stroke="#014E7D" stroke-width="16.5" stroke-linecap="round" stroke-linejoin="round" mask="url(#mask-2)"></path>
                        </g>
                        <polygon id="Stroke-90" stroke="#014E7D" stroke-width="1.1" stroke-linecap="round" stroke-linejoin="round" points="14.312386 47.99152 23.0664984 47.99152"></polygon>
                        <path d="M9.71238192,43.89424 L21.1774878,43.89424" id="Stroke-92" stroke="#014E7D" stroke-width="1.1" stroke-linecap="round" stroke-linejoin="round"></path>
                        <path d="M11.6011726,39.79696 L20.355285,39.79696" id="Stroke-94" stroke="#014E7D" stroke-width="1.1" stroke-linecap="round" stroke-linejoin="round"></path>
                        <path d="M17.7197068,27.8745 L23.9859935,27.8745" id="Stroke-96" stroke="#014E7D" stroke-width="1.1" stroke-linecap="round" stroke-linejoin="round"></path>
                        <path d="M20.0073412,23.77722 L27.6291246,23.77722" id="Stroke-98" stroke="#014E7D" stroke-width="1.1" stroke-linecap="round" stroke-linejoin="round"></path>
                        <path d="M26.5857329,69.65261 L33.5720928,69.65261" id="Stroke-100" stroke="#014E7D" stroke-width="1.1" stroke-linecap="round" stroke-linejoin="round"></path>
                        <path d="M24.1483673,65.55533 L31.1347272,65.55533" id="Stroke-102" stroke="#014E7D" stroke-width="1.1" stroke-linecap="round" stroke-linejoin="round"></path>
                        <path d="M62.6310627,38.54912 C62.6310627,48.78572 54.3375774,57.08412 44.1070399,57.08412 C33.8776018,57.08412 25.5841164,48.78572 25.5841164,38.54912 C25.5841164,28.31252 33.8776018,20.01412 44.1070399,20.01412 C54.3375774,20.01412 62.6310627,28.31252 62.6310627,38.54912 L62.6310627,38.54912 Z" id="Stroke-104" stroke="#014E7D" stroke-width="1.1" stroke-linecap="round" stroke-linejoin="round"></path>
                        <path d="M44.1075896,71.70125 L44.1075896,71.70125 C41.4053909,71.70125 39.2143893,69.50895 39.2143893,66.80515 L39.2143893,65.37515 L49.0007899,65.37515 L49.0007899,66.80515 C49.0007899,69.50895 46.8097883,71.70125 44.1075896,71.70125 L44.1075896,71.70125 Z" id="Stroke-106" stroke="#014E7D" stroke-width="1.1" stroke-linecap="round" stroke-linejoin="round"></path>
                        <path d="M46.5610057,65.37548 L57.2005008,51.66068" id="Stroke-108" stroke="#014E7D" stroke-width="1.1" stroke-linecap="round" stroke-linejoin="round"></path>
                        <path d="M41.6540635,65.37548 L31.0145684,51.66068" id="Stroke-110" stroke="#014E7D" stroke-width="1.1" stroke-linecap="round" stroke-linejoin="round"></path>
                        <path d="M43.0247313,65.37548 L40.0312052,56.63268" id="Stroke-112" stroke="#014E7D" stroke-width="1.1" stroke-linecap="round" stroke-linejoin="round"></path>
                        <path d="M44.1075896,65.37548 L44.1075896,57.08368" id="Stroke-114" stroke="#014E7D" stroke-width="1.1" stroke-linecap="round" stroke-linejoin="round"></path>
                        <path d="M45.1903379,65.37548 L48.183864,56.63268" id="Stroke-116" stroke="#014E7D" stroke-width="1.1" stroke-linecap="round" stroke-linejoin="round"></path>
                    </g>
                </g>
            </g>
        </g>
    </g>
</svg>