<?xml version="1.0" encoding="UTF-8" standalone="no"?>
<svg width="80px" height="93px" viewBox="0 0 80 93" version="1.1" xmlns="http://www.w3.org/2000/svg" xmlns:xlink="http://www.w3.org/1999/xlink">
    <!-- Generator: sketchtool 41.2 (35397) - http://www.bohemiancoding.com/sketch -->
    <title>98E9FA04-64EF-4C8E-AC8C-877F5FC29C9B</title>
    <desc>Created with sketchtool.</desc>
    <defs></defs>
    <g id="Page-1" stroke="none" stroke-width="1" fill="none" fill-rule="evenodd">
        <g id="5.1-Iconography" transform="translate(-499.000000, -287.000000)">
            <g id="Content" transform="translate(50.000000, 160.000000)">
                <g id="Group" transform="translate(449.000000, 0.000000)">
                    <g id="Group-48" transform="translate(0.000000, 127.600000)">
                        <g id="Group-8">
                            <path d="M4.39024837,19.86226 L36.5319015,0.92026 C38.3051507,-0.12364 40.4796621,-0.12364 42.2540106,0.92026 L74.560566,19.86226 C76.9813314,21.28676 78.6039699,23.93556 78.6039699,26.80436 L78.6039699,63.36836 C78.6039699,66.23716 76.9725366,68.88596 74.5506718,70.31046 L42.3034813,90.20946 C40.5302321,91.25226 38.302952,91.25226 36.5286034,90.20946 L4.40783795,70.31046 C1.98597313,68.88596 0.550223941,66.23716 0.550223941,63.36836 L0.550223941,26.80436 C0.550223941,23.93556 1.9694829,21.28676 4.39024837,19.86226 L4.39024837,19.86226 Z" id="Stroke-63" stroke="#014E7D" stroke-width="1.1" stroke-linecap="round" stroke-linejoin="round"></path>
                            <path d="M51.8537419,29.48341 L19.3163233,48.28021 L26.863351,61.35921 L59.4007695,42.56351 C63.0110301,40.47791 64.2477972,35.85901 62.1634324,32.24771 L62.1634324,32.24771 C60.0790676,28.63531 55.4640024,27.39781 51.8537419,29.48341 L51.8537419,29.48341 Z" id="Stroke-64" stroke="#014E7D" stroke-width="1.1" stroke-linecap="round" stroke-linejoin="round"></path>
                            <polygon id="Fill-65" fill="#014E7D" points="41.9564169 35.2011 43.139316 34.518 50.6863436 47.5981 49.5034446 48.2812"></polygon>
                            <polygon id="Stroke-66" stroke="#014E7D" stroke-width="1.1" stroke-linecap="round" stroke-linejoin="round" points="15.5399511 49.71142 18.9259446 47.75562 27.1215879 61.96102 23.7366938 63.91682"></polygon>
                            <path d="M33.8335505,35.91753 L35.5540309,38.89963" id="Stroke-67" stroke="#014E7D" stroke-width="1.1" stroke-linecap="round" stroke-linejoin="round"></path>
                            <path d="M44.8219788,54.96139 L43.1014984,51.97929" id="Stroke-68" stroke="#014E7D" stroke-width="1.1" stroke-linecap="round" stroke-linejoin="round"></path>
                            <path d="M49.0912989,39.79921 C51.1756637,43.41051 55.7907288,44.64801 59.4009894,42.56351 C63.0101507,40.47791 64.2469178,35.85901 62.1636523,32.24771 C60.0792875,28.63531 55.463123,27.39781 51.8539617,29.48341 C48.2437011,31.56901 47.006934,36.18681 49.0912989,39.79921 L49.0912989,39.79921 Z" id="Stroke-69" stroke="#014E7D" stroke-width="1.1" stroke-linecap="round" stroke-linejoin="round"></path>
                            <path d="M58.4862215,40.97797 C61.2214007,39.39837 62.1580456,35.89927 60.5793811,33.16247" id="Stroke-70" stroke="#014E7D" stroke-width="1.1" stroke-linecap="round" stroke-linejoin="round"></path>
                            <path d="M45.2974471,48.16207 L27.5143852,58.43497" id="Stroke-71" stroke="#014E7D" stroke-width="1.1" stroke-linecap="round" stroke-linejoin="round"></path>
                            <path d="M25.305794,61.19685 L23.9832777,61.96135" id="Stroke-72" stroke="#014E7D" stroke-width="1.1" stroke-linecap="round" stroke-linejoin="round"></path>
                            <polygon id="Fill-73" fill="#014E7D" points="30.2226303 39.03581 38.3380212 34.34761 29.9796743 19.86171 21.8642834 24.54991"></polygon>
                            <path d="M32.0690961,23.48357 L23.9537052,28.17177" id="Stroke-74" stroke="#F2F2F2" stroke-width="1.1" stroke-linecap="round" stroke-linejoin="round"></path>
                            <path d="M34.1587378,27.10499 L26.0433469,31.79319" id="Stroke-75" stroke="#F2F2F2" stroke-width="1.1" stroke-linecap="round" stroke-linejoin="round"></path>
                            <path d="M36.2482695,30.7263 L28.1328787,35.4145" id="Stroke-76" stroke="#F2F2F2" stroke-width="1.1" stroke-linecap="round" stroke-linejoin="round"></path>
                            <path d="M27.2746173,21.42492 L35.6329642,35.91082" id="Stroke-77" stroke="#F2F2F2" stroke-width="1.1" stroke-linecap="round" stroke-linejoin="round"></path>
                            <path d="M24.5696702,22.98769 L32.9280171,37.47359" id="Stroke-78" stroke="#F2F2F2" stroke-width="1.1" stroke-linecap="round" stroke-linejoin="round"></path>
                            <polygon id="Fill-79" fill="#014E7D" points="48.8569178 71.33049 56.9723086 66.64229 48.6139617 52.15639 40.4985708 56.84459"></polygon>
                            <path d="M50.7033836,55.77814 L42.5879927,60.46634" id="Stroke-80" stroke="#F2F2F2" stroke-width="1.1" stroke-linecap="round" stroke-linejoin="round"></path>
                            <path d="M52.7930252,59.39967 L44.6776344,64.08787" id="Stroke-81" stroke="#F2F2F2" stroke-width="1.1" stroke-linecap="round" stroke-linejoin="round"></path>
                            <path d="M54.882557,63.02098 L46.7671661,67.70918" id="Stroke-82" stroke="#F2F2F2" stroke-width="1.1" stroke-linecap="round" stroke-linejoin="round"></path>
                            <path d="M45.9089047,53.7196 L54.2672516,68.2055" id="Stroke-83" stroke="#F2F2F2" stroke-width="1.1" stroke-linecap="round" stroke-linejoin="round"></path>
                            <path d="M43.2040676,55.28226 L51.5624145,69.76816" id="Stroke-84" stroke="#F2F2F2" stroke-width="1.1" stroke-linecap="round" stroke-linejoin="round"></path>
                        </g>
                    </g>
                </g>
            </g>
        </g>
    </g>
</svg>