<?xml version="1.0" encoding="UTF-8" standalone="no"?>
<svg width="80px" height="93px" viewBox="0 0 80 93" version="1.1" xmlns="http://www.w3.org/2000/svg" xmlns:xlink="http://www.w3.org/1999/xlink">
    <!-- Generator: sketchtool 41.2 (35397) - http://www.bohemiancoding.com/sketch -->
    <title>058A00FD-CD0A-4140-B818-FB788EE50D42</title>
    <desc>Created with sketchtool.</desc>
    <defs></defs>
    <g id="Page-1" stroke="none" stroke-width="1" fill="none" fill-rule="evenodd" stroke-linecap="round" stroke-linejoin="round">
        <g id="5.1-Iconography" transform="translate(-1094.000000, -411.000000)" stroke-width="1.1" stroke="#014E7D">
            <g id="Content" transform="translate(50.000000, 160.000000)">
                <g id="Group" transform="translate(449.000000, 0.000000)">
                    <g id="Group-58" transform="translate(595.846906, 251.900000)">
                        <g id="Group-20">
                            <path d="M4.39024837,20.31755 L36.5319015,1.37555 C38.3051507,0.33165 40.4796621,0.33165 42.2540106,1.37555 L74.560566,20.31755 C76.9813314,21.74205 78.6039699,24.39085 78.6039699,27.25965 L78.6039699,63.82365 C78.6039699,66.69245 76.9725366,69.34125 74.5506718,70.76575 L42.3034813,90.66475 C40.5302321,91.70755 38.302952,91.70755 36.5286034,90.66475 L4.40783795,70.76575 C1.98597313,69.34125 0.550223941,66.69245 0.550223941,63.82365 L0.550223941,27.25965 C0.550223941,24.39085 1.9694829,21.74205 4.39024837,20.31755 L4.39024837,20.31755 Z" id="Stroke-210"></path>
                            <polygon id="Stroke-211" points="17.3678379 33.0209 39.3581067 20.317 61.3472761 33.0209 61.3472761 58.4276 39.3581067 71.1315 17.3678379 58.4276"></polygon>
                            <polygon id="Stroke-212" points="41.9773046 29.74334 43.0095928 22.42724 39.357557 20.31744 35.7066205 22.42724 36.7389088 29.74334"></polygon>
                            <polygon id="Stroke-213" points="41.1306963 34.79531 37.5852972 34.79531 38.432895 40.79361 40.2841979 40.79361"></polygon>
                            <polygon id="Stroke-214" points="36.7381393 61.70516 35.705851 69.02126 39.3578868 71.13106 43.0088233 69.02236 41.976535 61.70516"></polygon>
                            <polygon id="Stroke-215" points="37.5847476 56.65319 41.1301466 56.65319 40.2825489 50.65489 38.4312459 50.65489"></polygon>
                            <polygon id="Stroke-216" points="26.8358673 35.46378 21.0203135 30.91088 17.3682777 33.02068 17.3682777 37.23918 24.2172191 40.00238"></polygon>
                            <polygon id="Stroke-217" points="30.7851669 38.72341 29.0130171 41.79571 34.6273901 44.06061 35.5530415 42.45571"></polygon>
                            <polygon id="Stroke-218" points="51.8795765 55.98483 57.6951303 60.53773 61.3471661 58.42793 61.3471661 54.20943 54.4982248 51.44623"></polygon>
                            <polygon id="Stroke-219" points="47.9302769 52.72509 49.7024267 49.65279 44.0880537 47.38789 43.1624023 48.99279"></polygon>
                            <polygon id="Stroke-220" points="24.2161197 51.44469 17.3682777 54.20789 17.3682777 58.42749 21.0192142 60.53729 26.8347679 55.98329"></polygon>
                            <polygon id="Stroke-221" points="29.0120277 49.65224 30.7841775 52.72454 35.5531515 48.99114 34.6264007 47.38734"></polygon>
                            <polygon id="Stroke-222" points="54.4992142 40.00392 61.3470562 37.24072 61.3470562 33.02112 57.6961197 30.91132 51.880566 35.46532"></polygon>
                            <polygon id="Stroke-223" points="49.7033062 41.79626 47.9311564 38.72396 43.1621824 42.45736 44.0889332 44.06116"></polygon>
                            <path d="M32.5741368,33.96789 L29.9950651,29.49749" id="Stroke-224"></path>
                            <path d="M46.141307,33.96789 L48.7203787,29.49749" id="Stroke-225"></path>
                            <path d="M32.5741368,57.48072 L29.9950651,61.95112" id="Stroke-226"></path>
                            <path d="M46.141307,57.48072 L48.7203787,61.95112" id="Stroke-227"></path>
                            <path d="M25.7906067,45.72425 L20.6324634,45.72425" id="Stroke-228"></path>
                            <path d="M52.9248371,45.72425 L58.0829805,45.72425" id="Stroke-229"></path>
                        </g>
                    </g>
                </g>
            </g>
        </g>
    </g>
</svg>