<?xml version="1.0" encoding="UTF-8" standalone="no"?>
<svg width="80px" height="93px" viewBox="0 0 80 93" version="1.1" xmlns="http://www.w3.org/2000/svg" xmlns:xlink="http://www.w3.org/1999/xlink">
    <!-- Generator: sketchtool 41.2 (35397) - http://www.bohemiancoding.com/sketch -->
    <title>1506CFC2-A794-490D-B4F2-D1020E24AFF2</title>
    <desc>Created with sketchtool.</desc>
    <defs>
        <path d="M1.56788237,0.62392 C1.00192516,1.93256299 0.572698021,3.28620817 0.280200949,4.66312 L3.40391287,4.66312 L3.40391287,0.62392 L1.56788237,0.62392 L1.56788237,0.62392 Z" id="path-1"></path>
        <path d="M1.00040034,0.56551 C0.877128958,1.90891394 0.88029319,3.26175648 1.00989304,4.60471 L4.54437704,4.60471 L4.54437704,0.56551 L1.00040034,0.56551 L1.00040034,0.56551 Z" id="path-3"></path>
        <path d="M0.39752443,3.68020227 C1.77359778,3.38758431 3.12644145,2.95819869 4.43433225,2.3920454 L4.43433225,0.55495 L0.39752443,0.55495 L0.39752443,3.68020227 L0.39752443,3.68020227 Z" id="path-5"></path>
        <path d="M0.455899837,4.05012291 C1.79803458,4.17974395 3.15007709,4.18288121 4.49270765,4.0595347 L4.49270765,0.51381 L0.455899837,0.51381 L0.455899837,4.05012291 L0.455899837,4.05012291 Z" id="path-7"></path>
    </defs>
    <g id="Page-1" stroke="none" stroke-width="1" fill="none" fill-rule="evenodd">
        <g id="5.1-Iconography" transform="translate(-499.000000, -540.000000)">
            <g id="Content" transform="translate(50.000000, 160.000000)">
                <g id="Group" transform="translate(449.000000, 0.000000)">
                    <g id="Group-59" transform="translate(0.000000, 379.500000)">
                        <g id="Page-1">
                            <g id="Group-22">
                                <g id="Group-7" transform="translate(0.000000, 0.654170)">
                                    <path d="M4.39024837,20.72037 L36.5319015,1.77837 C38.3051507,0.73447 40.4796621,0.73447 42.2540106,1.77837 L74.560566,20.72037 C76.9813314,22.14487 78.6039699,24.79367 78.6039699,27.66247 L78.6039699,64.22647 C78.6039699,67.09527 76.9725366,69.74407 74.5506718,71.16857 L42.3034813,91.06757 C40.5302321,92.11037 38.302952,92.11037 36.5286034,91.06757 L4.40783795,71.16857 C1.98597313,69.74407 0.550223941,67.09527 0.550223941,64.22647 L0.550223941,27.66247 C0.550223941,24.79367 1.9694829,22.14487 4.39024837,20.72037 L4.39024837,20.72037 Z" id="Stroke-1" stroke="#014E7D" stroke-width="1.1" stroke-linecap="round" stroke-linejoin="round"></path>
                                    <path d="M56.1350448,26.99257 C64.4933917,35.35587 64.4933917,48.91447 56.1350448,57.27777 C47.7766979,65.63997 34.2261279,65.63997 25.8677809,57.27777 C17.5105334,48.91447 17.5105334,35.35587 25.8677809,26.99257 C34.2261279,18.62927 47.7766979,18.62927 56.1350448,26.99257" id="Fill-3" fill="#F2F2F2"></path>
                                    <path d="M56.1350448,26.99257 C64.4933917,35.35587 64.4933917,48.91447 56.1350448,57.27777 C47.7766979,65.63997 34.2261279,65.63997 25.8677809,57.27777 C17.5105334,48.91447 17.5105334,35.35587 25.8677809,26.99257 C34.2261279,18.62927 47.7766979,18.62927 56.1350448,26.99257 L56.1350448,26.99257 Z" id="Stroke-5" stroke="#004E7D" stroke-width="1.1" stroke-linecap="round" stroke-linejoin="round"></path>
                                </g>
                                <g id="Group-44" transform="translate(18.688925, 33.654170)">
                                    <g id="Group-11" transform="translate(1.099349, 0.000000)">
                                        <mask id="mask-2" fill="white">
                                            <use xlink:href="#path-1"></use>
                                        </mask>
                                        <g id="Clip-9"></g>
                                        <path d="M3.40391287,0.62392 L-0.632894951,4.66312" id="Fill-8" fill="#FFFFFF" mask="url(#mask-2)"></path>
                                        <path d="M3.40391287,0.62392 L-0.632894951,4.66312" id="Stroke-10" stroke="#004E7D" stroke-width="2.2" stroke-linecap="round" stroke-linejoin="round" mask="url(#mask-2)"></path>
                                    </g>
                                    <g id="Group-15" transform="translate(6.596091, 19.800000)">
                                        <path d="M4.78832248,0.26972 L0.751514658,4.30892" id="Fill-12" fill="#FFFFFF"></path>
                                        <path d="M4.78832248,0.26972 L0.751514658,4.30892" id="Stroke-14" stroke="#004E7D" stroke-width="2.2" stroke-linecap="round" stroke-linejoin="round"></path>
                                    </g>
                                    <g id="Group-19" transform="translate(4.298046, 16.500000)">
                                        <path d="M4.04359121,0.03157 L0.00678338762,4.07077" id="Fill-16" fill="#FFFFFF"></path>
                                        <path d="M4.04359121,0.03157 L0.00678338762,4.07077" id="Stroke-18" stroke="#004E7D" stroke-width="2.2" stroke-linecap="round" stroke-linejoin="round"></path>
                                    </g>
                                    <g id="Group-23" transform="translate(1.099349, 12.100000)">
                                        <path d="M4.93794381,0.15444 L0.901135993,4.19364" id="Fill-20" fill="#FFFFFF"></path>
                                        <path d="M4.93794381,0.15444 L0.901135993,4.19364" id="Stroke-22" stroke="#004E7D" stroke-width="2.2" stroke-linecap="round" stroke-linejoin="round"></path>
                                    </g>
                                    <g id="Group-27" transform="translate(0.000000, 6.600000)">
                                        <mask id="mask-4" fill="white">
                                            <use xlink:href="#path-3"></use>
                                        </mask>
                                        <g id="Clip-25"></g>
                                        <path d="M4.54437704,0.56551 L0.507569218,4.60471" id="Fill-24" fill="#FFFFFF" mask="url(#mask-4)"></path>
                                        <path d="M4.54437704,0.56551 L0.507569218,4.60471" id="Stroke-26" stroke="#004E7D" stroke-width="2.2" stroke-linecap="round" stroke-linejoin="round" mask="url(#mask-4)"></path>
                                    </g>
                                    <g id="Group-31" transform="translate(26.384365, 26.400000)">
                                        <mask id="mask-6" fill="white">
                                            <use xlink:href="#path-5"></use>
                                        </mask>
                                        <g id="Clip-29"></g>
                                        <path d="M4.43433225,0.55495 L0.39752443,4.59415" id="Fill-28" fill="#FFFFFF" mask="url(#mask-6)"></path>
                                        <path d="M4.43433225,0.55495 L0.39752443,4.59415" id="Stroke-30" stroke="#004E7D" stroke-width="2.2" stroke-linecap="round" stroke-linejoin="round" mask="url(#mask-6)"></path>
                                    </g>
                                    <g id="Group-35" transform="translate(9.894137, 23.100000)">
                                        <path d="M5.02633143,0.0143 L0.989523616,4.0535" id="Fill-32" fill="#FFFFFF"></path>
                                        <path d="M5.02633143,0.0143 L0.989523616,4.0535" id="Stroke-34" stroke="#004E7D" stroke-width="2.2" stroke-linecap="round" stroke-linejoin="round"></path>
                                    </g>
                                    <g id="Group-39" transform="translate(14.291531, 25.300000)">
                                        <path d="M4.9035342,0.12001 L0.866726384,4.15921" id="Fill-36" fill="#FFFFFF"></path>
                                        <path d="M4.9035342,0.12001 L0.866726384,4.15921" id="Stroke-38" stroke="#004E7D" stroke-width="2.2" stroke-linecap="round" stroke-linejoin="round"></path>
                                    </g>
                                    <g id="Group-43" transform="translate(19.788274, 26.400000)">
                                        <mask id="mask-8" fill="white">
                                            <use xlink:href="#path-7"></use>
                                        </mask>
                                        <g id="Clip-41"></g>
                                        <path d="M4.49270765,0.51381 L0.455899837,4.55301" id="Fill-40" fill="#FFFFFF" mask="url(#mask-8)"></path>
                                        <path d="M4.49270765,0.51381 L0.455899837,4.55301" id="Stroke-42" stroke="#004E7D" stroke-width="2.2" stroke-linecap="round" stroke-linejoin="round" mask="url(#mask-8)"></path>
                                    </g>
                                </g>
                                <path d="M40.38182,24.92699 C50.2407777,24.92699 58.2330415,32.92399 58.2330415,42.78879" id="Stroke-45" stroke="#014E7D" stroke-width="3.3" stroke-linecap="round" stroke-linejoin="round"></path>
                                <path d="M58.5063396,60.27802 C48.8529601,69.93712 33.2026344,69.93712 23.5492549,60.27802 C13.8969748,50.61892 13.8969748,34.95932 23.5492549,25.30022" id="Stroke-47" stroke="#014E7D" stroke-width="1.1" stroke-linecap="round" stroke-linejoin="round"></path>
                                <path d="M41.0030619,67.52207 L41.0030619,73.29487" id="Stroke-49" stroke="#014E7D" stroke-width="2.2" stroke-linecap="round" stroke-linejoin="round"></path>
                                <path d="M25.9130741,27.66544 L21.5596539,23.30944" id="Stroke-51" stroke="#014E7D" stroke-width="1.1" stroke-linecap="round" stroke-linejoin="round"></path>
                                <path d="M60.6187378,62.39167 L56.2653176,58.03567" id="Stroke-53" stroke="#014E7D" stroke-width="1.1" stroke-linecap="round" stroke-linejoin="round"></path>
                                <path d="M36.7969544,73.29443 L45.2091694,73.29443" id="Stroke-55" stroke="#014E7D" stroke-width="1.1" stroke-linecap="round" stroke-linejoin="round"></path>
                            </g>
                        </g>
                    </g>
                </g>
            </g>
        </g>
    </g>
</svg>