<?xml version="1.0" encoding="UTF-8" standalone="no"?>
<svg width="81px" height="93px" viewBox="0 0 81 93" version="1.1" xmlns="http://www.w3.org/2000/svg" xmlns:xlink="http://www.w3.org/1999/xlink">
    <!-- Generator: sketchtool 41.2 (35397) - http://www.bohemiancoding.com/sketch -->
    <title>468ABE6D-EEB6-4F9F-A544-8E36EFE19259</title>
    <desc>Created with sketchtool.</desc>
    <defs></defs>
    <g id="Page-1" stroke="none" stroke-width="1" fill="none" fill-rule="evenodd">
        <g id="5.1-Iconography" transform="translate(-647.000000, -160.000000)">
            <g id="Content" transform="translate(50.000000, 160.000000)">
                <g id="Group" transform="translate(449.000000, 0.000000)">
                    <g id="Group-23" transform="translate(148.961726, 0.003288)">
                        <g id="Group-3">
                            <path d="M4.39024837,20.38146 L36.5319015,1.43946 C38.3051507,0.39556 40.4796621,0.39556 42.2540106,1.43946 L74.560566,20.38146 C76.9813314,21.80596 78.6039699,24.45476 78.6039699,27.32246 L78.6039699,63.88756 C78.6039699,66.75636 76.9725366,69.40516 74.5506718,70.82966 L42.3034813,90.72866 C40.5302321,91.77146 38.302952,91.77146 36.5286034,90.72866 L4.40783795,70.82966 C1.98597313,69.40516 0.550223941,66.75636 0.550223941,63.88756 L0.550223941,27.32246 C0.550223941,24.45476 1.9694829,21.80596 4.39024837,20.38146 L4.39024837,20.38146 Z" id="Stroke-434" stroke="#014E7D" stroke-width="1.1" stroke-linecap="round" stroke-linejoin="round"></path>
                            <polygon id="Fill-436" fill="#014E7D" points="50.9603013 65.505 51.5451547 65.505 51.5451547 47.0954 50.9603013 47.0954"></polygon>
                            <polygon id="Fill-438" fill="#014E7D" points="27.170399 65.505 27.7552524 65.505 27.7552524 47.0954 27.170399 47.0954"></polygon>
                            <path d="M18.0978054,37.12346 L60.6173086,37.12346" id="Stroke-439" stroke="#014E7D" stroke-width="1.1" stroke-linecap="round" stroke-linejoin="round"></path>
                            <path d="M31.665965,43.96161 L23.2581474,40.20071" id="Stroke-440" stroke="#F2F2F2" stroke-width="7.7" stroke-linecap="round" stroke-linejoin="round"></path>
                            <path d="M31.665965,43.96161 L23.2581474,40.20071" id="Stroke-441" stroke="#014E7D" stroke-width="1.1" stroke-linecap="round" stroke-linejoin="round"></path>
                            <path d="M47.0493689,43.96161 L55.4571865,40.20071" id="Stroke-442" stroke="#F2F2F2" stroke-width="7.7" stroke-linecap="round" stroke-linejoin="round"></path>
                            <path d="M47.0493689,43.96161 L55.4571865,40.20071" id="Stroke-443" stroke="#014E7D" stroke-width="1.1" stroke-linecap="round" stroke-linejoin="round"></path>
                            <path d="M54.5740798,31.07643 L24.1408143,31.07643 C20.8031922,31.07643 18.0976954,33.78353 18.0976954,37.12313 L21.9805945,47.09573 L56.7342997,47.09573 L60.6171987,37.12313 C60.6171987,33.78353 57.911702,31.07643 54.5740798,31.07643 L54.5740798,31.07643 Z" id="Stroke-444" stroke="#014E7D" stroke-width="1.1" stroke-linecap="round" stroke-linejoin="round"></path>
                            <polygon id="Fill-445" fill="#014E7D" points="18.0985749 67.6291 23.2589169 67.6291 23.2589169 67.1517 18.0985749 67.1517"></polygon>
                            <polygon id="Fill-446" fill="#014E7D" points="55.4236564 67.6291 60.5839984 67.6291 60.5839984 67.1517 55.4236564 67.1517"></polygon>
                            <path d="M57.3012337,37.12346 L60.6179682,37.12346 C60.6179682,36.15766 60.3860057,35.24906 59.9836441,34.43946 L57.3012337,37.12346 Z" id="Fill-447" fill="#004E7D"></path>
                            <path d="M57.3012337,37.12346 L60.6179682,37.12346 C60.6179682,36.15766 60.3860057,35.24906 59.9836441,34.43946 L57.3012337,37.12346 L57.3012337,37.12346 Z" id="Stroke-448" stroke="#004E7D" stroke-width="1.1" stroke-linecap="round" stroke-linejoin="round"></path>
                            <path d="M21.4142101,37.12346 L18.0974756,37.12346 C18.0974756,36.15766 18.3294381,35.24906 18.7317997,34.43946 L21.4142101,37.12346 Z" id="Fill-449" fill="#004E7D"></path>
                            <path d="M21.4142101,37.12346 L18.0974756,37.12346 C18.0974756,36.15766 18.3294381,35.24906 18.7317997,34.43946 L21.4142101,37.12346 L21.4142101,37.12346 Z" id="Stroke-450" stroke="#004E7D" stroke-width="1.1" stroke-linecap="round" stroke-linejoin="round"></path>
                            <polygon id="Stroke-451" stroke="#014E7D" stroke-width="1.1" stroke-linecap="round" stroke-linejoin="round" points="18.0985749 65.505 60.6180782 65.505 60.6180782 47.0954 18.0985749 47.0954"></polygon>
                            <polygon id="Fill-452" fill="#004E7D" points="18.0978054 50.41355 21.4145399 47.09485 18.0978054 47.09485"></polygon>
                            <polygon id="Stroke-453" stroke="#004E7D" stroke-width="1.1" stroke-linecap="round" stroke-linejoin="round" points="18.0978054 50.41355 21.4145399 47.09485 18.0978054 47.09485"></polygon>
                            <polygon id="Fill-454" fill="#004E7D" points="18.0978054 62.18619 21.4145399 65.50489 18.0978054 65.50489"></polygon>
                            <polygon id="Stroke-455" stroke="#004E7D" stroke-width="1.1" stroke-linecap="round" stroke-linejoin="round" points="18.0978054 62.18619 21.4145399 65.50489 18.0978054 65.50489"></polygon>
                            <polygon id="Fill-456" fill="#004E7D" points="60.6176384 50.41355 57.3009039 47.09485 60.6176384 47.09485"></polygon>
                            <polygon id="Stroke-457" stroke="#004E7D" stroke-width="1.1" stroke-linecap="round" stroke-linejoin="round" points="60.6176384 50.41355 57.3009039 47.09485 60.6176384 47.09485"></polygon>
                            <polygon id="Fill-458" fill="#004E7D" points="60.6176384 62.18619 57.3009039 65.50489 60.6176384 65.50489"></polygon>
                            <polygon id="Stroke-459" stroke="#004E7D" stroke-width="1.1" stroke-linecap="round" stroke-linejoin="round" points="60.6176384 62.18619 57.3009039 65.50489 60.6176384 65.50489"></polygon>
                            <polygon id="Fill-460" fill="#F2F2F2" points="37.0370521 50.413 41.679601 50.413 41.679601 47.0943 37.0370521 47.0943"></polygon>
                            <polygon id="Stroke-461" stroke="#004E7D" stroke-width="1.1" stroke-linecap="round" stroke-linejoin="round" points="37.0370521 50.413 41.679601 50.413 41.679601 47.0943 37.0370521 47.0943"></polygon>
                            <polygon id="Fill-462" fill="#014E7D" points="39.0653502 49.6738 39.6502036 49.6738 39.6502036 47.9193 39.0653502 47.9193"></polygon>
                            <path d="M35.4096865,40.0213 L27.1348901,27.2503" id="Stroke-463" stroke="#F2F2F2" stroke-width="7.7" stroke-linecap="round" stroke-linejoin="round"></path>
                            <path d="M35.4096865,40.0213 L27.1348901,27.2503" id="Stroke-464" stroke="#014E7D" stroke-width="1.1" stroke-linecap="round" stroke-linejoin="round"></path>
                            <path d="M43.3056474,40.0213 L51.5804438,27.2503" id="Stroke-465" stroke="#F2F2F2" stroke-width="7.7" stroke-linecap="round" stroke-linejoin="round"></path>
                            <path d="M43.3056474,40.0213 L51.5804438,27.2503" id="Stroke-466" stroke="#014E7D" stroke-width="1.1" stroke-linecap="round" stroke-linejoin="round"></path>
                            <path d="M39.3576669,38.85277 L39.3576669,20.39587" id="Stroke-467" stroke="#F2F2F2" stroke-width="7.7" stroke-linecap="round" stroke-linejoin="round"></path>
                            <path d="M39.3576669,38.85277 L39.3576669,20.39587" id="Stroke-468" stroke="#014E7D" stroke-width="1.1" stroke-linecap="round" stroke-linejoin="round"></path>
                        </g>
                    </g>
                </g>
            </g>
        </g>
    </g>
</svg>