<?xml version="1.0" encoding="UTF-8" standalone="no"?>
<svg width="80px" height="93px" viewBox="0 0 80 93" version="1.1" xmlns="http://www.w3.org/2000/svg" xmlns:xlink="http://www.w3.org/1999/xlink">
    <!-- Generator: sketchtool 41.2 (35397) - http://www.bohemiancoding.com/sketch -->
    <title>0578599D-A8AA-437C-9BFA-49316F283AF8</title>
    <desc>Created with sketchtool.</desc>
    <defs></defs>
    <g id="Page-1" stroke="none" stroke-width="1" fill="none" fill-rule="evenodd">
        <g id="5.1-Iconography" transform="translate(-1094.000000, -159.000000)">
            <g id="Content" transform="translate(50.000000, 160.000000)">
                <g id="Group" transform="translate(449.000000, 0.000000)">
                    <g id="Group-47" transform="translate(595.846906, 0.000000)">
                        <g id="Group-6">
                            <path d="M4.39024837,20.23714 L36.5319015,1.29514 C38.3051507,0.25124 40.4796621,0.25124 42.2540106,1.29514 L74.560566,20.23714 C76.9813314,21.66164 78.6039699,24.31044 78.6039699,27.17924 L78.6039699,63.74324 C78.6039699,66.61204 76.9725366,69.26084 74.5506718,70.68534 L42.3034813,90.58434 C40.5302321,91.62714 38.302952,91.62714 36.5286034,90.58434 L4.40783795,70.68534 C1.98597313,69.26084 0.550223941,66.61204 0.550223941,63.74324 L0.550223941,27.17924 C0.550223941,24.31044 1.9694829,21.66164 4.39024837,20.23714 L4.39024837,20.23714 Z" id="Stroke-38" stroke="#014E7D" stroke-width="1.1" stroke-linecap="round" stroke-linejoin="round"></path>
                            <path d="M60.917101,33.6072 L37.4965798,20.0772 C36.9699919,19.7736 36.2982899,19.954 35.9948697,20.4798 L32.9254886,25.7994 C32.6209691,26.3252 32.8012622,26.9984 33.3278502,27.302 L56.7483713,40.832 C57.2738599,41.1356 57.9466612,40.9563 58.2500814,40.4294 L61.3194625,35.1098 C61.6228827,34.584 61.4425896,33.9108 60.917101,33.6072" id="Fill-39" fill="#014E7D"></path>
                            <path d="M43.1586645,64.38399 L19.7381433,50.85399 C19.2115554,50.55039 18.5398534,50.73079 18.2364332,51.25659 L15.1670521,56.57619 C14.8625326,57.10199 15.0428257,57.77519 15.5694137,58.07879 L38.9899349,71.60879 C39.5154235,71.91239 40.1882248,71.73309 40.491645,71.20619 L43.5610261,65.88659 C43.8644463,65.36079 43.6841531,64.68759 43.1586645,64.38399" id="Fill-40" fill="#014E7D"></path>
                            <polygon id="Stroke-41" stroke="#014E7D" stroke-width="1.1" stroke-linecap="round" stroke-linejoin="round" points="48.9702606 57.30571 57.12193 62.01481 61.6743322 54.12451 53.5226629 49.41541"></polygon>
                            <polygon id="Stroke-42" stroke="#014E7D" stroke-width="1.1" stroke-linecap="round" stroke-linejoin="round" points="56.9229479 62.35966 59.0128094 63.56636 63.9631759 54.98746 61.8733143 53.77966"></polygon>
                            <polygon id="Stroke-43" stroke="#014E7D" stroke-width="1.1" stroke-linecap="round" stroke-linejoin="round" points="48.0746213 58.85781 37.346079 52.65931 43.68932 41.66481 54.4189617 47.86331"></polygon>
                            <polygon id="Stroke-44" stroke="#014E7D" stroke-width="1.1" stroke-linecap="round" stroke-linejoin="round" points="36.8623656 53.49762 22.3454682 45.11122 29.656136 32.44142 44.1730334 40.82782"></polygon>
                            <polygon id="Stroke-45" stroke="#014E7D" stroke-width="1.1" stroke-linecap="round" stroke-linejoin="round" points="17.9873208 43.15707 22.1010831 45.53417 29.8998616 32.01847 25.7860993 29.64247"></polygon>
                            <path d="M34.585395,52.18224 L31.4434568,57.62724" id="Stroke-46" stroke="#014E7D" stroke-width="1.1" stroke-linecap="round" stroke-linejoin="round"></path>
                            <path d="M41.8960627,39.51222 L45.0380008,34.06722" id="Stroke-47" stroke="#014E7D" stroke-width="1.1" stroke-linecap="round" stroke-linejoin="round"></path>
                            <path d="M25.7747761,31.3159 L28.4560871,32.8647" id="Stroke-48" stroke="#014E7D" stroke-width="1.1" stroke-linecap="round" stroke-linejoin="round"></path>
                            <path d="M29.5148697,34.5103 L42.4531026,41.9848" id="Stroke-49" stroke="#014E7D" stroke-width="1.1" stroke-linecap="round" stroke-linejoin="round"></path>
                            <path d="M43.2765147,44.29007 L52.3538355,49.53377" id="Stroke-50" stroke="#014E7D" stroke-width="1.1" stroke-linecap="round" stroke-linejoin="round"></path>
                            <path d="M61.7942712,54.98768 L62.9573819,55.65978" id="Stroke-51" stroke="#014E7D" stroke-width="1.1" stroke-linecap="round" stroke-linejoin="round"></path>
                            <path d="M53.2391409,51.36285 L60.1309568,55.34485" id="Stroke-52" stroke="#014E7D" stroke-width="1.1" stroke-linecap="round" stroke-linejoin="round"></path>
                            <path d="M35.1545277,21.93576 L60.4791205,36.56576" id="Stroke-53" stroke="#F2F2F2" stroke-width="1.1" stroke-linecap="round" stroke-linejoin="round"></path>
                            <path d="M33.7649511,24.34399 L59.089544,38.97399" id="Stroke-54" stroke="#F2F2F2" stroke-width="1.1" stroke-linecap="round" stroke-linejoin="round"></path>
                            <path d="M42.8753624,23.18492 L38.7066327,30.40972" id="Stroke-55" stroke="#F2F2F2" stroke-width="1.1" stroke-linecap="round" stroke-linejoin="round"></path>
                            <path d="M49.2066205,26.84231 L45.0378909,34.06711" id="Stroke-56" stroke="#F2F2F2" stroke-width="1.1" stroke-linecap="round" stroke-linejoin="round"></path>
                            <path d="M55.5378787,30.49992 L51.369149,37.72472" id="Stroke-57" stroke="#F2F2F2" stroke-width="1.1" stroke-linecap="round" stroke-linejoin="round"></path>
                            <path d="M17.3960912,52.71244 L42.720684,67.34244" id="Stroke-58" stroke="#F2F2F2" stroke-width="1.1" stroke-linecap="round" stroke-linejoin="round"></path>
                            <path d="M16.0065147,55.12078 L41.3311075,69.75078" id="Stroke-59" stroke="#F2F2F2" stroke-width="1.1" stroke-linecap="round" stroke-linejoin="round"></path>
                            <path d="M25.1169259,53.96171 L20.9481963,61.18651" id="Stroke-60" stroke="#F2F2F2" stroke-width="1.1" stroke-linecap="round" stroke-linejoin="round"></path>
                            <path d="M31.448184,57.61921 L27.2794544,64.84401" id="Stroke-61" stroke="#F2F2F2" stroke-width="1.1" stroke-linecap="round" stroke-linejoin="round"></path>
                            <path d="M37.7794422,61.27671 L33.6107125,68.50151" id="Stroke-62" stroke="#F2F2F2" stroke-width="1.1" stroke-linecap="round" stroke-linejoin="round"></path>
                        </g>
                    </g>
                </g>
            </g>
        </g>
    </g>
</svg>