<?xml version="1.0" encoding="UTF-8" standalone="no"?>
<svg width="80px" height="92px" viewBox="0 0 80 92" version="1.1" xmlns="http://www.w3.org/2000/svg" xmlns:xlink="http://www.w3.org/1999/xlink">
    <!-- Generator: sketchtool 41.2 (35397) - http://www.bohemiancoding.com/sketch -->
    <title>E70457B6-6F4C-4CC1-8952-3F1CBE2AA0CB</title>
    <desc>Created with sketchtool.</desc>
    <defs></defs>
    <g id="Page-1" stroke="none" stroke-width="1" fill="none" fill-rule="evenodd">
        <g id="5.1-Iconography" transform="translate(-499.000000, -160.000000)">
            <g id="Content" transform="translate(50.000000, 160.000000)">
                <g id="Group" transform="translate(449.000000, 0.000000)">
                    <g id="Group-21">
                        <g id="Group-2">
                            <path d="M4.39024837,20.27674 L36.5319015,1.33474 C38.3051507,0.29084 40.4796621,0.29084 42.2540106,1.33474 L74.560566,20.27674 C76.9813314,21.70124 78.6039699,24.35004 78.6039699,27.21774 L78.6039699,63.78284 C78.6039699,66.65164 76.9725366,69.30044 74.5506718,70.72494 L42.3034813,90.62394 C40.5302321,91.66674 38.302952,91.66674 36.5286034,90.62394 L4.40783795,70.72494 C1.98597313,69.30044 0.550223941,66.65164 0.550223941,63.78284 L0.550223941,27.21774 C0.550223941,24.35004 1.9694829,21.70124 4.39024837,20.27674 L4.39024837,20.27674 Z" id="Stroke-398" stroke="#014E7D" stroke-width="1.1" stroke-linecap="round" stroke-linejoin="round"></path>
                            <path d="M35.3293241,49.24139 C39.0484202,50.23799 42.3717508,49.36569 44.5924349,48.06879 L37.2410912,42.23329 L35.3293241,49.24139 Z" id="Fill-400" fill="#004E7D"></path>
                            <path d="M55.8152443,55.65747 C49.0146743,54.63887 41.711702,52.46087 35.3288844,49.24117 C37.207671,42.20337 39.1634121,35.08087 41.1642264,27.86597 C47.9647964,30.48177 55.2677687,31.94037 61.649487,32.35507 C59.7717997,40.21017 57.8160586,47.98057 55.8152443,55.65747 L55.8152443,55.65747 Z" id="Stroke-402" stroke="#014E7D" stroke-width="1.1" stroke-linecap="round" stroke-linejoin="round"></path>
                            <path d="M41.1637866,27.86553 C45.7546661,29.63213 50.5742101,30.87073 55.1848779,31.61653" id="Stroke-404" stroke="#014E7D" stroke-width="1.1" stroke-linecap="round" stroke-linejoin="round"></path>
                            <path d="M39.3576669,31.66504 C43.9485464,33.43164 48.7680904,34.67024 53.3787581,35.41604" id="Stroke-406" stroke="#014E7D" stroke-width="1.1" stroke-linecap="round" stroke-linejoin="round"></path>
                            <path d="M40.0683958,29.78316 C44.6592752,31.54976 49.4788192,32.78726 54.089487,33.53416" id="Stroke-408" stroke="#014E7D" stroke-width="1.1" stroke-linecap="round" stroke-linejoin="round"></path>
                            <path d="M38.8761523,33.54054 C43.4670318,35.30714 48.2865757,36.54464 52.8972435,37.29154" id="Stroke-410" stroke="#014E7D" stroke-width="1.1" stroke-linecap="round" stroke-linejoin="round"></path>
                            <path d="M38.2881107,35.41582 C42.8789902,37.18242 47.6985342,38.42102 52.309202,39.16682" id="Stroke-412" stroke="#014E7D" stroke-width="1.1" stroke-linecap="round" stroke-linejoin="round"></path>
                            <path d="M49.1345033,50.28023 C44.4259935,49.09223 39.6998941,47.39493 35.3937459,45.22133" id="Stroke-414" stroke="#014E7D" stroke-width="1.1" stroke-linecap="round" stroke-linejoin="round"></path>
                            <path d="M49.4827769,48.55752 C44.7742671,47.36952 40.0481678,45.67222 35.7420195,43.49862" id="Stroke-416" stroke="#014E7D" stroke-width="1.1" stroke-linecap="round" stroke-linejoin="round"></path>
                            <path d="M48.4896254,52.31193 C43.7811156,51.12393 40.0488274,49.87213 35.7415798,47.69963" id="Stroke-418" stroke="#014E7D" stroke-width="1.1" stroke-linecap="round" stroke-linejoin="round"></path>
                            <path d="M49.9093241,46.61591 C45.2008143,45.42791 40.474715,43.73061 36.1685668,41.55701" id="Stroke-420" stroke="#014E7D" stroke-width="1.1" stroke-linecap="round" stroke-linejoin="round"></path>
                            <path d="M50.6185138,44.94446 C45.9100041,43.75646 40.8244178,42.05916 36.5171702,39.88556" id="Stroke-422" stroke="#014E7D" stroke-width="1.1" stroke-linecap="round" stroke-linejoin="round"></path>
                            <path d="M51.1135505,42.92981 C46.3687622,42.12131 41.3821173,40.61541 37.0748697,38.44291" id="Stroke-424" stroke="#014E7D" stroke-width="1.1" stroke-linecap="round" stroke-linejoin="round"></path>
                            <path d="M51.6823534,41.03506 C46.9375651,40.22656 41.9509202,38.72066 37.6436726,36.54816" id="Stroke-426" stroke="#014E7D" stroke-width="1.1" stroke-linecap="round" stroke-linejoin="round"></path>
                            <path d="M30.1743689,20.27674 L17.283408,70.87784" id="Stroke-428" stroke="#014E7D" stroke-width="1.1" stroke-linecap="round" stroke-linejoin="round"></path>
                            <path d="M44.5919951,48.06846 C37.8079153,45.43396 30.9193974,43.95666 24.2232655,43.63656 C26.193298,35.74956 28.1787215,27.96376 30.1740391,20.27696 C36.9581189,21.27686 43.8466368,23.43506 50.5438681,26.75046 C48.5738355,33.75636 46.5873127,40.86236 44.5919951,48.06846" id="Fill-430" fill="#F2F2F2"></path>
                            <path d="M44.5919951,48.06846 C37.8079153,45.43396 30.9193974,43.95666 24.2232655,43.63656 C26.193298,35.74956 28.1787215,27.96376 30.1740391,20.27696 C36.9581189,21.27686 43.8466368,23.43506 50.5438681,26.75046 C48.5738355,33.75636 46.5873127,40.86236 44.5919951,48.06846 L44.5919951,48.06846 Z" id="Stroke-432" stroke="#014E7D" stroke-width="1.1"></path>
                        </g>
                    </g>
                </g>
            </g>
        </g>
    </g>
</svg>