<?xml version="1.0" encoding="UTF-8" standalone="no"?>
<svg width="81px" height="93px" viewBox="0 0 81 93" version="1.1" xmlns="http://www.w3.org/2000/svg" xmlns:xlink="http://www.w3.org/1999/xlink">
    <!-- Generator: sketchtool 41.2 (35397) - http://www.bohemiancoding.com/sketch -->
    <title>3EDFC5B9-9433-4EA1-9EEC-C2D459B922DF</title>
    <desc>Created with sketchtool.</desc>
    <defs></defs>
    <g id="Page-1" stroke="none" stroke-width="1" fill="none" fill-rule="evenodd">
        <g id="5.1-Iconography" transform="translate(-647.000000, -287.000000)">
            <g id="Content" transform="translate(50.000000, 160.000000)">
                <g id="Group" transform="translate(449.000000, 0.000000)">
                    <g id="Group-50" transform="translate(148.961726, 127.600000)">
                        <g id="Group-9">
                            <path d="M4.50216205,19.97314 L36.6998819,1.03114 C38.4731311,-0.01276 40.6762256,-0.01276 42.4494748,1.03114 L74.6581881,19.97314 C77.0789536,21.39764 78.60375,24.04644 78.60375,26.91414 L78.60375,63.47924 C78.60375,66.34804 77.0844503,68.99684 74.6625855,70.42134 L42.4714617,90.32034 C40.6982125,91.36314 38.4984161,91.36314 36.7240676,90.32034 L4.5054601,70.42134 C2.08469463,68.99684 0.550004072,66.34804 0.550004072,63.47924 L0.550004072,26.91414 C0.550004072,24.04644 2.08139658,21.39764 4.50216205,19.97314 L4.50216205,19.97314 Z" id="Stroke-350" stroke="#014E7D" stroke-width="1.1" stroke-linecap="round" stroke-linejoin="round"></path>
                            <path d="M39.3576669,40.80978 C35.62318,40.80978 32.5845806,43.85018 32.5845806,47.58688 C32.5845806,47.73868 32.4614536,47.86298 32.3086441,47.86298 C32.1558347,47.86298 32.0327077,47.73868 32.0327077,47.58688 C32.0327077,43.54548 35.3186604,40.25648 39.3576669,40.25648 C39.5104764,40.25648 39.6336034,40.38078 39.6336034,40.53368 C39.6336034,40.68548 39.5104764,40.80978 39.3576669,40.80978 M39.3576669,39.29068 C34.7865757,39.29068 31.0663803,43.01198 31.0663803,47.58688 C31.0663803,52.16068 34.7865757,55.88198 39.3576669,55.88198 C43.9298575,55.88198 47.6489536,52.16068 47.6489536,47.58688 C47.6489536,43.01198 43.9298575,39.29068 39.3576669,39.29068" id="Fill-352" fill="#014E7D"></path>
                            <path d="M39.3576669,17.43852 C37.049035,17.43852 35.1724471,19.31732 35.1724471,21.62622 C35.1724471,21.77912 35.0482207,21.90342 34.8954112,21.90342 C34.7437011,21.90342 34.6194748,21.77912 34.6194748,21.62622 C34.6194748,19.01262 36.7445155,16.88522 39.3576669,16.88522 C39.5104764,16.88522 39.6336034,17.00952 39.6336034,17.16242 C39.6336034,17.31422 39.5104764,17.43852 39.3576669,17.43852 M39.3576669,15.95022 C36.228921,15.95022 33.6850285,18.49672 33.6850285,21.62622 C33.6850285,24.75682 36.228921,27.30332 39.3576669,27.30332 C42.4864129,27.30332 45.0303054,24.75682 45.0303054,21.62622 C45.0303054,18.49672 42.4864129,15.95022 39.3576669,15.95022" id="Fill-354" fill="#014E7D"></path>
                            <path d="M61.8411034,56.4432 C59.5324715,56.4432 57.6558836,58.322 57.6558836,60.632 C57.6558836,60.7849 57.5316572,60.9081 57.3788477,60.9081 C57.2271376,60.9081 57.1029112,60.7849 57.1029112,60.632 C57.1029112,58.0173 59.227952,55.8899 61.8411034,55.8899 C61.9939129,55.8899 62.1170399,56.0142 62.1170399,56.1671 C62.1170399,56.3189 61.9939129,56.4432 61.8411034,56.4432 M61.8411034,54.9153 C58.7123575,54.9153 56.168465,57.4618 56.168465,60.5924 C56.168465,63.7219 58.7123575,66.2684 61.8411034,66.2684 C64.9698493,66.2684 67.5137419,63.7219 67.5137419,60.5924 C67.5137419,57.4618 64.9698493,54.9153 61.8411034,54.9153" id="Fill-356" fill="#014E7D"></path>
                            <path d="M39.3576669,27.85585 C39.2642223,27.85585 39.1740757,27.84595 39.0817305,27.84155 L39.0817305,38.74475 C39.1729764,38.74145 39.2653217,38.73815 39.3576669,38.73815 C39.4500122,38.73815 39.5423575,38.74145 39.6336034,38.74475 L39.6336034,27.84155 C39.5412581,27.84595 39.4511116,27.85585 39.3576669,27.85585" id="Fill-358" fill="#014E7D"></path>
                            <path d="M22.1142752,57.2418 C22.2132166,57.3969 22.3066612,57.5553 22.3924104,57.7192 L31.8468078,52.25 C31.7500651,52.0938 31.6566205,51.9354 31.5686726,51.7726 L22.1142752,57.2418 Z" id="Fill-360" fill="#014E7D"></path>
                            <path d="M56.6011686,57.2418 C56.5022272,57.3969 56.4087826,57.5553 56.3230334,57.7192 L46.868636,52.25 C46.9653787,52.0938 47.0588233,51.9354 47.1467712,51.7726 L56.6011686,57.2418 Z" id="Fill-362" fill="#014E7D"></path>
                            <path d="M16.8743404,56.4432 C14.5657085,56.4432 12.6891205,58.322 12.6891205,60.632 C12.6891205,60.7849 12.5648941,60.9081 12.4120847,60.9081 C12.2603746,60.9081 12.1361482,60.7849 12.1361482,60.632 C12.1361482,58.0173 14.2611889,55.8899 16.8743404,55.8899 C17.0271498,55.8899 17.1502769,56.0142 17.1502769,56.1671 C17.1502769,56.3189 17.0271498,56.4432 16.8743404,56.4432 M16.8743404,54.9153 C13.7455945,54.9153 11.201702,57.4618 11.201702,60.5924 C11.201702,63.7219 13.7455945,66.2684 16.8743404,66.2684 C20.0030863,66.2684 22.5469788,63.7219 22.5469788,60.5924 C22.5469788,57.4618 20.0030863,54.9153 16.8743404,54.9153" id="Fill-364" fill="#014E7D"></path>
                        </g>
                    </g>
                </g>
            </g>
        </g>
    </g>
</svg>