<?xml version="1.0" encoding="UTF-8" standalone="no"?>
<svg width="80px" height="92px" viewBox="0 0 80 92" version="1.1" xmlns="http://www.w3.org/2000/svg" xmlns:xlink="http://www.w3.org/1999/xlink">
    <!-- Generator: sketchtool 41.2 (35397) - http://www.bohemiancoding.com/sketch -->
    <title>68A9215C-8387-46F2-BCDB-CE8426D20153</title>
    <desc>Created with sketchtool.</desc>
    <defs></defs>
    <g id="Page-1" stroke="none" stroke-width="1" fill="none" fill-rule="evenodd">
        <g id="5.1-Iconography" transform="translate(-648.000000, -540.000000)">
            <g id="Content" transform="translate(50.000000, 160.000000)">
                <g id="Group" transform="translate(449.000000, 0.000000)">
                    <g id="Group-60" transform="translate(149.511401, 380.500000)">
                        <g id="Group-26">
                            <path d="M4.39024837,19.81937 L36.5319015,0.87737 C38.3051507,-0.16653 40.4796621,-0.16653 42.2540106,0.87737 L74.560566,19.81937 C76.9813314,21.24387 78.6039699,23.89267 78.6039699,26.76147 L78.6039699,63.32547 C78.6039699,66.19427 76.9725366,68.84307 74.5506718,70.26757 L42.3034813,90.16657 C40.5302321,91.20937 38.302952,91.20937 36.5286034,90.16657 L4.40783795,70.26757 C1.98597313,68.84307 0.550223941,66.19427 0.550223941,63.32547 L0.550223941,26.76147 C0.550223941,23.89267 1.9694829,21.24387 4.39024837,19.81937 L4.39024837,19.81937 Z" id="Stroke-366" stroke="#014E7D" stroke-width="1.1" stroke-linecap="round" stroke-linejoin="round"></path>
                            <path d="M40.6740269,63.52897 C39.0359976,65.16797 36.3788721,65.16797 34.7408428,63.52897 C33.1028135,61.88997 33.1028135,59.23127 34.7408428,57.59227 C36.3788721,55.95327 39.0359976,55.95327 40.6740269,57.59227 C42.3120562,59.23127 42.3120562,61.88997 40.6740269,63.52897 L40.6740269,63.52897 Z" id="Stroke-368" stroke="#014E7D" stroke-width="1.1"></path>
                            <path d="M55.77193,42.38477 C55.6872801,42.56297 55.5850407,42.73237 55.459715,42.88857 C54.8627687,43.63767 53.8975407,43.99627 52.7608143,43.99077 C51.1909446,43.98197 49.9211971,45.12377 49.9200977,46.66047 L49.9200977,46.67807 C49.9222964,47.72527 50.9282003,48.51177 51.9483958,48.27747 C53.0312541,48.02887 54.0327606,47.43267 54.7704235,46.50757 C55.7235586,45.31077 56.0390717,43.80597 55.77193,42.38477 L55.77193,42.38477 Z" id="Stroke-370" stroke="#014E7D" stroke-width="1.1" stroke-linecap="round" stroke-linejoin="round"></path>
                            <path d="M27.079373,69.64178 C26.2548616,70.71758 27.6323453,72.09478 28.7075081,71.27088 C32.119886,68.65398 35.9544137,65.28028 39.8263192,61.40608 C43.6982248,57.53188 47.0688274,53.69508 49.6852769,50.28068 C50.5086889,49.20488 49.1323046,47.82768 48.0571417,48.65158 C44.6447638,51.26848 40.8102362,54.64218 36.9372313,58.51638 C33.0653257,62.39058 29.6947231,66.22738 27.079373,69.64178" id="Fill-372" fill="#F2F2F2"></path>
                            <path d="M27.079373,69.64178 C26.2548616,70.71758 27.6323453,72.09478 28.7075081,71.27088 C32.119886,68.65398 35.9544137,65.28028 39.8263192,61.40608 C43.6982248,57.53188 47.0688274,53.69508 49.6852769,50.28068 C50.5086889,49.20488 49.1323046,47.82768 48.0571417,48.65158 C44.6447638,51.26848 40.8102362,54.64218 36.9372313,58.51638 C33.0653257,62.39058 29.6947231,66.22738 27.079373,69.64178 L27.079373,69.64178 Z" id="Stroke-374" stroke="#014E7D" stroke-width="1.1"></path>
                            <path d="M40.6740269,63.52897 L40.6740269,63.52897 C39.0359976,65.16797 36.3788721,65.16797 34.7408428,63.52897 C33.1028135,61.88997 33.1028135,59.23127 34.7408428,57.59227 L16.3630334,39.20357 C12.7472761,48.12347 13.8774064,57.85737 20.1491897,64.13287 C26.4209731,70.40837 36.1491083,71.54027 45.0637256,67.92127 L40.6740269,63.52897 Z" id="Fill-376" fill="#F2F2F2"></path>
                            <path d="M40.6740269,63.52897 C39.0359976,65.16797 36.3788721,65.16797 34.7408428,63.52897 C33.1028135,61.88997 33.1028135,59.23127 34.7408428,57.59227" id="Stroke-378" stroke="#014E7D" stroke-width="1.1"></path>
                            <path d="M20.1495195,64.13309 C11.2711808,55.24949 12.681645,39.43479 23.3002524,28.81099 C33.9177606,18.18609 49.7230945,16.77479 58.6014332,25.65839 C67.479772,34.54199 66.0693078,50.35669 55.4507003,60.98049 C44.8331922,71.60539 29.0278583,73.01669 20.1495195,64.13309 L20.1495195,64.13309 Z" id="Stroke-380" stroke="#014E7D" stroke-width="1.1"></path>
                            <path d="M26.0041002,48.99511 C24.5408673,50.45921 22.1673738,50.45921 20.7041409,48.99511 C19.240908,47.53101 19.240908,45.15611 20.7041409,43.69201 C22.1673738,42.22791 24.5408673,42.22791 26.0041002,43.69201 C27.4673331,45.15611 27.4673331,47.53101 26.0041002,48.99511" id="Fill-382" fill="#014E7D"></path>
                            <path d="M26.2335342,46.34345 C26.2335342,47.93515 24.9439984,49.22435 23.3543404,49.22435" id="Stroke-384" stroke="#F2F2F2" stroke-width="1.1" stroke-linecap="round"></path>
                            <path d="M31.4817142,36.99752 C30.0184813,38.46162 27.6449878,38.46162 26.1817549,36.99752 C24.718522,35.53342 24.718522,33.15852 26.1817549,31.69442 C27.6449878,30.23032 30.0184813,30.23032 31.4817142,31.69442 C32.9449471,33.15852 32.9449471,35.53342 31.4817142,36.99752" id="Fill-386" fill="#014E7D"></path>
                            <path d="M43.5244178,31.18633 C42.0611849,32.65043 39.6876914,32.65043 38.2244585,31.18633 C36.7612256,29.72223 36.7612256,27.34733 38.2244585,25.88323 C39.6876914,24.41913 42.0611849,24.41913 43.5244178,25.88323 C44.9876507,27.34733 44.9876507,29.72223 43.5244178,31.18633" id="Fill-388" fill="#014E7D"></path>
                            <path d="M55.9969666,33.52581 C54.5337337,34.98991 52.1602402,34.98991 50.6970073,33.52581 C49.2337744,32.06171 49.2337744,29.68681 50.6970073,28.22271 C52.1602402,26.75861 54.5337337,26.75861 55.9969666,28.22271 C57.4601995,29.68681 57.4601995,32.06171 55.9969666,33.52581" id="Fill-390" fill="#014E7D"></path>
                            <path d="M31.7110383,34.34586 C31.7110383,35.93756 30.4215024,37.22676 28.8318445,37.22676" id="Stroke-392" stroke="#F2F2F2" stroke-width="1.1" stroke-linecap="round"></path>
                            <path d="M43.7456067,28.53456 C43.7456067,30.12626 42.4560708,31.41546 40.8664129,31.41546" id="Stroke-394" stroke="#F2F2F2" stroke-width="1.1" stroke-linecap="round"></path>
                            <path d="M56.2264007,30.87426 C56.2264007,32.46596 54.9368648,33.75516 53.3472068,33.75516" id="Stroke-396" stroke="#F2F2F2" stroke-width="1.1" stroke-linecap="round"></path>
                        </g>
                    </g>
                </g>
            </g>
        </g>
    </g>
</svg>