<?xml version="1.0" encoding="UTF-8" standalone="no"?>
<svg width="80px" height="93px" viewBox="0 0 80 93" version="1.1" xmlns="http://www.w3.org/2000/svg" xmlns:xlink="http://www.w3.org/1999/xlink">
    <!-- Generator: sketchtool 41.2 (35397) - http://www.bohemiancoding.com/sketch -->
    <title>95F87968-3860-4F99-8702-30359A271627</title>
    <desc>Created with sketchtool.</desc>
    <defs></defs>
    <g id="Page-1" stroke="none" stroke-width="1" fill="none" fill-rule="evenodd">
        <g id="5.1-Iconography" transform="translate(-946.000000, -412.000000)">
            <g id="Content" transform="translate(50.000000, 160.000000)">
                <g id="Group" transform="translate(449.000000, 0.000000)">
                    <g id="Group-57" transform="translate(447.709691, 251.900000)">
                        <g id="Group-18">
                            <path d="M4.11486156,20.64205 L36.3939332,1.70005 C38.1671824,0.65615 40.4109528,0.65615 42.184202,1.70005 L74.2510993,20.64205 C76.6718648,22.06655 78.0537459,24.71535 78.0537459,27.58415 L78.0537459,64.14815 C78.0537459,67.01695 76.6971498,69.66575 74.275285,71.09025 L42.165513,90.98925 C40.3922638,92.03205 38.2331433,92.03205 36.4598941,90.98925 L4.09727199,71.09025 C1.67650651,69.66575 0,67.01695 0,64.14815 L0,27.58415 C0,24.71535 1.69409609,22.06655 4.11486156,20.64205 L4.11486156,20.64205 Z" id="Stroke-285" stroke="#014E7D" stroke-width="1.1" stroke-linecap="round" stroke-linejoin="round"></path>
                            <path d="M39.3577769,67.98583 C27.4485342,67.98583 17.7940554,58.32563 17.7940554,46.40933 C17.7940554,34.49303 27.4485342,24.83173 39.3577769,24.83173 C51.2670195,24.83173 60.9214984,34.49303 60.9214984,46.40933 C60.9214984,58.32563 51.2670195,67.98583 39.3577769,67.98583" id="Fill-286" fill="#004E7D"></path>
                            <path d="M34.23943,42.6888 C36.7228583,40.645 43.4200896,35.6862 53.4692345,34.6038 C63.4612134,33.528 71.0214332,36.9017 73.8907329,38.3647" id="Stroke-287" stroke="#F2F2F2" stroke-width="4.4" stroke-linecap="round"></path>
                            <path d="M33.0317956,46.39536 C33.83432,43.27906 36.3232451,35.32386 43.8043119,28.52256 C51.2414047,21.76086 59.3370073,20.02836 62.5152239,19.51796" id="Stroke-288" stroke="#F2F2F2" stroke-width="4.4" stroke-linecap="round"></path>
                            <path d="M34.23943,50.10192 C33.0521336,47.11212 30.3763192,39.21742 32.4134121,29.31082 C34.4395114,19.46252 39.958241,13.28822 42.2250977,11.00022" id="Stroke-289" stroke="#F2F2F2" stroke-width="4.4" stroke-linecap="round"></path>
                            <path d="M37.3985179,52.38398 C34.6776303,50.66798 27.8660668,45.86868 23.6764495,36.66498 C19.5110179,27.51408 20.3333306,19.27178 20.817044,16.08728" id="Stroke-290" stroke="#F2F2F2" stroke-width="4.4" stroke-linecap="round"></path>
                            <path d="M41.2946091,52.3644 C38.0867101,52.5833 29.7558469,52.723 20.9500651,47.7587 C12.1948534,42.823 8.00303746,35.6796 6.51891694,32.8218" id="Stroke-291" stroke="#F2F2F2" stroke-width="4.4" stroke-linecap="round"></path>
                            <path d="M44.4306107,50.05088 C41.96807,52.11998 35.3214088,57.14588 25.282158,58.32838 C15.302272,59.50428 7.70797231,56.20538 4.82548046,54.77208" id="Stroke-292" stroke="#F2F2F2" stroke-width="4.4" stroke-linecap="round"></path>
                            <path d="M45.6011971,46.33244 C44.8294544,49.45644 42.4207818,57.43584 35.0078746,64.31194 C27.6389414,71.14734 19.5609283,72.96124 16.3882085,73.50464" id="Stroke-293" stroke="#F2F2F2" stroke-width="4.4" stroke-linecap="round"></path>
                            <path d="M44.3564047,42.6382 C45.5733836,45.617 48.328351,53.4842 46.3901995,63.4106 C44.4630415,73.2787 39.0058754,79.508 36.762105,81.8169" id="Stroke-294" stroke="#F2F2F2" stroke-width="4.4" stroke-linecap="round"></path>
                            <path d="M41.1747801,40.38793 C43.912158,42.07643 50.7720928,46.80753 55.052956,55.96943 C59.3096336,65.07743 58.5708713,73.32743 58.1190391,76.51743" id="Stroke-295" stroke="#F2F2F2" stroke-width="4.4" stroke-linecap="round"></path>
                            <path d="M37.2790187,40.44645 C40.4847191,40.19565 48.8133836,39.97235 57.668636,44.84865 C66.4722191,49.69635 70.7354927,56.79685 72.2492956,59.64035" id="Stroke-296" stroke="#F2F2F2" stroke-width="4.4" stroke-linecap="round"></path>
                            <polygon id="Fill-297" fill="#F2F2F2" points="41.1747801 40.38793 37.2786889 40.44623 34.2389902 42.68913 33.0319055 46.39503 34.2389902 50.14163 37.3985179 52.38343 41.2946091 52.36473 44.4310505 50.05033 45.6007573 46.33233 44.3562948 42.63853"></polygon>
                            <path d="M39.3577769,21.00087 C25.3333876,21.00087 13.9650244,32.37707 13.9650244,46.40867 C13.9650244,60.44137 25.3333876,71.81757 39.3577769,71.81757 C53.3821661,71.81757 64.7505293,60.44137 64.7505293,46.40867 C64.7505293,32.37707 53.3821661,21.00087 39.3577769,21.00087 L39.3577769,21.00087 Z" id="Stroke-298" stroke="#014E7D" stroke-width="2.2" stroke-linecap="round" stroke-linejoin="round"></path>
                        </g>
                    </g>
                </g>
            </g>
        </g>
    </g>
</svg>