<?xml version="1.0" encoding="UTF-8" standalone="no"?>
<svg width="81px" height="93px" viewBox="0 0 81 93" version="1.1" xmlns="http://www.w3.org/2000/svg" xmlns:xlink="http://www.w3.org/1999/xlink">
    <!-- Generator: sketchtool 41.2 (35397) - http://www.bohemiancoding.com/sketch -->
    <title>640F941B-BE6C-449C-8603-5C1C2883097F</title>
    <desc>Created with sketchtool.</desc>
    <defs></defs>
    <g id="Page-1" stroke="none" stroke-width="1" fill="none" fill-rule="evenodd">
        <g id="5.1-Iconography" transform="translate(-945.000000, -287.000000)">
            <g id="Content" transform="translate(50.000000, 160.000000)">
                <g id="Group" transform="translate(449.000000, 0.000000)">
                    <g id="Group-52" transform="translate(446.885179, 127.600000)">
                        <g id="Group-12">
                            <path d="M4.39024837,19.8407 L36.5319015,0.8987 C38.3051507,-0.1452 40.4796621,-0.1452 42.2540106,0.8987 L74.560566,19.8407 C76.9813314,21.2652 78.6039699,23.914 78.6039699,26.7828 L78.6039699,63.3468 C78.6039699,66.2156 76.9725366,68.8644 74.5506718,70.2889 L42.3034813,90.1879 C40.5302321,91.2307 38.302952,91.2307 36.5286034,90.1879 L4.40783795,70.2889 C1.98597313,68.8644 0.550223941,66.2156 0.550223941,63.3468 L0.550223941,26.7828 C0.550223941,23.914 1.9694829,21.2652 4.39024837,19.8407 L4.39024837,19.8407 Z" id="Stroke-118" stroke="#014E7D" stroke-width="1.1" stroke-linecap="round" stroke-linejoin="round"></path>
                            <polygon id="Stroke-120" stroke="#014E7D" stroke-width="1.1" stroke-linecap="round" stroke-linejoin="round" points="39.3576669 64.16586 9.43010179 64.16586 24.3933347 38.23226 39.3576669 12.29866 54.3219992 38.23226 69.2852321 64.16586"></polygon>
                            <polygon id="Fill-122" fill="#014E7D" points="39.3576669 38.23237 54.3219992 38.23237 46.8398331 51.19917 39.3576669 64.16597 31.8755008 51.19917 24.3933347 38.23237"></polygon>
                        </g>
                    </g>
                </g>
            </g>
        </g>
    </g>
</svg>