<?xml version="1.0" encoding="UTF-8" standalone="no"?>
<svg width="80px" height="93px" viewBox="0 0 80 93" version="1.1" xmlns="http://www.w3.org/2000/svg" xmlns:xlink="http://www.w3.org/1999/xlink">
    <!-- Generator: sketchtool 41.2 (35397) - http://www.bohemiancoding.com/sketch -->
    <title>50FC0C0D-237B-478D-9B2B-6AB08663596C</title>
    <desc>Created with sketchtool.</desc>
    <defs></defs>
    <g id="Page-1" stroke="none" stroke-width="1" fill="none" fill-rule="evenodd">
        <g id="5.1-Iconography" transform="translate(-499.000000, -411.000000)">
            <g id="Content" transform="translate(50.000000, 160.000000)">
                <g id="Group" transform="translate(449.000000, 0.000000)">
                    <g id="Group-54" transform="translate(0.000000, 251.900000)">
                        <g id="Group-14">
                            <path d="M4.51216612,20.25111 L36.7142834,1.30911 C38.4886319,0.26521 40.6928257,0.26521 42.4671743,1.30911 L74.6670928,20.25111 C77.0878583,21.67561 78.6038599,24.32441 78.6038599,27.19321 L78.6038599,63.75721 C78.6038599,66.62601 77.0944544,69.27481 74.6725896,70.69931 L42.4869625,90.59831 C40.712614,91.64111 38.5161156,91.64111 36.7417671,90.59831 L4.51436482,70.69931 C2.0925,69.27481 0.550114007,66.62601 0.550114007,63.75721 L0.550114007,27.19321 C0.550114007,24.32441 2.09140065,21.67561 4.51216612,20.25111 L4.51216612,20.25111 Z" id="Stroke-124" stroke="#014E7D" stroke-width="1.1" stroke-linecap="round" stroke-linejoin="round"></path>
                            <polygon id="Stroke-126" stroke="#014E7D" stroke-width="1.1" stroke-linecap="round" stroke-linejoin="round" points="39.3576669 25.27503 67.8967549 54.82103 62.9441897 59.59063 53.3578705 49.62463 47.1421539 56.06183 42.6392223 51.39893 39.3576669 54.79683 36.0761116 51.39893 31.57318 56.06183 25.3574634 49.62463 15.7711441 59.59063 10.818579 54.82103"></polygon>
                            <path d="M42.5274186,37.68479 L42.5274186,46.85769" id="Stroke-128" stroke="#014E7D" stroke-width="1.1" stroke-linecap="round" stroke-linejoin="round"></path>
                            <polyline id="Stroke-130" stroke="#014E7D" stroke-width="1.1" stroke-linecap="round" stroke-linejoin="round" points="47.141934 52.01471 47.141934 44.13981 48.9217793 42.36001 48.9217793 39.89601"></polyline>
                            <path d="M36.1871458,37.68479 L36.1871458,46.85769" id="Stroke-132" stroke="#014E7D" stroke-width="1.1" stroke-linecap="round" stroke-linejoin="round"></path>
                            <polyline id="Stroke-134" stroke="#014E7D" stroke-width="1.1" stroke-linecap="round" stroke-linejoin="round" points="31.5726303 52.01471 31.5726303 44.13981 29.792785 42.36001 29.792785 39.89601"></polyline>
                            <path d="M39.3576669,31.71619 C40.6933754,31.71619 41.9114536,32.25959 42.8469992,33.15279 C43.0064047,33.30569 43.2647516,33.17039 43.2394666,32.95259 C42.9173575,30.18499 41.3046132,28.07849 39.3576669,28.07849 C37.4107207,28.07849 35.7979764,30.18499 35.4758673,32.95259 C35.4505822,33.17039 35.7089292,33.30569 35.8683347,33.15279 C36.8038803,32.25959 38.0219585,31.71619 39.3576669,31.71619" id="Fill-136" fill="#014E7D"></path>
                            <path d="M38.236991,32.25827 L36.9243689,28.80097" id="Stroke-138" stroke="#F2F2F2" stroke-width="1.1"></path>
                            <path d="M40.474605,32.25827 L41.7905252,28.80097" id="Stroke-140" stroke="#F2F2F2" stroke-width="1.1"></path>
                            <polygon id="Fill-142" fill="#014E7D" points="41.3340757 52.74962 41.3340757 47.48502 42.5488559 46.26952 43.6745888 47.39592 43.6745888 52.47132 42.6390024 51.39882"></polygon>
                            <polygon id="Fill-144" fill="#014E7D" points="37.3805985 52.74962 37.3805985 47.48502 36.1658184 46.26952 35.0400855 47.39592 35.0400855 52.47132 36.0756718 51.39882"></polygon>
                            <path d="M39.3576669,31.71619 L39.3576669,28.07849" id="Stroke-146" stroke="#F2F2F2" stroke-width="1.1"></path>
                            <path d="M20.7193119,54.4467 L19.640851,53.3676" id="Stroke-148" stroke="#014E7D" stroke-width="1.1" stroke-linecap="round" stroke-linejoin="round"></path>
                            <polyline id="Stroke-150" stroke="#014E7D" stroke-width="1.1" stroke-linecap="round" stroke-linejoin="round" points="16.4781352 58.70788 15.3908795 57.61998 23.8184853 48.89808 24.905741 49.98598"></polyline>
                            <polyline id="Stroke-152" stroke="#014E7D" stroke-width="1.1" stroke-linecap="round" stroke-linejoin="round" points="30.00375 54.43845 31.0734161 53.36815 26.896991 48.89775 25.8097353 49.98565"></polyline>
                            <path d="M57.9956922,54.44637 L59.0741531,53.36727" id="Stroke-154" stroke="#014E7D" stroke-width="1.1" stroke-linecap="round" stroke-linejoin="round"></path>
                            <polyline id="Stroke-156" stroke="#014E7D" stroke-width="1.1" stroke-linecap="round" stroke-linejoin="round" points="53.809373 49.98598 54.8966287 48.89808 63.3231352 57.61998 62.2369788 58.70788"></polyline>
                            <polyline id="Stroke-158" stroke="#014E7D" stroke-width="1.1" stroke-linecap="round" stroke-linejoin="round" points="48.7102647 54.43779 47.6405985 53.36749 51.818123 48.89819 52.9053787 49.98609"></polyline>
                        </g>
                    </g>
                </g>
            </g>
        </g>
    </g>
</svg>