<?xml version="1.0" encoding="UTF-8" standalone="no"?>
<svg width="81px" height="93px" viewBox="0 0 81 93" version="1.1" xmlns="http://www.w3.org/2000/svg" xmlns:xlink="http://www.w3.org/1999/xlink">
    <!-- Generator: sketchtool 41.2 (35397) - http://www.bohemiancoding.com/sketch -->
    <title>FD017D1C-4252-4B41-9FC8-AFA7A304AE89</title>
    <desc>Created with sketchtool.</desc>
    <defs></defs>
    <g id="Page-1" stroke="none" stroke-width="1" fill="none" fill-rule="evenodd">
        <g id="5.1-Iconography" transform="translate(-945.000000, -160.000000)">
            <g id="Content" transform="translate(50.000000, 160.000000)">
                <g id="Group" transform="translate(449.000000, 0.000000)">
                    <g id="Group-25" transform="translate(446.885179, 1.003288)">
                        <g id="Group-5">
                            <path d="M4.39024837,19.76525 L36.5319015,0.82325 C38.3051507,-0.22065 40.4796621,-0.22065 42.2540106,0.82325 L74.560566,19.76525 C76.9813314,21.18975 78.6039699,23.83855 78.6039699,26.70735 L78.6039699,63.27245 C78.6039699,66.14015 76.9725366,68.78895 74.5506718,70.21345 L42.3034813,90.11245 C40.5302321,91.15525 38.302952,91.15525 36.5286034,90.11245 L4.40783795,70.21345 C1.98597313,68.78895 0.550223941,66.14015 0.550223941,63.27245 L0.550223941,26.70735 C0.550223941,23.83855 1.9694829,21.18975 4.39024837,19.76525 L4.39024837,19.76525 Z" id="Stroke-22" stroke="#014E7D" stroke-width="1.1" stroke-linecap="round" stroke-linejoin="round"></path>
                            <polygon id="Stroke-23" stroke="#014E7D" stroke-width="1.1" stroke-linecap="round" stroke-linejoin="round" points="39.357557 35.74407 41.0329642 43.47267 48.756987 45.14907 41.0329642 46.82547 39.357557 54.55407 37.6821498 46.82547 29.958127 45.14907 37.6821498 43.47267"></polygon>
                            <polygon id="Stroke-24" stroke="#014E7D" stroke-width="1.1" stroke-linecap="round" stroke-linejoin="round" points="61.1907288 29.61927 62.866136 37.34787 70.5901588 39.02427 62.866136 40.70067 61.1907288 48.42927 59.5153217 40.70067 51.7912989 39.02427 59.5153217 37.34787"></polygon>
                            <polygon id="Stroke-25" stroke="#014E7D" stroke-width="1.1" stroke-linecap="round" stroke-linejoin="round" points="17.5243852 41.89945 19.1997923 49.62805 26.9238151 51.30445 19.1997923 52.98085 17.5243852 60.70945 15.848978 52.98085 8.12495521 51.30445 15.848978 49.62805"></polygon>
                            <polygon id="Fill-26" fill="#014E7D" points="17.5243852 60.70945 17.5243852 51.30445 19.1997923 52.98085"></polygon>
                            <polygon id="Fill-27" fill="#014E7D" points="17.5243852 51.30456 17.5243852 41.89956 15.848978 49.62816"></polygon>
                            <polygon id="Fill-28" fill="#014E7D" points="17.5243852 51.30456 15.848978 52.98096 8.12495521 51.30456"></polygon>
                            <polygon id="Fill-29" fill="#014E7D" points="17.5243852 51.30456 19.1997923 49.62816 26.9238151 51.30456"></polygon>
                            <polygon id="Fill-30" fill="#014E7D" points="39.3576669 54.55407 39.3576669 45.14907 41.0330741 46.82547"></polygon>
                            <polygon id="Fill-31" fill="#014E7D" points="39.3576669 45.14896 39.3576669 35.74396 37.6822598 43.47256"></polygon>
                            <polygon id="Fill-32" fill="#014E7D" points="39.3576669 45.14896 37.6822598 46.82536 29.958237 45.14896"></polygon>
                            <polygon id="Fill-33" fill="#014E7D" points="39.3576669 45.14896 41.0330741 43.47256 48.7570969 45.14896"></polygon>
                            <polygon id="Fill-34" fill="#014E7D" points="61.1909487 48.39847 61.1909487 38.99347 62.8663559 40.66987"></polygon>
                            <polygon id="Fill-35" fill="#014E7D" points="61.1909487 38.99347 61.1909487 29.58847 59.5155415 37.31707"></polygon>
                            <polygon id="Fill-36" fill="#014E7D" points="61.1909487 38.99347 59.5155415 40.66987 51.7915187 38.99347"></polygon>
                            <polygon id="Fill-37" fill="#014E7D" points="61.1909487 38.99347 62.8663559 37.31707 70.5903787 38.99347"></polygon>
                        </g>
                    </g>
                </g>
            </g>
        </g>
    </g>
</svg>